
CASCADE Topology V3, (c) Open Cascade
Locations 0
Curve2ds 0
Curves 0
Polygon3D 0
PolygonOnTriangulations 0
Surfaces 0
Triangulations 0

TShapes 110
Ve
1e-07
51.8592003985671 20.1739042575893 0
0 0

0101101
*
Ve
1e-07
51.7403987867576 14.7875405024754 0
0 0

0101101
*
Ve
1e-07
51.6855259078305 17.442104156264 0
0 0

0101101
*
Ve
1e-07
51.6591971431159 11.6761046837649 0
0 0

0101101
*
Ve
1e-07
51.7110200507037 9.08495930437682 0
0 0

0101101
*
Ve
1e-07
6.90589153254583 26.7195487520265 0
0 0

0101101
*
Ve
1e-07
6.90596285408374 20.7618919753057 0
0 0

0101101
*
Ve
1e-07
6.8294791149721 18.0546622502079 0
0 0

0101101
*
Ve
1e-07
6.86272032508383 15.2830665263321 0
0 0

0101101
*
Ve
1e-07
6.79550626766638 12.4702886766126 0
0 0

0101101
*
Ve
1e-07
6.90181396987553 23.8161501021198 0
0 0

0101101
*
Ve
1e-07
57.3220388870571 6.80451022498859 0
0 0

0101101
*
Ve
1e-07
44.0786702356094 10.4642085203191 0
0 0

0101101
*
Ve
1e-07
20.6773106981777 21.7083387360594 0
0 0

0101101
*
Ve
1e-07
26.1288059150001 21.6516703866122 0
0 0

0101101
*
Ve
1e-07
23.4200588114231 21.6516703866122 0
0 0

0101101
*
Ve
1e-07
42.0911423261242 13.2130309425705 0
0 0

0101101
*
Ve
1e-07
40.2721582697937 10.1347502318575 0
0 0

0101101
*
Ve
1e-07
36.2004324206232 9.89688308602963 0
0 0

0101101
*
Ve
1e-07
34.4793936596336 13.2410153126679 0
0 0

0101101
*
Ve
1e-07
20.233709287636 7.18348469522306 0
0 0

0101101
*
Ve
1e-07
27.131856516643 7.16949251017437 0
0 0

0101101
*
Ve
1e-07
32.3509415398066 7.25344562046654 0
0 0

0101101
*
Ve
1e-07
32.09908220893 10.3177341461309 0
0 0

0101101
*
Ve
1e-07
24.1375289162221 10.3876950713744 0
0 0

0101101
*
Ve
1e-07
28.2512313205387 13.857756963451 0
0 0

0101101
*
Ve
1e-07
32.1550509491248 13.857756963451 0
0 0

0101101
*
Ve
1e-07
32.1550509491248 17.6216547415501 0
0 0

0101101
*
Ve
1e-07
26.2460660565306 19.4858230694465 0
0 0

0101101
*
Ve
1e-07
20.9857698507431 16.2451868379578 0
0 0

0101101
*
Ve
1e-07
17.9779332607764 5.0297387430233 0
0 0

0101101
*
Ve
1e-07
18.0119342704447 7.09246666290203 0
0 0

0101101
*
Ve
1e-07
23.4747631571565 7.20580336179647 0
0 0

0101101
*
Ve
1e-07
28.9565654553249 7.02235058883028 0
0 0

0101101
*
Ve
1e-07
23.4484018890553 5.14096138718264 0
0 0

0101101
*
Ve
1e-07
28.8885634359882 5.03895835817765 0
0 0

0101101
*
Ve
1e-07
34.4647290215945 5.05029202806709 0
0 0

0101101
*
Ve
1e-07
34.4080606721473 7.18102196728249 0
0 0

0101101
*
Ve
1e-07
39.8946167161964 7.20571058054605 0
0 0

0101101
*
Ve
1e-07
39.9365932713425 5.12087500829038 0
0 0

0101101
*
Ve
1e-07
45.4075376253826 4.99494534285211 0
0 0

0101101
*
Ve
1e-07
48.3079301618052 7.16260090622678 0
0 0

0101101
*
Ve
1e-07
52.3936481960244 6.89674939030156 0
0 0

0101101
*
Ve
1e-07
55.7097960525653 5.60946836582155 0
0 0

0101101
*
Ve
1e-07
54.9961946150818 11.3882407909329 0
0 0

0101101
*
Ve
1e-07
44.1222134782138 7.24328627454394 0
0 0

0101101
*
Ve
1e-07
44.1752179480946 14.081809520941 0
0 0

0101101
*
Ve
1e-07
47.4393148762543 10.6023728648818 0
0 0

0101101
*
Ve
1e-07
47.4619822160332 16.4732138676136 0
0 0

0101101
*
Ve
1e-07
47.4166475364754 13.8551361231521 0
0 0

0101101
*
Ve
1e-07
55.250782396109 16.8251352143535 0
0 0

0101101
*
Ve
1e-07
51.2776928143805 23.3720958729408 0
0 0

0101101
*
Ve
1e-07
39.0837823125938 15.4473373012372 0
0 0

0101101
*
Ve
1e-07
39.0044466233677 13.2486053426851 0
0 0

0101101
*
Ve
1e-07
37.043721732494 13.3052736921323 0
0 0

0101101
*
Ve
1e-07
37.1343910916095 15.3793352819005 0
0 0

0101101
*
Ve
1e-07
37.043721732494 19.7541318592258 0
0 0

0101101
*
Ve
1e-07
41.7018600570553 19.2101157045325 0
0 0

0101101
*
Ve
1e-07
46.393999391285 19.3801207528741 0
0 0

0101101
*
Ve
1e-07
44.1159317435068 18.9154402874069 0
0 0

0101101
*
Ve
1e-07
44.070597063949 21.7488577597678 0
0 0

0101101
*
Ve
1e-07
55.0377446563315 21.9781231422971 0
0 0

0101101
*
Ve
1e-07
55.8073148340098 26.5675598382693 0
0 0

0101101
*
Ve
1e-07
51.2738468782323 25.7700052904937 0
0 0

0101101
*
Ve
1e-07
49.5807924873401 28.2186376740154 0
0 0

0101101
*
Ve
1e-07
45.4530978979749 26.1477942868085 0
0 0

0101101
*
Ve
1e-07
39.9022437683686 25.1079819557436 0
0 0

0101101
*
Ve
1e-07
39.9442203235147 21.595943508521 0
0 0

0101101
*
Ve
1e-07
37.1317911287268 21.6239278786184 0
0 0

0101101
*
Ve
1e-07
37.2297364240677 24.9820522903054 0
0 0

0101101
*
Ve
1e-07
34.4872681545233 25.2199194361332 0
0 0

0101101
*
Ve
1e-07
34.4033150442311 21.6938888038618 0
0 0

0101101
*
Ve
1e-07
31.6805208040507 21.6790719610927 0
0 0

0101101
*
Ve
1e-07
31.9298615416185 25.033838248368 0
0 0

0101101
*
Ve
1e-07
29.0511093896998 24.8524995301369 0
0 0

0101101
*
Ve
1e-07
28.903771681137 21.713072970761 0
0 0

0101101
*
Ve
1e-07
26.311038046926 25.0074251786855 0
0 0

0101101
*
Ve
1e-07
17.9576183816604 21.7642767068953 0
0 0

0101101
*
Ve
1e-07
23.5125158459927 25.0244558232414 0
0 0

0101101
*
Ve
1e-07
20.7560553913996 24.9405027129493 0
0 0

0101101
*
Ve
1e-07
18.1395167872935 24.9405027129493 0
0 0

0101101
*
Ve
1e-07
15.6979342959021 25.0266675527307 0
0 0

0101101
*
Ve
1e-07
12.8127582198901 25.0489756151741 0
0 0

0101101
*
Ve
1e-07
9.86065795654789 24.9597433654005 0
0 0

0101101
*
Ve
1e-07
15.2092330010303 21.7646011609644 0
0 0

0101101
*
Ve
1e-07
12.3017488625749 21.6976769736342 0
0 0

0101101
*
Ve
1e-07
9.40170074493395 21.6604968695619 0
0 0

0101101
*
Ve
1e-07
12.5864184397856 18.8258042426545 0
0 0

0101101
*
Ve
1e-07
15.0911594853527 18.7238012136495 0
0 0

0101101
*
Ve
1e-07
11.0363792087343 16.7362683499549 0
0 0

0101101
*
Ve
1e-07
11.0263001023404 10.5896399288719 0
0 0

0101101
*
Ve
1e-07
11.099742283224 14.3076503361039 0
0 0

0101101
*
Ve
1e-07
15.1390622318217 14.2709292456621 0
0 0

0101101
*
Ve
1e-07
15.1757833222635 11.2322590116033 0
0 0

0101101
*
Ve
1e-07
15.223167548521 6.99986603009876 0
0 0

0101101
*
Ve
1e-07
12.4761753809844 7.03453647081301 0
0 0

0101101
*
Ve
1e-07
12.5128964714262 5.06077785956641 0
0 0

0101101
*
Ve
1e-07
1.03221448357265 10.9060641887498 0
0 0

0101101
*
Ve
1e-07
1.0781158466249 7.08707078280289 0
0 0

0101101
*
Ve
1e-07
1.08729611923535 5.11331217155629 0
0 0

0101101
*
Ve
1e-07
7.00857195297515 5.07659108111449 0
0 0

0101101
*
Ve
1e-07
6.94431004470201 7.21559459934918 0
0 0

0101101
*
Ve
1e-07
4.00692772411645 9.25672915996666 0
0 0

0101101
*
Ve
1e-07
5.23772625865711 12.5347476643907 0
0 0

0101101
*
Ve
1e-07
5.2512738102545 15.3231316478284 0
0 0

0101101
*
Ve
1e-07
5.24730523968099 18.0898485984479 0
0 0

0101101
*
Ve
1e-07
5.20181964738338 20.840987282853 0
0 0

0101101
*
Ve
1e-07
4.99274408881334 26.7544339414235 0
0 0

0101101
*
Ve
1e-07
5.0168367962522 23.7669382190044 0
0 0

0101101
*
Co

1100000
+110 0 +109 0 +108 0 +107 0 +106 0 +105 0 +104 0 +103 0 +102 0 +101 0 
+100 0 +99 0 +98 0 +97 0 +96 0 +95 0 +94 0 +93 0 +92 0 +91 0 
+90 0 +89 0 +88 0 +87 0 +86 0 +85 0 +84 0 +83 0 +82 0 +81 0 
+80 0 +79 0 +78 0 +77 0 +76 0 +75 0 +74 0 +73 0 +72 0 +71 0 
+70 0 +69 0 +68 0 +67 0 +66 0 +65 0 +64 0 +63 0 +62 0 +61 0 
+60 0 +59 0 +58 0 +57 0 +56 0 +55 0 +54 0 +53 0 +52 0 +51 0 
+50 0 +49 0 +48 0 +47 0 +46 0 +45 0 +44 0 +43 0 +42 0 +41 0 
+40 0 +39 0 +38 0 +37 0 +36 0 +35 0 +34 0 +33 0 +32 0 +31 0 
+30 0 +29 0 +28 0 +27 0 +26 0 +25 0 +24 0 +23 0 +22 0 +21 0 
+20 0 +19 0 +18 0 +17 0 +16 0 +15 0 +14 0 +13 0 +12 0 +11 0 
+10 0 +9 0 +8 0 +7 0 +6 0 +5 0 +4 0 +3 0 +2 0 *

+1 0 