
CASCADE Topology V3, (c) Open Cascade
Locations 0
Curve2ds 0
Curves 0
Polygon3D 0
PolygonOnTriangulations 0
Surfaces 0
Triangulations 0

TShapes 49
Ve
1e-07
45.45 18.4582427618868 0
0 0

0101101
*
Ve
1e-07
45.45 17.6674448197547 0
0 0

0101101
*
Ve
1e-07
45.45 16.8766468776226 0
0 0

0101101
*
Ve
1e-07
45.45 16.0858489354905 0
0 0

0101101
*
Ve
1e-07
43.6013477615075 16.0858489354905 0
0 0

0101101
*
Ve
1e-07
43.6013477615076 16.8766468776226 0
0 0

0101101
*
Ve
1e-07
43.6013477615076 17.6674448197547 0
0 0

0101101
*
Ve
1e-07
43.6013477615075 18.4582427618868 0
0 0

0101101
*
Ve
1e-07
56.7 3.98148439784282 0
0 0

0101101
*
Ve
1e-07
56.7 3.19068645571069 0
0 0

0101101
*
Ve
1e-07
56.7 2.39988851357858 0
0 0

0101101
*
Ve
1e-07
56.7 1.60909057144647 0
0 0

0101101
*
Ve
1e-07
54.8513477615075 1.60909057144649 0
0 0

0101101
*
Ve
1e-07
54.8513477615076 2.39988851357859 0
0 0

0101101
*
Ve
1e-07
54.8513477615076 3.1906864557107 0
0 0

0101101
*
Ve
1e-07
54.8513477615076 3.98148439784282 0
0 0

0101101
*
Ve
1e-07
12.5545116795225 3.98148439784282 0
0 0

0101101
*
Ve
1e-07
12.5545116795225 3.1906864557107 0
0 0

0101101
*
Ve
1e-07
12.5545116795225 2.39988851357858 0
0 0

0101101
*
Ve
1e-07
12.5545116795225 1.60909057144647 0
0 0

0101101
*
Ve
1e-07
10.7058594410301 1.60909057144649 0
0 0

0101101
*
Ve
1e-07
10.7058594410301 2.3998885135786 0
0 0

0101101
*
Ve
1e-07
10.7058594410301 3.19068645571071 0
0 0

0101101
*
Ve
1e-07
10.7058594410301 3.98148439784283 0
0 0

0101101
*
Ve
1e-07
36.9453719793637 19.1996934058337 0
0 0

0101101
*
Ve
1e-07
36.1249905596545 19.1980773947234 0
0 0

0101101
*
Ve
1e-07
34.9875 18.1927516339307 0
0 0

0101101
*
Ve
1e-07
34.9914518063377 17.36682410936 0
0 0

0101101
*
Ve
1e-07
36.0868915156753 16.2687092536199 0
0 0

0101101
*
Ve
1e-07
36.8511058021309 16.2768532780456 0
0 0

0101101
*
Ve
1e-07
37.9308285166411 17.286991076655 0
0 0

0101101
*
Ve
1e-07
37.9426839356541 18.1405812455894 0
0 0

0101101
*
Ve
1e-07
32.4285864822061 15.2001072083123 0
0 0

0101101
*
Ve
1e-07
31.6569427253853 15.2001072083123 0
0 0

0101101
*
Ve
1e-07
30.8852989685645 15.2001072083123 0
0 0

0101101
*
Ve
1e-07
30.1136552117437 15.2001072083123 0
0 0

0101101
*
Ve
1e-07
29.3420114549229 15.2001072083123 0
0 0

0101101
*
Ve
1e-07
28.5703676981021 15.2001072083123 0
0 0

0101101
*
Ve
1e-07
27.7987239412813 15.2001072083123 0
0 0

0101101
*
Ve
1e-07
27.0270801844605 15.2001072083123 0
0 0

0101101
*
Ve
1e-07
30.1136552117437 17.0461666666666 0
0 0

0101101
*
Ve
1e-07
30.8852989685646 17.0461666666666 0
0 0

0101101
*
Ve
1e-07
31.6569427253854 17.0461666666666 0
0 0

0101101
*
Ve
1e-07
32.4285864822062 17.0461666666666 0
0 0

0101101
*
Ve
1e-07
27.0270801844605 17.0461666666666 0
0 0

0101101
*
Ve
1e-07
27.7987239412813 17.0461666666666 0
0 0

0101101
*
Ve
1e-07
28.5703676981021 17.0461666666666 0
0 0

0101101
*
Ve
1e-07
29.3420114549229 17.0461666666666 0
0 0

0101101
*
Co

1100000
+49 0 +48 0 +47 0 +46 0 +45 0 +44 0 +43 0 +42 0 +41 0 +40 0 
+39 0 +38 0 +37 0 +36 0 +35 0 +34 0 +33 0 +32 0 +31 0 +30 0 
+29 0 +28 0 +27 0 +26 0 +25 0 +24 0 +23 0 +22 0 +21 0 +20 0 
+19 0 +18 0 +17 0 +16 0 +15 0 +14 0 +13 0 +12 0 +11 0 +10 0 
+9 0 +8 0 +7 0 +6 0 +5 0 +4 0 +3 0 +2 0 *

+1 0 