
CASCADE Topology V3, (c) Open Cascade
Locations 0
Curve2ds 0
Curves 0
Polygon3D 0
PolygonOnTriangulations 0
Surfaces 0
Triangulations 0

TShapes 109
Ve
1e-07
47.9455289804778 4.66933205940269 0
0 0

0101101
*
Ve
1e-07
47.9455289804778 2.81593488704075 0
0 0

0101101
*
Ve
1e-07
47.9455289804778 0.962537714678803 0
0 0

0101101
*
Ve
1e-07
45.3491677170703 1.3435377146788 0
0 0

0101101
*
Ve
1e-07
45.3491677170703 3.19693488704075 0
0 0

0101101
*
Ve
1e-07
42.4633623138112 4.66933205940269 0
0 0

0101101
*
Ve
1e-07
42.4633623138112 2.81593488704075 0
0 0

0101101
*
Ve
1e-07
42.4633623138112 0.962537714678803 0
0 0

0101101
*
Ve
1e-07
39.8670010504036 1.3435377146788 0
0 0

0101101
*
Ve
1e-07
39.8670010504036 3.19693488704075 0
0 0

0101101
*
Ve
1e-07
37.0023623138112 4.66933205940269 0
0 0

0101101
*
Ve
1e-07
37.0023623138112 2.81593488704075 0
0 0

0101101
*
Ve
1e-07
37.0023623138112 0.962537714678803 0
0 0

0101101
*
Ve
1e-07
34.4060010504036 1.3435377146788 0
0 0

0101101
*
Ve
1e-07
34.4060010504036 3.19693488704075 0
0 0

0101101
*
Ve
1e-07
31.4990289804778 4.66933205940269 0
0 0

0101101
*
Ve
1e-07
31.4990289804778 2.81593488704075 0
0 0

0101101
*
Ve
1e-07
31.4990289804778 0.962537714678803 0
0 0

0101101
*
Ve
1e-07
28.9026677170703 1.3435377146788 0
0 0

0101101
*
Ve
1e-07
28.9026677170703 3.19693488704075 0
0 0

0101101
*
Ve
1e-07
26.0380289804778 4.66933205940269 0
0 0

0101101
*
Ve
1e-07
26.0380289804778 2.81593488704075 0
0 0

0101101
*
Ve
1e-07
26.0380289804778 0.962537714678803 0
0 0

0101101
*
Ve
1e-07
23.4416677170703 1.3435377146788 0
0 0

0101101
*
Ve
1e-07
23.4416677170703 3.19693488704075 0
0 0

0101101
*
Ve
1e-07
20.5558623138112 4.66933205940269 0
0 0

0101101
*
Ve
1e-07
20.5558623138112 2.81593488704075 0
0 0

0101101
*
Ve
1e-07
20.5558623138112 0.962537714678803 0
0 0

0101101
*
Ve
1e-07
17.9595010504036 1.3435377146788 0
0 0

0101101
*
Ve
1e-07
17.9595010504036 3.19693488704075 0
0 0

0101101
*
Ve
1e-07
7.76902883840357 9.29145330814699 0
0 0

0101101
*
Ve
1e-07
9.30606000499441 8.41617080388525 0
0 0

0101101
*
Ve
1e-07
10.0585343147544 8.40934570063049 0
0 0

0101101
*
Ve
1e-07
7.74489344126098 26.0347932744796 0
0 0

0101101
*
Ve
1e-07
9.28192460785182 25.1595107702179 0
0 0

0101101
*
Ve
1e-07
10.0343989176119 25.1526856669631 0
0 0

0101101
*
Ve
1e-07
7.73489116029017 22.9426217674099 0
0 0

0101101
*
Ve
1e-07
9.27192232688101 22.0673392631481 0
0 0

0101101
*
Ve
1e-07
10.024396636641 22.0605141598934 0
0 0

0101101
*
Ve
1e-07
7.7316431238031 11.9853076591582 0
0 0

0101101
*
Ve
1e-07
9.26867429039394 11.1100251548965 0
0 0

0101101
*
Ve
1e-07
10.021148600154 11.1032000516417 0
0 0

0101101
*
Ve
1e-07
7.7316431238031 14.7118486244609 0
0 0

0101101
*
Ve
1e-07
9.26867429039394 13.8365661201991 0
0 0

0101101
*
Ve
1e-07
10.021148600154 13.8297410169443 0
0 0

0101101
*
Ve
1e-07
7.7316431238031 17.4586175429142 0
0 0

0101101
*
Ve
1e-07
9.26867429039394 16.5833350386525 0
0 0

0101101
*
Ve
1e-07
10.021148600154 16.5765099353977 0
0 0

0101101
*
Ve
1e-07
7.7316431238031 20.2053864613675 0
0 0

0101101
*
Ve
1e-07
9.26867429039394 19.3301039571058 0
0 0

0101101
*
Ve
1e-07
10.021148600154 19.323278853851 0
0 0

0101101
*
Ve
1e-07
16.7035619563314 27.5844337227272 0
0 0

0101101
*
Ve
1e-07
15.574448450909 26.1319667547752 0
0 0

0101101
*
Ve
1e-07
15.5725132349202 25.3683740643822 0
0 0

0101101
*
Ve
1e-07
15.579338338175 24.6158997546222 0
0 0

0101101
*
Ve
1e-07
20.4325401982044 26.1319667547752 0
0 0

0101101
*
Ve
1e-07
20.4344754141932 25.3683740643822 0
0 0

0101101
*
Ve
1e-07
20.4276503109384 24.6158997546222 0
0 0

0101101
*
Ve
1e-07
19.2880579017025 27.581721583125 0
0 0

0101101
*
Ve
1e-07
33.1817679399376 27.5844337227272 0
0 0

0101101
*
Ve
1e-07
35.7662638853087 27.581721583125 0
0 0

0101101
*
Ve
1e-07
32.1700110680672 26.1307982102031 0
0 0

0101101
*
Ve
1e-07
32.1680758520784 25.3672055198101 0
0 0

0101101
*
Ve
1e-07
32.1749009553332 24.6147312100501 0
0 0

0101101
*
Ve
1e-07
36.7797219724807 26.1389254266906 0
0 0

0101101
*
Ve
1e-07
36.7816571884695 25.3753327362976 0
0 0

0101101
*
Ve
1e-07
36.7748320852147 24.6228584265376 0
0 0

0101101
*
Ve
1e-07
52.2872499786131 27.5844337227272 0
0 0

0101101
*
Ve
1e-07
51.2754931067427 26.1307982102031 0
0 0

0101101
*
Ve
1e-07
51.2735578907539 25.3672055198101 0
0 0

0101101
*
Ve
1e-07
51.2803829940087 24.6147312100501 0
0 0

0101101
*
Ve
1e-07
54.8907309012 27.5790094435227 0
0 0

0101101
*
Ve
1e-07
55.9088347054098 24.6280439868139 0
0 0

0101101
*
Ve
1e-07
55.9156598086645 25.3805182965739 0
0 0

0101101
*
Ve
1e-07
55.9137245926757 26.1441109869669 0
0 0

0101101
*
Ve
1e-07
49.3102499614227 27.5498280017284 0
0 0

0101101
*
Ve
1e-07
49.3102499614227 25.6800764987 0
0 0

0101101
*
Ve
1e-07
49.3102499614227 23.8036682211294 0
0 0

0101101
*
Ve
1e-07
46.8951134493346 27.5498280017284 0
0 0

0101101
*
Ve
1e-07
46.8951134493346 25.6800764987 0
0 0

0101101
*
Ve
1e-07
46.8951134493346 23.8036682211294 0
0 0

0101101
*
Ve
1e-07
45.172691132413 27.5498280017284 0
0 0

0101101
*
Ve
1e-07
45.172691132413 25.6800764987 0
0 0

0101101
*
Ve
1e-07
45.172691132413 23.8036682211294 0
0 0

0101101
*
Ve
1e-07
42.7575546203249 27.5498280017284 0
0 0

0101101
*
Ve
1e-07
42.7575546203249 25.6800764987 0
0 0

0101101
*
Ve
1e-07
42.7575546203249 23.8036682211294 0
0 0

0101101
*
Ve
1e-07
41.1605719915499 27.5498280017284 0
0 0

0101101
*
Ve
1e-07
41.1605719915499 25.6800764987 0
0 0

0101101
*
Ve
1e-07
41.1605719915499 23.8036682211294 0
0 0

0101101
*
Ve
1e-07
38.7454354794618 27.5498280017284 0
0 0

0101101
*
Ve
1e-07
38.7454354794618 25.6800764987 0
0 0

0101101
*
Ve
1e-07
38.7454354794618 23.8036682211294 0
0 0

0101101
*
Ve
1e-07
61.5464185266189 13.2095174895668 0
0 0

0101101
*
Ve
1e-07
60.7828360498117 13.2051194223384 0
0 0

0101101
*
Ve
1e-07
63.6115033550332 12.3182072081397 0
0 0

0101101
*
Ve
1e-07
63.3638611545857 9.94112607033804 0
0 0

0101101
*
Ve
1e-07
63.3638611545857 15.5134731843884 0
0 0

0101101
*
Ve
1e-07
63.3638611545857 20.9792858632685 0
0 0

0101101
*
Ve
1e-07
61.5411822178822 28.1867410559608 0
0 0

0101101
*
Ve
1e-07
60.7775997410749 28.1823429887324 0
0 0

0101101
*
Ve
1e-07
63.6062670462964 27.2954307745336 0
0 0

0101101
*
Ve
1e-07
61.5392587993709 24.1490368911295 0
0 0

0101101
*
Ve
1e-07
60.7756763225637 24.1446388239011 0
0 0

0101101
*
Ve
1e-07
63.6043436277851 23.2577266097024 0
0 0

0101101
*
Ve
1e-07
61.5350473904466 18.6668862613673 0
0 0

0101101
*
Ve
1e-07
60.7714649136393 18.6624881941389 0
0 0

0101101
*
Ve
1e-07
63.6001322188608 17.7755759799402 0
0 0

0101101
*
Co

1100000
+109 0 +108 0 +107 0 +106 0 +105 0 +104 0 +103 0 +102 0 +101 0 +100 0 
+99 0 +98 0 +97 0 +96 0 +95 0 +94 0 +93 0 +92 0 +91 0 +90 0 
+89 0 +88 0 +87 0 +86 0 +85 0 +84 0 +83 0 +82 0 +81 0 +80 0 
+79 0 +78 0 +77 0 +76 0 +75 0 +74 0 +73 0 +72 0 +71 0 +70 0 
+69 0 +68 0 +67 0 +66 0 +65 0 +64 0 +63 0 +62 0 +61 0 +60 0 
+59 0 +58 0 +57 0 +56 0 +55 0 +54 0 +53 0 +52 0 +51 0 +50 0 
+49 0 +48 0 +47 0 +46 0 +45 0 +44 0 +43 0 +42 0 +41 0 +40 0 
+39 0 +38 0 +37 0 +36 0 +35 0 +34 0 +33 0 +32 0 +31 0 +30 0 
+29 0 +28 0 +27 0 +26 0 +25 0 +24 0 +23 0 +22 0 +21 0 +20 0 
+19 0 +18 0 +17 0 +16 0 +15 0 +14 0 +13 0 +12 0 +11 0 +10 0 
+9 0 +8 0 +7 0 +6 0 +5 0 +4 0 +3 0 +2 0 *

+1 0 