
CASCADE Topology V3, (c) Open Cascade
Locations 0
Curve2ds 0
Curves 0
Polygon3D 0
PolygonOnTriangulations 0
Surfaces 0
Triangulations 0

TShapes 406
Ve
1e-07
65.1024955394271 7.36689885664583 0
0 0

0101101
*
Ve
1e-07
64.4091141197179 7.38644951220218 0
0 0

0101101
*
Ve
1e-07
63.3252729064409 6.33372070768457 0
0 0

0101101
*
Ve
1e-07
63.3292247127786 5.50779318311384 0
0 0

0101101
*
Ve
1e-07
64.4371976863447 4.47824803776536 0
0 0

0101101
*
Ve
1e-07
65.2014119728003 4.48639206219105 0
0 0

0101101
*
Ve
1e-07
66.268601423082 5.49396186093203 0
0 0

0101101
*
Ve
1e-07
66.280456842095 6.34755202986638 0
0 0

0101101
*
Ve
1e-07
11.6766306651592 10.1903333333333 0
0 0

0101101
*
Ve
1e-07
10.85624924545 10.188717322223 0
0 0

0101101
*
Ve
1e-07
9.77240803217295 9.13598851770539 0
0 0

0101101
*
Ve
1e-07
9.77635983851062 8.31006099313466 0
0 0

0101101
*
Ve
1e-07
10.8843328120768 7.28051584778618 0
0 0

0101101
*
Ve
1e-07
11.6485470985324 7.28865987221188 0
0 0

0101101
*
Ve
1e-07
12.7157365488141 8.29622967095285 0
0 0

0101101
*
Ve
1e-07
12.7275919678271 9.1498198398872 0
0 0

0101101
*
Ve
1e-07
60.9961622060938 3.47223218997917 0
0 0

0101101
*
Ve
1e-07
60.1757807863846 3.47061617886884 0
0 0

0101101
*
Ve
1e-07
59.0919395731075 2.41788737435123 0
0 0

0101101
*
Ve
1e-07
59.0958913794452 1.5919598497805 0
0 0

0101101
*
Ve
1e-07
60.2038643530114 0.562414704432022 0
0 0

0101101
*
Ve
1e-07
60.968078639467 0.570558728857719 0
0 0

0101101
*
Ve
1e-07
62.0352680897487 1.5781285275987 0
0 0

0101101
*
Ve
1e-07
62.0471235087617 2.43171869653305 0
0 0

0101101
*
Ve
1e-07
65.2294955394271 3.47223218997917 0
0 0

0101101
*
Ve
1e-07
64.4091141197179 3.47061617886884 0
0 0

0101101
*
Ve
1e-07
63.3252729064409 2.41788737435123 0
0 0

0101101
*
Ve
1e-07
63.3292247127786 1.5919598497805 0
0 0

0101101
*
Ve
1e-07
64.4371976863447 0.562414704432022 0
0 0

0101101
*
Ve
1e-07
65.2014119728003 0.570558728857719 0
0 0

0101101
*
Ve
1e-07
66.268601423082 1.5781285275987 0
0 0

0101101
*
Ve
1e-07
66.280456842095 2.43171869653305 0
0 0

0101101
*
Ve
1e-07
51.5892367807209 4.69924450164184 0
0 0

0101101
*
Ve
1e-07
51.5892367807209 2.84584732927989 0
0 0

0101101
*
Ve
1e-07
51.5892367807209 0.992450156917954 0
0 0

0101101
*
Ve
1e-07
49.0563755173133 1.37345015691795 0
0 0

0101101
*
Ve
1e-07
49.0563755173133 3.2268473292799 0
0 0

0101101
*
Ve
1e-07
46.1070701140542 4.69924450164184 0
0 0

0101101
*
Ve
1e-07
46.1070701140542 2.84584732927989 0
0 0

0101101
*
Ve
1e-07
46.1070701140542 0.992450156917954 0
0 0

0101101
*
Ve
1e-07
43.5953755173133 1.37345015691795 0
0 0

0101101
*
Ve
1e-07
43.5953755173133 3.2268473292799 0
0 0

0101101
*
Ve
1e-07
40.6672367807209 4.69924450164184 0
0 0

0101101
*
Ve
1e-07
40.6672367807209 2.84584732927989 0
0 0

0101101
*
Ve
1e-07
40.6672367807209 0.992450156917954 0
0 0

0101101
*
Ve
1e-07
38.1343755173133 1.37345015691795 0
0 0

0101101
*
Ve
1e-07
38.1343755173133 3.2268473292799 0
0 0

0101101
*
Ve
1e-07
35.2062367807209 4.69924450164184 0
0 0

0101101
*
Ve
1e-07
35.2062367807209 2.84584732927989 0
0 0

0101101
*
Ve
1e-07
35.2062367807209 0.992450156917954 0
0 0

0101101
*
Ve
1e-07
32.6098755173133 1.37345015691795 0
0 0

0101101
*
Ve
1e-07
32.6098755173133 3.2268473292799 0
0 0

0101101
*
Ve
1e-07
29.7029034473875 4.69924450164184 0
0 0

0101101
*
Ve
1e-07
29.7029034473875 2.84584732927989 0
0 0

0101101
*
Ve
1e-07
29.7029034473875 0.992450156917954 0
0 0

0101101
*
Ve
1e-07
27.10654218398 1.37345015691795 0
0 0

0101101
*
Ve
1e-07
27.10654218398 3.2268473292799 0
0 0

0101101
*
Ve
1e-07
24.2207367807209 4.69924450164184 0
0 0

0101101
*
Ve
1e-07
24.2207367807209 2.84584732927989 0
0 0

0101101
*
Ve
1e-07
24.2207367807209 0.992450156917954 0
0 0

0101101
*
Ve
1e-07
21.6878755173133 1.37345015691795 0
0 0

0101101
*
Ve
1e-07
58.96875 3.81549999999999 0
0 0

0101101
*
Ve
1e-07
62.58825 7.56199999999999 0
0 0

0101101
*
Ve
1e-07
66.4194166666667 7.56199999999999 0
0 0

0101101
*
Ve
1e-07
66.4194166666667 3.81549999999999 0
0 0

0101101
*
Ve
1e-07
66.4194166666667 0.471166666666658 0
0 0

0101101
*
Ve
1e-07
58.96875 0.471166666666658 0
0 0

0101101
*
Ve
1e-07
62.71875 0.471166666666658 0
0 0

0101101
*
Ve
1e-07
62.71875 3.84616666666667 0
0 0

0101101
*
Ve
1e-07
59.891875 6.84616666666667 0
0 0

0101101
*
Ve
1e-07
55.3622083333333 21.43 0
0 0

0101101
*
Ve
1e-07
57.8387083333333 21.43 0
0 0

0101101
*
Ve
1e-07
56.462875 6.84616666666667 0
0 0

0101101
*
Ve
1e-07
53.859375 6.84616666666666 0
0 0

0101101
*
Ve
1e-07
13.6927708333333 0.723481257677658 0
0 0

0101101
*
Ve
1e-07
11.6738958333333 0.723481257677658 0
0 0

0101101
*
Ve
1e-07
9.72656249999999 0.723481257677658 0
0 0

0101101
*
Ve
1e-07
13.6927708333333 5.16848125767766 0
0 0

0101101
*
Ve
1e-07
11.6738958333333 5.16848125767766 0
0 0

0101101
*
Ve
1e-07
9.72656249999999 5.16848125767766 0
0 0

0101101
*
Ve
1e-07
13.6927708333334 2.99260207565566 0
0 0

0101101
*
Ve
1e-07
9.72656249999998 2.89885207565566 0
0 0

0101101
*
Ve
1e-07
57.65625 5.06491666666664 0
0 0

0101101
*
Ve
1e-07
55.7432083333333 5.06491666666664 0
0 0

0101101
*
Ve
1e-07
53.859375 5.06491666666664 0
0 0

0101101
*
Ve
1e-07
57.65625 2.88903748464465 0
0 0

0101101
*
Ve
1e-07
53.859375 2.79528748464465 0
0 0

0101101
*
Ve
1e-07
48.91325 9.72483333333333 0
0 0

0101101
*
Ve
1e-07
40.7407083333333 9.72483333333334 0
0 0

0101101
*
Ve
1e-07
50.71875 11.0649166666667 0
0 0

0101101
*
Ve
1e-07
42.9375 11.0649166666667 0
0 0

0101101
*
Ve
1e-07
44.2120416666667 9.72483333333334 0
0 0

0101101
*
Ve
1e-07
32.460125 9.72483333333332 0
0 0

0101101
*
Ve
1e-07
45.1879166666667 6.84616666666667 0
0 0

0101101
*
Ve
1e-07
51.32625 6.84616666666667 0
0 0

0101101
*
Ve
1e-07
48.46875 6.84616666666666 0
0 0

0101101
*
Ve
1e-07
48.46875 5.06491666666664 0
0 0

0101101
*
Ve
1e-07
50.390625 4.50241666666666 0
0 0

0101101
*
Ve
1e-07
50.390625 2.34616666666665 0
0 0

0101101
*
Ve
1e-07
42.984375 6.84616666666667 0
0 0

0101101
*
Ve
1e-07
42.984375 5.06491666666666 0
0 0

0101101
*
Ve
1e-07
44.90625 4.50241666666667 0
0 0

0101101
*
Ve
1e-07
44.90625 2.34616666666667 0
0 0

0101101
*
Ve
1e-07
28.659875 8.64533333333334 0
0 0

0101101
*
Ve
1e-07
40.7407083333333 8.64533333333334 0
0 0

0101101
*
Ve
1e-07
35.581375 8.64533333333334 0
0 0

0101101
*
Ve
1e-07
28.659875 6.84616666666667 0
0 0

0101101
*
Ve
1e-07
35.581375 6.84616666666667 0
0 0

0101101
*
Ve
1e-07
40.7407083333333 6.84616666666667 0
0 0

0101101
*
Ve
1e-07
37.359375 6.84616666666666 0
0 0

0101101
*
Ve
1e-07
37.359375 5.06491666666666 0
0 0

0101101
*
Ve
1e-07
39.28125 4.50241666666667 0
0 0

0101101
*
Ve
1e-07
39.28125 2.34616666666667 0
0 0

0101101
*
Ve
1e-07
32.015625 6.84616666666665 0
0 0

0101101
*
Ve
1e-07
32.015625 5.15866666666666 0
0 0

0101101
*
Ve
1e-07
33.9375 4.59616666666667 0
0 0

0101101
*
Ve
1e-07
33.9375 2.43991666666667 0
0 0

0101101
*
Ve
1e-07
26.5078125 6.84616666666667 0
0 0

0101101
*
Ve
1e-07
26.5078125 5.25241666666666 0
0 0

0101101
*
Ve
1e-07
28.4296875 4.68991666666667 0
0 0

0101101
*
Ve
1e-07
28.4296875 2.53366666666667 0
0 0

0101101
*
Ve
1e-07
36.4424166666667 13.4124166666667 0
0 0

0101101
*
Ve
1e-07
45.6710833333333 14.5765833333333 0
0 0

0101101
*
Ve
1e-07
47.59725 14.5765833333333 0
0 0

0101101
*
Ve
1e-07
49.24825 15.9100833333333 0
0 0

0101101
*
Ve
1e-07
49.24825 19.1274166666667 0
0 0

0101101
*
Ve
1e-07
51.0776666666667 18.5471354166667 0
0 0

0101101
*
Ve
1e-07
19.59375 19.1274166666667 0
0 0

0101101
*
Ve
1e-07
55.0358333333333 13.7049947916667 0
0 0

0101101
*
Ve
1e-07
55.9609166666667 19.1871614583333 0
0 0

0101101
*
Ve
1e-07
55.9609166666667 12.8371614583333 0
0 0

0101101
*
Ve
1e-07
59.985625 19.9909166666667 0
0 0

0101101
*
Ve
1e-07
63.75 21.9596666666667 0
0 0

0101101
*
Ve
1e-07
62.4135416666667 19.9909166666667 0
0 0

0101101
*
Ve
1e-07
59.985625 17.17575 0
0 0

0101101
*
Ve
1e-07
59.985625 11.14325 0
0 0

0101101
*
Ve
1e-07
59.985625 14.5299166666667 0
0 0

0101101
*
Ve
1e-07
63.75 16.4986666666667 0
0 0

0101101
*
Ve
1e-07
62.4135416666667 14.5299166666667 0
0 0

0101101
*
Ve
1e-07
59.985625 8.81491666666667 0
0 0

0101101
*
Ve
1e-07
63.75 10.7836666666667 0
0 0

0101101
*
Ve
1e-07
62.4135416666667 8.81491666666667 0
0 0

0101101
*
Ve
1e-07
21.3173333333333 13.7049947916667 0
0 0

0101101
*
Ve
1e-07
21.3173333333333 18.5471354166667 0
0 0

0101101
*
Ve
1e-07
19.59375 12.5649166666667 0
0 0

0101101
*
Ve
1e-07
49.01825 25.1870833333333 0
0 0

0101101
*
Ve
1e-07
48.4044166666667 23.43025 0
0 0

0101101
*
Ve
1e-07
63.732125 26.4229270833334 0
0 0

0101101
*
Ve
1e-07
62.3139583333333 25.3222604166667 0
0 0

0101101
*
Ve
1e-07
54.4822916666667 25.68209375 0
0 0

0101101
*
Ve
1e-07
57.3397916666667 27.6717604166667 0
0 0

0101101
*
Ve
1e-07
60.0067916666667 27.6717604166667 0
0 0

0101101
*
Ve
1e-07
59.985625 25.3222604166667 0
0 0

0101101
*
Ve
1e-07
59.985625 21.4487604166667 0
0 0

0101101
*
Ve
1e-07
52.63775 21.4487604166667 0
0 0

0101101
*
Ve
1e-07
48.4044166666667 21.4487604166667 0
0 0

0101101
*
Ve
1e-07
46.35125 25.1870833333333 0
0 0

0101101
*
Ve
1e-07
45.7374166666667 23.43025 0
0 0

0101101
*
Ve
1e-07
45.7374166666667 19.8571302083333 0
0 0

0101101
*
Ve
1e-07
45.7374166666667 21.4487604166667 0
0 0

0101101
*
Ve
1e-07
43.62075 25.1870833333333 0
0 0

0101101
*
Ve
1e-07
43.0069166666667 23.43025 0
0 0

0101101
*
Ve
1e-07
43.0069166666667 21.4487604166667 0
0 0

0101101
*
Ve
1e-07
40.95375 25.1870833333333 0
0 0

0101101
*
Ve
1e-07
40.3399166666667 23.43025 0
0 0

0101101
*
Ve
1e-07
40.3399166666667 21.4487604166667 0
0 0

0101101
*
Ve
1e-07
38.1174166666667 25.1870833333333 0
0 0

0101101
*
Ve
1e-07
37.5035833333333 23.43025 0
0 0

0101101
*
Ve
1e-07
37.5035833333333 21.4487604166667 0
0 0

0101101
*
Ve
1e-07
35.36575 25.1870833333333 0
0 0

0101101
*
Ve
1e-07
34.7519166666667 23.43025 0
0 0

0101101
*
Ve
1e-07
46.1929166666667 15.2539166666667 0
0 0

0101101
*
Ve
1e-07
46.1929166666667 17.3070833333333 0
0 0

0101101
*
Ve
1e-07
42.80625 17.3070833333333 0
0 0

0101101
*
Ve
1e-07
46.1929166666667 19.1274166666667 0
0 0

0101101
*
Ve
1e-07
42.80625 15.2539166666667 0
0 0

0101101
*
Ve
1e-07
42.80625 19.1274166666667 0
0 0

0101101
*
Ve
1e-07
38.8370833333333 15.71259375 0
0 0

0101101
*
Ve
1e-07
38.8370833333333 17.7234270833333 0
0 0

0101101
*
Ve
1e-07
34.3709166666667 17.7234270833333 0
0 0

0101101
*
Ve
1e-07
38.8370833333333 19.58609375 0
0 0

0101101
*
Ve
1e-07
34.3709166666667 15.71259375 0
0 0

0101101
*
Ve
1e-07
34.3709166666667 19.58609375 0
0 0

0101101
*
Ve
1e-07
34.7519166666667 19.8571302083333 0
0 0

0101101
*
Ve
1e-07
34.7519166666667 21.4487604166667 0
0 0

0101101
*
Ve
1e-07
32.6140833333333 25.1870833333333 0
0 0

0101101
*
Ve
1e-07
32.00025 23.43025 0
0 0

0101101
*
Ve
1e-07
32.00025 21.4487604166667 0
0 0

0101101
*
Ve
1e-07
29.96825 25.1870833333333 0
0 0

0101101
*
Ve
1e-07
29.3544166666667 23.43025 0
0 0

0101101
*
Ve
1e-07
33.1564166666667 14.0745 0
0 0

0101101
*
Ve
1e-07
33.1564166666667 16.0853333333333 0
0 0

0101101
*
Ve
1e-07
26.2349166666667 16.0853333333333 0
0 0

0101101
*
Ve
1e-07
33.1564166666667 18.0961666666667 0
0 0

0101101
*
Ve
1e-07
27.9705833333333 14.0745 0
0 0

0101101
*
Ve
1e-07
27.9705833333333 18.0961666666667 0
0 0

0101101
*
Ve
1e-07
31.54775 14.0745 0
0 0

0101101
*
Ve
1e-07
31.54775 18.0961666666667 0
0 0

0101101
*
Ve
1e-07
29.7485833333333 14.0745 0
0 0

0101101
*
Ve
1e-07
29.7485833333333 21.4487604166667 0
0 0

0101101
*
Ve
1e-07
29.7485833333333 19.5819635416667 0
0 0

0101101
*
Ve
1e-07
29.7485833333333 18.0961666666667 0
0 0

0101101
*
Ve
1e-07
26.2349166666667 14.0745 0
0 0

0101101
*
Ve
1e-07
26.2349166666667 18.0961666666667 0
0 0

0101101
*
Ve
1e-07
29.3544166666667 21.4487604166667 0
0 0

0101101
*
Ve
1e-07
27.0895833333333 25.1870833333333 0
0 0

0101101
*
Ve
1e-07
26.47575 23.43025 0
0 0

0101101
*
Ve
1e-07
26.47575 21.4487604166667 0
0 0

0101101
*
Ve
1e-07
24.3590833333333 25.1870833333333 0
0 0

0101101
*
Ve
1e-07
23.74525 23.43025 0
0 0

0101101
*
Ve
1e-07
52.63775 7.74102083333336 0
0 0

0101101
*
Ve
1e-07
40.57275 20.3089947916667 0
0 0

0101101
*
Ve
1e-07
40.57275 18.128828125 0
0 0

0101101
*
Ve
1e-07
40.57275 15.8216614583334 0
0 0

0101101
*
Ve
1e-07
40.57275 13.556828125 0
0 0

0101101
*
Ve
1e-07
40.57275 12.6254947916667 0
0 0

0101101
*
Ve
1e-07
42.85875 12.6254947916667 0
0 0

0101101
*
Ve
1e-07
45.6104166666667 12.6254947916667 0
0 0

0101101
*
Ve
1e-07
47.49425 12.6254947916667 0
0 0

0101101
*
Ve
1e-07
50.6269166666667 12.6254947916667 0
0 0

0101101
*
Ve
1e-07
52.63775 9.81032812500001 0
0 0

0101101
*
Ve
1e-07
52.63775 12.6254947916667 0
0 0

0101101
*
Ve
1e-07
52.63775 16.287328125 0
0 0

0101101
*
Ve
1e-07
52.63775 13.683828125 0
0 0

0101101
*
Ve
1e-07
52.63775 20.4521354166667 0
0 0

0101101
*
Ve
1e-07
54.35225 18.52596875 0
0 0

0101101
*
Ve
1e-07
52.63775 18.52596875 0
0 0

0101101
*
Ve
1e-07
23.74525 7.76218750000002 0
0 0

0101101
*
Ve
1e-07
23.74525 10.508828125 0
0 0

0101101
*
Ve
1e-07
23.74525 16.4354947916667 0
0 0

0101101
*
Ve
1e-07
23.74525 13.7049947916667 0
0 0

0101101
*
Ve
1e-07
23.74525 20.5156354166667 0
0 0

0101101
*
Ve
1e-07
23.74525 18.5471354166667 0
0 0

0101101
*
Ve
1e-07
23.74525 21.4487604166667 0
0 0

0101101
*
Ve
1e-07
21.5015833333333 25.1870833333333 0
0 0

0101101
*
Ve
1e-07
20.88775 23.43025 0
0 0

0101101
*
Ve
1e-07
20.88775 21.4487604166667 0
0 0

0101101
*
Ve
1e-07
18.7075833333333 25.1870833333333 0
0 0

0101101
*
Ve
1e-07
18.09375 23.43025 0
0 0

0101101
*
Ve
1e-07
18.09375 21.4487604166667 0
0 0

0101101
*
Ve
1e-07
11.9359375 27.2825833333333 0
0 0

0101101
*
Ve
1e-07
11.9359375 24.00175 0
0 0

0101101
*
Ve
1e-07
11.9359375 21.5040833333333 0
0 0

0101101
*
Ve
1e-07
11.9359375 18.54075 0
0 0

0101101
*
Ve
1e-07
11.9359375 15.81025 0
0 0

0101101
*
Ve
1e-07
11.9359375 13.07975 0
0 0

0101101
*
Ve
1e-07
13.6927708333334 26.5205833333333 0
0 0

0101101
*
Ve
1e-07
15.666 26.5205833333333 0
0 0

0101101
*
Ve
1e-07
13.6927708333334 23.43025 0
0 0

0101101
*
Ve
1e-07
15.666 23.43025 0
0 0

0101101
*
Ve
1e-07
13.6927708333334 20.7209166666667 0
0 0

0101101
*
Ve
1e-07
15.666 20.7209166666667 0
0 0

0101101
*
Ve
1e-07
13.6927708333334 17.8634166666667 0
0 0

0101101
*
Ve
1e-07
15.666 17.8634166666667 0
0 0

0101101
*
Ve
1e-07
13.6927708333334 15.1540833333333 0
0 0

0101101
*
Ve
1e-07
15.666 15.1540833333333 0
0 0

0101101
*
Ve
1e-07
13.6927708333334 12.38125 0
0 0

0101101
*
Ve
1e-07
10.1156041666667 11.0371666666667 0
0 0

0101101
*
Ve
1e-07
14.0102708333334 10.508 0
0 0

0101101
*
Ve
1e-07
10.1367708333334 6.35933333333333 0
0 0

0101101
*
Ve
1e-07
13.9891041666667 6.74033333333333 0
0 0

0101101
*
Ve
1e-07
15.666 8.93108333333334 0
0 0

0101101
*
Ve
1e-07
15.666 12.38125 0
0 0

0101101
*
Ve
1e-07
19.3913333333333 6.84616666666667 0
0 0

0101101
*
Ve
1e-07
17.2958333333333 6.84616666666667 0
0 0

0101101
*
Ve
1e-07
15.666 6.84616666666667 0
0 0

0101101
*
Ve
1e-07
15.666 5.25241666666666 0
0 0

0101101
*
Ve
1e-07
17.587875 4.68991666666666 0
0 0

0101101
*
Ve
1e-07
17.587875 2.53366666666667 0
0 0

0101101
*
Ve
1e-07
23.74525 6.84616666666667 0
0 0

0101101
*
Ve
1e-07
22.0371666666667 6.84616666666667 0
0 0

0101101
*
Ve
1e-07
21 6.84616666666666 0
0 0

0101101
*
Ve
1e-07
21 5.25241666666666 0
0 0

0101101
*
Ve
1e-07
22.921875 4.68991666666666 0
0 0

0101101
*
Ve
1e-07
22.921875 2.53366666666666 0
0 0

0101101
*
Ve
1e-07
21.6878755173133 3.2268473292799 0
0 0

0101101
*
Ve
1e-07
18.8020701140542 4.69924450164184 0
0 0

0101101
*
Ve
1e-07
18.8020701140542 2.84584732927989 0
0 0

0101101
*
Ve
1e-07
18.8020701140542 0.992450156917954 0
0 0

0101101
*
Ve
1e-07
16.2057088506466 1.37345015691795 0
0 0

0101101
*
Ve
1e-07
16.2057088506466 3.2268473292799 0
0 0

0101101
*
Ve
1e-07
45.45 18.4582427618868 0
0 0

0101101
*
Ve
1e-07
45.45 17.6674448197547 0
0 0

0101101
*
Ve
1e-07
45.45 16.8766468776226 0
0 0

0101101
*
Ve
1e-07
45.45 16.0858489354905 0
0 0

0101101
*
Ve
1e-07
43.6013477615075 16.0858489354905 0
0 0

0101101
*
Ve
1e-07
43.6013477615076 16.8766468776226 0
0 0

0101101
*
Ve
1e-07
43.6013477615076 17.6674448197547 0
0 0

0101101
*
Ve
1e-07
43.6013477615075 18.4582427618868 0
0 0

0101101
*
Ve
1e-07
56.7 3.98148439784282 0
0 0

0101101
*
Ve
1e-07
56.7 3.19068645571069 0
0 0

0101101
*
Ve
1e-07
56.7 2.39988851357858 0
0 0

0101101
*
Ve
1e-07
56.7 1.60909057144647 0
0 0

0101101
*
Ve
1e-07
54.8513477615075 1.60909057144649 0
0 0

0101101
*
Ve
1e-07
54.8513477615076 2.39988851357859 0
0 0

0101101
*
Ve
1e-07
54.8513477615076 3.1906864557107 0
0 0

0101101
*
Ve
1e-07
54.8513477615076 3.98148439784282 0
0 0

0101101
*
Ve
1e-07
12.5545116795225 3.98148439784282 0
0 0

0101101
*
Ve
1e-07
12.5545116795225 3.1906864557107 0
0 0

0101101
*
Ve
1e-07
12.5545116795225 2.39988851357858 0
0 0

0101101
*
Ve
1e-07
12.5545116795225 1.60909057144647 0
0 0

0101101
*
Ve
1e-07
10.7058594410301 1.60909057144649 0
0 0

0101101
*
Ve
1e-07
10.7058594410301 2.3998885135786 0
0 0

0101101
*
Ve
1e-07
10.7058594410301 3.19068645571071 0
0 0

0101101
*
Ve
1e-07
10.7058594410301 3.98148439784283 0
0 0

0101101
*
Ve
1e-07
10.0323535539641 13.0036871433573 0
0 0

0101101
*
Ve
1e-07
11.5270513872216 12.0437379724289 0
0 0

0101101
*
Ve
1e-07
12.2795256969816 12.0369128691741 0
0 0

0101101
*
Ve
1e-07
10.0328129402517 15.73022810866 0
0 0

0101101
*
Ve
1e-07
11.5275107735092 14.7702789377315 0
0 0

0101101
*
Ve
1e-07
12.2799850832692 14.7634538344768 0
0 0

0101101
*
Ve
1e-07
10.0328000641996 18.4567690739626 0
0 0

0101101
*
Ve
1e-07
11.5274978974571 17.4968199030342 0
0 0

0101101
*
Ve
1e-07
12.2799722072172 17.4899947997794 0
0 0

0101101
*
Ve
1e-07
10.0331486510828 21.2035379924159 0
0 0

0101101
*
Ve
1e-07
11.5278464843403 20.2435888214875 0
0 0

0101101
*
Ve
1e-07
12.2803207941004 20.2367637182328 0
0 0

0101101
*
Ve
1e-07
10.033249887053 23.9503069108693 0
0 0

0101101
*
Ve
1e-07
11.5279477203105 22.9903577399409 0
0 0

0101101
*
Ve
1e-07
12.2804220300705 22.9835326366861 0
0 0

0101101
*
Ve
1e-07
10.033497237966 27.0211218593723 0
0 0

0101101
*
Ve
1e-07
11.5281950712235 26.0611726884439 0
0 0

0101101
*
Ve
1e-07
12.2806693809836 26.0543475851891 0
0 0

0101101
*
Ve
1e-07
19.5892066226444 25.4956008720219 0
0 0

0101101
*
Ve
1e-07
19.5823815193896 24.7431265622619 0
0 0

0101101
*
Ve
1e-07
22.4309490971219 25.4956008720219 0
0 0

0101101
*
Ve
1e-07
22.4241239938671 24.7431265622619 0
0 0

0101101
*
Ve
1e-07
25.1742963422646 25.4920805910571 0
0 0

0101101
*
Ve
1e-07
25.1674712390098 24.739606281297 0
0 0

0101101
*
Ve
1e-07
27.9230701335488 25.4920805910571 0
0 0

0101101
*
Ve
1e-07
27.916245030294 24.739606281297 0
0 0

0101101
*
Ve
1e-07
30.6650188215782 24.739606281297 0
0 0

0101101
*
Ve
1e-07
30.671843924833 25.4920805910571 0
0 0

0101101
*
Ve
1e-07
33.3964332649333 24.739606281297 0
0 0

0101101
*
Ve
1e-07
33.4032583681881 25.4920805910571 0
0 0

0101101
*
Ve
1e-07
36.1335145432332 24.739606281297 0
0 0

0101101
*
Ve
1e-07
36.1403396464879 25.4920805910571 0
0 0

0101101
*
Ve
1e-07
38.870595821533 24.739606281297 0
0 0

0101101
*
Ve
1e-07
38.8774209247878 25.4920805910571 0
0 0

0101101
*
Ve
1e-07
41.5963434299434 24.739606281297 0
0 0

0101101
*
Ve
1e-07
41.6031685331982 25.4920805910571 0
0 0

0101101
*
Ve
1e-07
44.3009243716871 24.7184396146304 0
0 0

0101101
*
Ve
1e-07
44.3077494749419 25.4709139243904 0
0 0

0101101
*
Ve
1e-07
47.0648391515983 24.739606281297 0
0 0

0101101
*
Ve
1e-07
47.0716642548531 25.4920805910571 0
0 0

0101101
*
Ve
1e-07
49.8075872648429 24.6972729479637 0
0 0

0101101
*
Ve
1e-07
49.8144123680976 25.4497472577237 0
0 0

0101101
*
Ve
1e-07
18.809363490673 27.3567206279076 0
0 0

0101101
*
Ve
1e-07
21.6511059651504 27.3567206279076 0
0 0

0101101
*
Ve
1e-07
24.4928484396279 27.3567206279076 0
0 0

0101101
*
Ve
1e-07
27.2416222309121 27.3567206279076 0
0 0

0101101
*
Ve
1e-07
29.9903960221963 27.3567206279076 0
0 0

0101101
*
Ve
1e-07
32.7218104655514 27.3567206279076 0
0 0

0101101
*
Ve
1e-07
35.4588917438512 27.3567206279076 0
0 0

0101101
*
Ve
1e-07
38.1959730221511 27.3567206279076 0
0 0

0101101
*
Ve
1e-07
40.9217206305615 27.3567206279076 0
0 0

0101101
*
Ve
1e-07
43.6474682389719 27.3567206279076 0
0 0

0101101
*
Ve
1e-07
46.3902163522164 27.3567206279076 0
0 0

0101101
*
Ve
1e-07
49.132964465461 27.3567206279076 0
0 0

0101101
*
Ve
1e-07
63.6111363848298 13.1041040807558 0
0 0

0101101
*
Ve
1e-07
62.8475539080225 13.0997060135274 0
0 0

0101101
*
Ve
1e-07
65.549221213244 12.191627132662 0
0 0

0101101
*
Ve
1e-07
65.3015790127965 9.9203793281937 0
0 0

0101101
*
Ve
1e-07
65.3015790127965 15.492726442244 0
0 0

0101101
*
Ve
1e-07
65.3015790127965 20.9585391211241 0
0 0

0101101
*
Ve
1e-07
63.6311021022772 28.0959246324222 0
0 0

0101101
*
Ve
1e-07
62.8675196254699 28.0915265651938 0
0 0

0101101
*
Ve
1e-07
65.5691869306914 27.1834476843284 0
0 0

0101101
*
Ve
1e-07
63.6210246222491 24.0451257078031 0
0 0

0101101
*
Ve
1e-07
62.8574421454419 24.0407276405747 0
0 0

0101101
*
Ve
1e-07
65.5591094506633 23.1326487597093 0
0 0

0101101
*
Ve
1e-07
63.6276264635391 18.5751906922543 0
0 0

0101101
*
Ve
1e-07
62.8640439867319 18.5707926250259 0
0 0

0101101
*
Ve
1e-07
65.5657112919533 17.6627137441605 0
0 0

0101101
*
Ve
1e-07
36.9453719793637 19.1996934058337 0
0 0

0101101
*
Ve
1e-07
36.1249905596545 19.1980773947234 0
0 0

0101101
*
Ve
1e-07
34.9875 18.1927516339307 0
0 0

0101101
*
Ve
1e-07
34.9914518063377 17.36682410936 0
0 0

0101101
*
Ve
1e-07
36.0868915156753 16.2687092536199 0
0 0

0101101
*
Ve
1e-07
36.8511058021309 16.2768532780456 0
0 0

0101101
*
Ve
1e-07
37.9308285166411 17.286991076655 0
0 0

0101101
*
Ve
1e-07
37.9426839356541 18.1405812455894 0
0 0

0101101
*
Ve
1e-07
51.9078436112707 26.8311771121398 0
0 0

0101101
*
Ve
1e-07
51.726809346776 23.7425050071032 0
0 0

0101101
*
Ve
1e-07
52.7549794690343 23.7425050071032 0
0 0

0101101
*
Ve
1e-07
54.0017770789955 23.7425050071032 0
0 0

0101101
*
Ve
1e-07
55.0136707914277 23.7425050071032 0
0 0

0101101
*
Ve
1e-07
56.1580743947736 23.7425050071032 0
0 0

0101101
*
Ve
1e-07
57.1278058691879 23.7425050071032 0
0 0

0101101
*
Ve
1e-07
32.4285864822061 15.2001072083123 0
0 0

0101101
*
Ve
1e-07
31.6569427253853 15.2001072083123 0
0 0

0101101
*
Ve
1e-07
30.8852989685645 15.2001072083123 0
0 0

0101101
*
Ve
1e-07
30.1136552117437 15.2001072083123 0
0 0

0101101
*
Ve
1e-07
29.3420114549229 15.2001072083123 0
0 0

0101101
*
Ve
1e-07
28.5703676981021 15.2001072083123 0
0 0

0101101
*
Ve
1e-07
27.7987239412813 15.2001072083123 0
0 0

0101101
*
Ve
1e-07
27.0270801844605 15.2001072083123 0
0 0

0101101
*
Ve
1e-07
30.1136552117437 17.0461666666666 0
0 0

0101101
*
Ve
1e-07
30.8852989685646 17.0461666666666 0
0 0

0101101
*
Ve
1e-07
31.6569427253854 17.0461666666666 0
0 0

0101101
*
Ve
1e-07
32.4285864822062 17.0461666666666 0
0 0

0101101
*
Ve
1e-07
27.0270801844605 17.0461666666666 0
0 0

0101101
*
Ve
1e-07
27.7987239412813 17.0461666666666 0
0 0

0101101
*
Ve
1e-07
28.5703676981021 17.0461666666666 0
0 0

0101101
*
Ve
1e-07
29.3420114549229 17.0461666666666 0
0 0

0101101
*
Co

1100000
+406 0 +405 0 +404 0 +403 0 +402 0 +401 0 +400 0 +399 0 +398 0 +397 0 
+396 0 +395 0 +394 0 +393 0 +392 0 +391 0 +390 0 +389 0 +388 0 +387 0 
+386 0 +385 0 +384 0 +383 0 +382 0 +381 0 +380 0 +379 0 +378 0 +377 0 
+376 0 +375 0 +374 0 +373 0 +372 0 +371 0 +370 0 +369 0 +368 0 +367 0 
+366 0 +365 0 +364 0 +363 0 +362 0 +361 0 +360 0 +359 0 +358 0 +357 0 
+356 0 +355 0 +354 0 +353 0 +352 0 +351 0 +350 0 +349 0 +348 0 +347 0 
+346 0 +345 0 +344 0 +343 0 +342 0 +341 0 +340 0 +339 0 +338 0 +337 0 
+336 0 +335 0 +334 0 +333 0 +332 0 +331 0 +330 0 +329 0 +328 0 +327 0 
+326 0 +325 0 +324 0 +323 0 +322 0 +321 0 +320 0 +319 0 +318 0 +317 0 
+316 0 +315 0 +314 0 +313 0 +312 0 +311 0 +310 0 +309 0 +308 0 +307 0 
+306 0 +305 0 +304 0 +303 0 +302 0 +301 0 +300 0 +299 0 +298 0 +297 0 
+296 0 +295 0 +294 0 +293 0 +292 0 +291 0 +290 0 +289 0 +288 0 +287 0 
+286 0 +285 0 +284 0 +283 0 +282 0 +281 0 +280 0 +279 0 +278 0 +277 0 
+276 0 +275 0 +274 0 +273 0 +272 0 +271 0 +270 0 +269 0 +268 0 +267 0 
+266 0 +265 0 +264 0 +263 0 +262 0 +261 0 +260 0 +259 0 +258 0 +257 0 
+256 0 +255 0 +254 0 +253 0 +252 0 +251 0 +250 0 +249 0 +248 0 +247 0 
+246 0 +245 0 +244 0 +243 0 +242 0 +241 0 +240 0 +239 0 +238 0 +237 0 
+236 0 +235 0 +234 0 +233 0 +232 0 +231 0 +230 0 +229 0 +228 0 +227 0 
+226 0 +225 0 +224 0 +223 0 +222 0 +221 0 +220 0 +219 0 +218 0 +217 0 
+216 0 +215 0 +214 0 +213 0 +212 0 +211 0 +210 0 +209 0 +208 0 +207 0 
+206 0 +205 0 +204 0 +203 0 +202 0 +201 0 +200 0 +199 0 +198 0 +197 0 
+196 0 +195 0 +194 0 +193 0 +192 0 +191 0 +190 0 +189 0 +188 0 +187 0 
+186 0 +185 0 +184 0 +183 0 +182 0 +181 0 +180 0 +179 0 +178 0 +177 0 
+176 0 +175 0 +174 0 +173 0 +172 0 +171 0 +170 0 +169 0 +168 0 +167 0 
+166 0 +165 0 +164 0 +163 0 +162 0 +161 0 +160 0 +159 0 +158 0 +157 0 
+156 0 +155 0 +154 0 +153 0 +152 0 +151 0 +150 0 +149 0 +148 0 +147 0 
+146 0 +145 0 +144 0 +143 0 +142 0 +141 0 +140 0 +139 0 +138 0 +137 0 
+136 0 +135 0 +134 0 +133 0 +132 0 +131 0 +130 0 +129 0 +128 0 +127 0 
+126 0 +125 0 +124 0 +123 0 +122 0 +121 0 +120 0 +119 0 +118 0 +117 0 
+116 0 +115 0 +114 0 +113 0 +112 0 +111 0 +110 0 +109 0 +108 0 +107 0 
+106 0 +105 0 +104 0 +103 0 +102 0 +101 0 +100 0 +99 0 +98 0 +97 0 
+96 0 +95 0 +94 0 +93 0 +92 0 +91 0 +90 0 +89 0 +88 0 +87 0 
+86 0 +85 0 +84 0 +83 0 +82 0 +81 0 +80 0 +79 0 +78 0 +77 0 
+76 0 +75 0 +74 0 +73 0 +72 0 +71 0 +70 0 +69 0 +68 0 +67 0 
+66 0 +65 0 +64 0 +63 0 +62 0 +61 0 +60 0 +59 0 +58 0 +57 0 
+56 0 +55 0 +54 0 +53 0 +52 0 +51 0 +50 0 +49 0 +48 0 +47 0 
+46 0 +45 0 +44 0 +43 0 +42 0 +41 0 +40 0 +39 0 +38 0 +37 0 
+36 0 +35 0 +34 0 +33 0 +32 0 +31 0 +30 0 +29 0 +28 0 +27 0 
+26 0 +25 0 +24 0 +23 0 +22 0 +21 0 +20 0 +19 0 +18 0 +17 0 
+16 0 +15 0 +14 0 +13 0 +12 0 +11 0 +10 0 +9 0 +8 0 +7 0 
+6 0 +5 0 +4 0 +3 0 +2 0 *

+1 0 