
CASCADE Topology V3, (c) Open Cascade
Locations 0
Curve2ds 0
Curves 0
Polygon3D 0
PolygonOnTriangulations 0
Surfaces 0
Triangulations 0

TShapes 40
Ve
1e-07
65.1024955394271 7.36689885664583 0
0 0

0101101
*
Ve
1e-07
64.4091141197179 7.38644951220218 0
0 0

0101101
*
Ve
1e-07
63.3252729064409 6.33372070768457 0
0 0

0101101
*
Ve
1e-07
63.3292247127786 5.50779318311384 0
0 0

0101101
*
Ve
1e-07
64.4371976863447 4.47824803776536 0
0 0

0101101
*
Ve
1e-07
65.2014119728003 4.48639206219105 0
0 0

0101101
*
Ve
1e-07
66.268601423082 5.49396186093203 0
0 0

0101101
*
Ve
1e-07
66.280456842095 6.34755202986638 0
0 0

0101101
*
Ve
1e-07
11.6766306651592 10.1903333333333 0
0 0

0101101
*
Ve
1e-07
10.85624924545 10.188717322223 0
0 0

0101101
*
Ve
1e-07
9.77240803217295 9.13598851770539 0
0 0

0101101
*
Ve
1e-07
9.77635983851062 8.31006099313466 0
0 0

0101101
*
Ve
1e-07
10.8843328120768 7.28051584778618 0
0 0

0101101
*
Ve
1e-07
11.6485470985324 7.28865987221188 0
0 0

0101101
*
Ve
1e-07
12.7157365488141 8.29622967095285 0
0 0

0101101
*
Ve
1e-07
12.7275919678271 9.1498198398872 0
0 0

0101101
*
Ve
1e-07
60.9961622060938 3.47223218997917 0
0 0

0101101
*
Ve
1e-07
60.1757807863846 3.47061617886884 0
0 0

0101101
*
Ve
1e-07
59.0919395731075 2.41788737435123 0
0 0

0101101
*
Ve
1e-07
59.0958913794452 1.5919598497805 0
0 0

0101101
*
Ve
1e-07
60.2038643530114 0.562414704432022 0
0 0

0101101
*
Ve
1e-07
60.968078639467 0.570558728857719 0
0 0

0101101
*
Ve
1e-07
62.0352680897487 1.5781285275987 0
0 0

0101101
*
Ve
1e-07
62.0471235087617 2.43171869653305 0
0 0

0101101
*
Ve
1e-07
65.2294955394271 3.47223218997917 0
0 0

0101101
*
Ve
1e-07
64.4091141197179 3.47061617886884 0
0 0

0101101
*
Ve
1e-07
63.3252729064409 2.41788737435123 0
0 0

0101101
*
Ve
1e-07
63.3292247127786 1.5919598497805 0
0 0

0101101
*
Ve
1e-07
64.4371976863447 0.562414704432022 0
0 0

0101101
*
Ve
1e-07
65.2014119728003 0.570558728857719 0
0 0

0101101
*
Ve
1e-07
66.268601423082 1.5781285275987 0
0 0

0101101
*
Ve
1e-07
66.280456842095 2.43171869653305 0
0 0

0101101
*
Ve
1e-07
51.9078436112707 26.8311771121398 0
0 0

0101101
*
Ve
1e-07
51.726809346776 23.7425050071032 0
0 0

0101101
*
Ve
1e-07
52.7549794690343 23.7425050071032 0
0 0

0101101
*
Ve
1e-07
54.0017770789955 23.7425050071032 0
0 0

0101101
*
Ve
1e-07
55.0136707914277 23.7425050071032 0
0 0

0101101
*
Ve
1e-07
56.1580743947736 23.7425050071032 0
0 0

0101101
*
Ve
1e-07
57.1278058691879 23.7425050071032 0
0 0

0101101
*
Co

1100000
+40 0 +39 0 +38 0 +37 0 +36 0 +35 0 +34 0 +33 0 +32 0 +31 0 
+30 0 +29 0 +28 0 +27 0 +26 0 +25 0 +24 0 +23 0 +22 0 +21 0 
+20 0 +19 0 +18 0 +17 0 +16 0 +15 0 +14 0 +13 0 +12 0 +11 0 
+10 0 +9 0 +8 0 +7 0 +6 0 +5 0 +4 0 +3 0 +2 0 *

+1 0 