
CASCADE Topology V3, (c) Open Cascade
Locations 0
Curve2ds 0
Curves 336
1 6.7367841460533597 28.553097978840949 0 1 0 0 
1 12.424834452861569 28.553097978840949 0 7.715284176678305e-13 -1 0 
1 12.424834452863561 25.97212238368795 0 1 -2.8421709430978147e-13 0 
1 12.524834452861541 25.972122383687921 0 0 1 0 
1 12.524834452861541 28.553097978840949 0 1 0 0 
1 15.10619833434637 28.553097978840949 0 0 -1 0 
1 15.10619833434637 22.411468081834961 0 1 0 0 
1 16.695264401290181 22.411468081834961 0 0 1 0 
1 16.695264401290181 22.514021228271709 0 -1 0 0 
1 15.205834974514501 22.514021228271709 0 0 1 0 
1 15.205834974514501 28.555651125277699 0 1 0 0 
1 17.94757744899195 28.555651125277699 0 0 -1 0 
1 17.94757744899195 22.514021228271709 0 -1 0 0 
1 17.76226440129015 22.514021228271709 0 1.0392797692438628e-13 -1 0 
1 17.76226440129016 22.411468081834961 0 1 0 0 
1 18.246584081180501 22.411468081834961 0 3.8106924872274971e-13 1 0 
1 18.24658408118054 22.514021228271709 0 -1 0 0 
1 18.047577448991952 22.514021228271709 0 0 1 0 
1 18.047577448991952 28.555651125277699 0 1 0 0 
1 20.789319923469399 28.555651125277699 0 0 -1 0 
1 20.789319923469399 22.514021228271709 0 -1 0 0 
1 19.313584081180512 22.514021228271709 0 4.8499722564713601e-13 -1 0 
1 19.313584081180561 22.411468081834961 0 1 0 0 
1 20.889683283301292 22.411468081834961 0 0 1 0 
1 20.889683283301292 28.553097978840949 0 1 0 0 
1 31.689796914433611 28.553097978840949 0 0 -1 0 
1 31.689796914433611 22.411468081834961 0 1 0 0 
1 33.21290870413565 22.411468081834961 0 0 1 0 
1 33.21290870413565 22.511468081834959 0 -1 0 0 
1 31.789796914433591 22.511468081834959 0 0 1 0 
1 31.789796914433591 28.553097978840949 0 1 0 0 
1 34.426878192733433 28.553097978840949 0 0 -1 0 
1 34.426878192733433 22.511468081834959 0 -1 0 0 
1 34.279908704135629 22.511468081834959 0 2.8421709430404613e-13 -1 0 
1 34.279908704135657 22.411468081834961 0 1 0 0 
1 34.685351745547401 22.411468081834961 0 0 1 0 
1 34.685351745547401 22.511468081834959 0 -1 0 0 
1 34.526878192733427 22.511468081834959 0 0 1 0 
1 34.526878192733427 28.553097978840949 0 1 0 0 
1 37.163959471033273 28.553097978840949 0 0 -1 0 
1 37.163959471033273 22.511468081834959 0 -1 0 0 
1 35.752351745547386 22.511468081834959 0 0 -1 0 
1 35.752351745547386 22.411468081834961 0 1 0 0 
1 37.263959471033267 22.411468081834961 0 0 1 0 
1 37.263959471033267 28.553097978840938 0 1 7.8753732239278972e-16 0 
1 50.797465418432267 28.553097978840949 0 0 -1 0 
1 50.797465418432267 22.411468081834961 0 1 0 0 
1 52.27677822207562 22.411468081834961 0 0 1 0 
1 52.27677822207562 22.511468081834959 0 -1 0 0 
1 50.896947275602876 22.511468081834959 0 0 1 0 
1 50.896947275602876 28.553097978840949 0 1 0 0 
1 53.539695388847477 28.553097978840949 0 -2.3521557853526219e-15 -1 0 
1 53.539695388847463 22.511468081834959 0 -1 0 0 
1 53.34377822207562 22.511468081834959 0 2.131628207280346e-13 -1 0 
1 53.343778222075642 22.411468081834961 0 1 0 0 
1 53.832446304958509 22.411468081834961 0 0 1 0 
1 53.832446304958509 22.51146808183497 0 -1 -5.5294891725759107e-14 0 
1 53.639695388847457 22.511468081834959 0 0 1 0 
1 53.639695388847457 28.553097978840949 0 1 0 0 
1 56.282443502092008 28.553097978840949 0 0 -1 0 
1 56.282443502092008 22.511468081834959 0 -1 0 0 
1 54.899446304958524 22.511468081834959 0 -4.263256414560692e-13 -1 0 
1 54.899446304958481 22.411468081834961 0 1 0 0 
1 56.382961644921387 22.411468081834961 0 0 1 0 
1 56.382961644921387 28.553097978840949 0 1 0 0 
1 58.956213981207618 28.553097978840949 0 -8.2678087999667345e-15 -1 0 
1 58.956213981207597 25.974871681095799 0 1 -7.1054273575988814e-14 0 
1 59.056213981207627 25.974871681095792 0 0 1 0 
1 59.056213981207627 28.553097978840949 0 1 0 0 
1 64.605075687303909 28.553097978840949 0 0 -1 0 
1 64.605075687303909 24.618119848906439 0 -1 0 0 
1 59.056213981207627 24.618119848906439 0 0 1 0 
1 59.056213981207627 24.907871681095781 0 -1 0 0 
1 58.956213981207618 24.907871681095781 0 0 -1 0 
1 58.956213981207618 20.481362242166291 0 1 7.105427357600396e-14 0 
1 59.056213981207627 20.481362242166298 0 0 1 0 
1 59.056213981207627 24.518119848906441 0 1 0 0 
1 64.605075687303909 24.518119848906441 0 2.641099148426372e-15 -1 0 
1 64.605075687303923 19.137460541334001 0 -1 0 0 
1 59.056213981207627 19.137460541334001 0 0 1 0 
1 59.056213981207627 19.414362242166309 0 -1 -1.776356839400099e-13 0 
1 58.956213981207618 19.414362242166291 0 0 -1 0 
1 58.956213981207618 15.04430862817695 0 1 0 0 
1 59.056213981207627 15.04430862817695 0 0 1 0 
1 59.056213981207627 19.037460541333999 0 1 0 0 
1 64.605075687303909 19.037460541333999 0 2.6484067867549759e-15 -1 0 
1 64.605075687303923 13.671647862453881 0 -1 0 0 
1 59.056213981207627 13.671647862453881 0 0 1 0 
1 59.056213981207627 13.977308628176949 0 -1 0 0 
1 58.956213981207618 13.977308628176949 0 0 -1 0 
1 58.956213981207618 9.4550273696877802 0 1 -3.552713678800198e-14 0 
1 59.056213981207627 9.4550273696877767 0 0 1 0 
1 59.056213981207627 13.57164786245389 0 1 0 0 
1 64.605075687303909 13.57164786245389 0 0 -1 0 
1 64.605075687303909 8.0993007484035466 0 -1 0 0 
1 59.056213981207627 8.0993007484035466 0 0 1 0 
1 59.056213981207627 8.388027369687773 0 -1 0 0 
1 58.956213981207661 8.388027369687773 0 -8.7231925352421904e-14 -1 0 
1 58.956213981207618 7.899300748403558 0 1 0 0 
1 64.605075687303909 7.899300748403558 0 0 -1 0 
1 64.605075687303909 0.021000000000000799 0 -1 0 0 
1 49.441628285946337 0.021000000000000799 0 -2.4425046988585527e-15 1 0 
1 49.441628285946322 5.8391483629665544 0 -0.99999999974700104 2.2494399445325956e-05 0 
1 47.620191642013751 5.8391893350899977 0 0 -1 0 
1 47.620191642013751 5.7390963470325786 0 1 0 0 
1 49.341628285946321 5.7390963470325786 0 0 -1 0 
1 49.341628285946321 0.021000000000000799 0 -1 0 0 
1 43.961005537509678 0.021000000000000799 0 0 1 0 
1 43.961005537509678 5.7390963470325786 0 1 0 0 
1 45.643024975347053 5.7390963470325786 0 2.8392332038469858e-13 1 0 
1 45.643024975347082 5.8391998164900869 0 -0.9999999999215422 1.2526596459928765e-05 0 
1 42.181902226910452 5.8392431725780582 0 0 -1 0 
1 42.181902226910452 5.7390963470325786 0 1 0 0 
1 43.861005537509683 5.7390963470325786 0 0 -1 0 
1 43.861005537509683 0.021000000000000799 0 -1 0 0 
1 38.480382789073047 0.021000000000000799 0 0 1 0 
1 38.480382789073047 5.7390963470325786 0 1 0 0 
1 40.204735560243783 5.7390963470325786 0 0 1 0 
1 40.204735560243783 5.8392536539781554 0 -0.99999999992516786 1.2233726195071771e-05 0 
1 36.668126417750933 5.8392969198860669 0 0 -1 0 
1 36.668126417750933 5.7390963470325786 0 1 0 0 
1 38.380382789073067 5.7390963470325786 0 -1.2426211323438758e-15 -1 0 
1 38.38038278907306 0.021000000000000799 0 -1 0 0 
1 33.00894031324686 0.021000000000000799 0 1.2426211323438758e-15 1 0 
1 33.008940313246868 5.7390963470325786 0 1 0 0 
1 34.690959751084257 5.7390963470325786 0 0 1 0 
1 34.690959751084257 5.8393074012861703 0 -0.9999999999262017 1.2148940564775138e-05 0 
1 31.114823396703851 5.8393508475541944 0 0 -1 0 
1 31.114823396703851 5.7390963470325786 0 1 0 0 
1 32.908940313246887 5.7390963470325786 0 0 -1 0 
1 32.908940313246887 0.021000000000000799 0 -1 0 0 
1 27.51913729219978 0.021000000000000799 0 5.591795095547441e-15 1 0 
1 27.519137292199812 5.7390963470325786 0 1 0 0 
1 29.243490063370501 5.7390963470325786 0 3.8976569603655415e-13 1 0 
1 29.24349006337054 5.8393613289542827 0 -0.99999999992598221 1.2166990416640614e-05 0 
1 25.69489452682145 5.8394045046821716 0 0 -1 0 
1 25.69489452682145 5.7390963470325786 0 1 0 0 
1 27.419137292199789 5.7390963470325786 0 0 -1 0 
1 27.419137292199789 0.021000000000000799 0 -1 0 0 
1 22.05687508898405 0.021000000000000799 0 1.8639316985158138e-15 1 0 
1 22.056875088984061 5.7390963470325786 0 1 0 0 
1 23.738894526821419 5.7390963470325786 0 2.1248575812765232e-13 1 0 
1 23.73889452682144 5.8394149860822466 0 -0.99999999992249311 1.2450455090564418e-05 0 
1 20.256605111718109 5.8394583421702251 0 2.1239396490242879e-13 -1 0 
1 20.25660511171813 5.7390963470325786 0 1 0 0 
1 21.956875088984042 5.7390963470325786 0 0 -1 0 
1 21.956875088984042 0.021000000000000799 0 -1 0 0 
1 16.57625234054742 0.021000000000000799 0 0 1 0 
1 16.57625234054742 5.7390963470325786 0 1 0 0 
1 18.300605111718149 5.7390963470325786 0 1.0618589282685744e-13 1 0 
1 18.300605111718159 5.8394688235703072 0 -0.99999999999829758 1.8451962120449414e-06 0 
1 16.476252340547429 5.83947218985913 0 0 -1 0 
1 16.476252340547429 0.021000000000000799 0 -1 0 0 
1 6.7349243126961023 0.021000000000000799 0 0.00014778769232425888 0.99999998907939891 0 
1 6.7360886285958603 7.899300748403558 0 1 0 0 
1 12.524834452861541 7.899300748403558 0 0 1 0 
1 12.524834452861541 8.1611467023703099 0 -1 -1.7763568394004145e-13 0 
1 12.42483445286155 8.1611467023702922 0 0 -1 0 
1 12.42483445286155 7.9993007484035594 0 -1 0 0 
1 6.7353931111383867 7.9993007484035594 0 0.00017326797062152668 0.99999998498910503 0 
1 6.735848206568158 10.62584171444267 0 1 -1.2945360564490442e-10 0 
1 12.42483445286155 10.62584171370621 0 0 -1 0 
1 12.42483445286155 9.2281467023702994 0 1 -1.7763568394004145e-13 0 
1 12.524834452861541 9.2281467023702817 0 0 1 0 
1 12.524834452861541 10.88768766767296 0 -1 -1.953992523340456e-13 0 
1 12.42483445286155 10.887687667672941 0 0 -1 0 
1 12.42483445286155 10.72584171370621 0 -1 0 0 
1 6.7353931111383867 10.72584171370621 0 0.00017326797062152668 0.99999998498910503 0 
1 6.735848206568158 13.35238267974532 0 1 -1.2945547911419667e-10 0 
1 12.42483445286155 13.35238267900885 0 0 -1 0 
1 12.42483445286155 11.95468766767295 0 1 1.0658141036402487e-13 0 
1 12.524834452861541 11.95468766767296 0 0 1 0 
1 12.524834452861541 13.61422863297558 0 -1 1.953992523340456e-13 0 
1 12.42483445286155 13.6142286329756 0 0 -1 0 
1 12.42483445286155 13.45238267900886 0 -1 1.8734707052846537e-15 0 
1 6.735852497426003 13.452382679008871 0 0.00017490162411907756 0.99999998470471074 0 
1 6.7363118837136762 16.078923644311519 0 1 0 0 
1 12.42483445286155 16.078923644311519 0 0 -1 0 
1 12.42483445286155 14.6812286329756 0 1 1.0658141036402487e-13 0 
1 12.524834452861541 14.681228632975611 0 0 1 0 
1 12.524834452861541 16.340769598278261 0 -1 0 0 
1 12.42483445286155 16.340769598278261 0 0 -1 0 
1 12.42483445286155 16.17892364431151 0 -1 0 0 
1 6.7358396213739642 16.17892364431151 0 0.00013048186955031709 0.99999999148724084 0 
1 6.7361849767337061 18.825692563182571 0 1 -7.3428730762524753e-11 0 
1 12.42483445286155 18.825692562764861 0 0 -1 0 
1 12.42483445286155 17.40776959827825 0 1 1.0658141036402487e-13 0 
1 12.524834452861541 17.407769598278261 0 0 1 0 
1 12.524834452861541 19.087538516731591 0 -1 7.1054273576016582e-14 0 
1 12.42483445286155 19.087538516731598 0 0 -1 0 
1 12.42483445286155 18.925692562764858 0 -1 0 0 
1 6.73618820825717 18.925692562764858 0 0.00013170280099778097 0.99999999132718609 0 
1 6.7365367951403474 21.57246148121822 0 1 -1.873696082330417e-15 0 
1 12.42483445286155 21.572461481218209 0 0 -1 0 
1 12.42483445286155 20.154538516731591 0 1 0 0 
1 12.524834452861541 20.154538516731591 0 0 1 0 
1 12.524834452861541 21.83430743518495 0 -1 -1.0658141036402487e-13 0 
1 12.42483445286155 21.83430743518494 0 0 -1 0 
1 12.42483445286155 21.67246148121821 0 -1 0 0 
1 6.7362894442273316 21.67246148121821 0 8.2571234466724769e-05 0.99999999659099548 0 
1 6.7365347480858517 24.643276429888822 0 1 -2.9467607682267168e-11 0 
1 12.42483445286155 24.643276429721201 0 0 -1 0 
1 12.42483445286155 22.90130743518495 0 1 -3.907985046680912e-13 0 
1 12.524834452861541 22.901307435184911 0 0 1 0 
1 12.524834452861541 24.905122383687939 0 -1 0 0 
1 12.424834452864379 24.905122383687939 0 6.8048734826851867e-13 -1 0 
1 12.42483445286449 24.743276429721199 0 -1 0 0 
1 6.7365367951432749 24.743276429721199 0 6.4924539476319943e-05 0.99999999789240201 0 
1 19.59899643153252 14.23729162381353 0 0 1 0 
1 19.59899643153252 17.584049774991431 0 -1 0 0 
1 15.245005579521401 17.584049774991431 0 0 -1 0 
1 15.245005579521401 8.1005773216219374 0 1 -3.263868758161946e-15 0 
1 19.59899643153252 8.1005773216219232 0 0 1 0 
1 19.59899643153252 13.170291623813529 0 1 0 0 
1 19.798996431532512 13.170291623813529 0 0 -1 0 
1 19.798996431532512 7.9005773216219168 0 -1 0 0 
1 15.045005579521399 7.9005773216219168 0 0 1 0 
1 15.045005579521399 20.35254025368236 0 1 0 0 
1 19.798996431532512 20.35254025368236 0 0 -1 0 
1 19.798996431532512 19.06436481510281 0 -1 -2.1316282072804975e-13 0 
1 19.698996431532521 19.064364815102788 0 0 1 0 
1 19.698996431532521 20.252540253682351 0 -1 0 0 
1 15.145005579521399 20.252540253682351 0 0 -1 0 
1 15.145005579521399 17.78404977499142 0 1 0 0 
1 19.698996431532521 17.78404977499142 0 0 1 0 
1 19.698996431532521 17.997364815102799 0 1 0 0 
1 19.798996431532512 17.997364815102799 0 0 -1 0 
1 19.798996431532512 14.23729162381353 0 -1 0 0 
1 51.82804087623164 14.23729162381353 0 0 1 0 
1 51.82804087623164 17.584049774991431 0 1 0 0 
1 56.182031728242762 17.584049774991431 0 0 -1 0 
1 56.182031728242762 8.1005773216219374 0 -1 -3.2638687581619432e-15 0 
1 51.82804087623164 8.1005773216219232 0 0 1 0 
1 51.82804087623164 13.170291623813529 0 -1 0 0 
1 51.628040876231651 13.170291623813529 0 0 -1 0 
1 51.628040876231651 7.9005773216219168 0 1 0 0 
1 56.382031728242751 7.9005773216219168 0 0 1 0 
1 56.382031728242751 20.35254025368236 0 -1 0 0 
1 51.628040876231651 20.35254025368236 0 0 -1 0 
1 51.628040876231651 19.06436481510281 0 1 -2.1316282072810276e-13 0 
1 51.728040876231617 19.064364815102788 0 0 1 0 
1 51.728040876231617 20.252540253682351 0 1 0 0 
1 56.282031728242757 20.252540253682351 0 0 -1 0 
1 56.282031728242757 17.78404977499142 0 -1 0 0 
1 51.728040876231617 17.78404977499142 0 0 1 0 
1 51.728040876231617 17.997364815102799 0 -1 0 0 
1 51.628040876231651 17.997364815102799 0 0 -1 0 
1 51.628040876231651 14.23729162381353 0 1 0 0 
1 44.149147866891091 19.19408803554175 0 -1.4210032025989164e-13 -1 0 
1 44.149147866891077 19.094082246045911 0 0.99999999969586939 2.4662948847113563e-05 0 
1 44.383892538809 19.094088035541748 0 -0.0013290701706787996 -0.99999911678585074 0 
1 44.377517729584767 14.297649341371089 0 -1 0 0 
1 44.142773057666894 14.297649341371089 0 0 -1 0 
1 44.142773057666894 14.197649341371079 0 1 0 0 
1 49.440698369267693 14.197649341371079 0 0 1 0 
1 49.440698369267693 19.19408803554175 0 -1 0 0 
1 45.79081013834243 19.19408803554175 0 0 -1 0 
1 45.79081013834243 19.094088035541748 0 1 0 0 
1 49.340698369267677 19.094088035541748 0 0 -1 0 
1 49.340698369267677 14.297649341371089 0 -1 -5.8909521773270275e-09 0 
1 44.477464261987443 14.29764931272201 0 0.00076301835529931522 0.99999970890145251 0 
1 44.481124033838377 19.094088035541748 0 1 0 0 
1 44.723810138342451 19.094088035541748 0 -4.2632564145605405e-13 1 0 
1 44.723810138342408 19.19408803554175 0 -1 0 0 
1 43.082147866891098 19.19408803554175 0 -2.1309440706211761e-13 -1 0 
1 43.082147866891077 19.09405593067947 0 -0.9999999996958695 -2.4662948853693613e-05 0 
1 40.043386908457222 19.093980985873351 0 0 -1 0 
1 40.043386908457222 14.297649341371089 0 1 0 0 
1 43.075773057666858 14.297649341371089 0 0 -1 0 
1 43.075773057666858 14.19764934137109 0 -1 -3.4025629436175083e-15 0 
1 39.943386908457207 14.197649341371079 0 0 1 0 
1 39.943386908457207 19.19408803554175 0 1 0 0 
1 36.75587952452738 19.19408803554175 0 1 0 0 
1 37.205987796385642 19.19408803554175 0 0 -1 0 
1 37.205987796385642 14.197203653024831 0 -1 0 0 
1 36.755879524527387 14.197203653024831 0 -7.1054273576017844e-14 1 0 
1 36.75587952452738 14.29720365302482 0 1 0 0 
1 37.105987796385627 14.29720365302482 0 0 1 0 
1 37.105987796385627 19.094088035541748 0 -1 0 0 
1 36.755879524527387 19.094088035541748 0 -7.1054273576009009e-14 1 0 
1 23.959542134068361 19.19408803554175 0 0 -1 0 
1 23.959542134068361 19.094088035541748 0 -1 0 0 
1 23.439759368380759 19.094088035541748 0 0 -1 0 
1 23.439759368380759 14.29720365302483 0 1 0 0 
1 31.653792598401289 14.29720365302483 0 0 1 0 
1 31.653792598401289 19.094088035541748 0 -1 0 0 
1 30.172208800735071 19.094088035541748 0 -3.9079850466804955e-13 1 0 
1 30.172208800735032 19.19408803554175 0 1 0 0 
1 33.085379524527418 19.19408803554175 0 -2.8421709430403604e-13 -1 0 
1 33.08537952452739 19.094088035541748 0 -1 0 0 
1 31.753792598401269 19.094088035541748 0 0 -1 0 
1 31.753792598401269 14.29720365302483 0 1 -2.70848935143953e-15 0 
1 35.688879524527387 14.29720365302482 0 0 -1 0 
1 35.688879524527387 14.197203653024831 0 -1 0 0 
1 23.339759368380761 14.197203653024831 0 0 1 0 
1 23.339759368380761 19.19408803554175 0 1 0 0 
1 26.90622685985668 8.0005773216219325 0 1 0 0 
1 31.610181093325721 8.0005773216219325 0 0 -1 0 
1 31.610181093325721 7.9005773216219346 0 -1 0 0 
1 26.90622685985668 7.9005773216219346 0 0 1 0 
1 39.497418070347187 7.900577321621931 0 7.1054273576009009e-14 1 0 
1 39.497418070347202 8.1005773216219339 0 1 0 0 
1 39.843386908457212 8.1005773216219339 0 0 1 0 
1 39.843386908457212 11.375476656729919 0 -1 0 0 
1 37.305987796385629 11.375476656729919 0 0 -1 0 
1 37.305987796385629 8.1005773216219339 0 1 0 0 
1 37.687418070347178 8.1005773216219339 0 0 -1 0 
1 37.687418070347178 7.900577321621931 0 -1 0 0 
1 33.420181093325738 7.900577321621931 0 -1.4210854715201802e-13 1 0 
1 33.420181093325724 8.0005773216219325 0 1 0 0 
1 37.105987796385627 8.0005773216219325 0 0 1 0 
1 37.105987796385627 11.475476656729921 0 -1 0 0 
1 23.439759368380759 11.475476656729921 0 0 -1 0 
1 23.439759368380759 8.0005773216219218 0 1 0 0 
1 25.096226859856671 8.0005773216219218 0 0 -1 0 
1 25.096226859856671 7.9005773216219346 0 -1 0 0 
1 23.339759368380761 7.9005773216219346 0 0 1 0 
1 23.339759368380761 11.57547665672992 0 1 0 0 
1 40.35881565129192 11.57547665672992 0 -2.8421709430404108e-13 -1 0 
1 40.358815651291891 11.475476656729921 0 -1 0 0 
1 40.043386908457222 11.475476656729921 0 0 -1 0 
1 40.043386908457222 8.0005773216219218 0 1 0 0 
1 44.377517786821663 8.0005773216219218 0 0 1 0 
1 44.377517786821663 11.475476656729921 0 -1 0 0 
1 41.425815651291877 11.475476656729921 0 0 1 0 
1 41.425815651291877 11.575476656729929 0 1 0 0 
1 44.778984221562418 11.575476656729929 0 0 -1 0 
1 44.778984221562418 11.475476656729921 0 -1 0 0 
1 44.477517786821657 11.475476656729921 0 0 -1 0 
1 44.477517786821657 8.0005773216219218 0 1 0 0 
1 49.340698369267677 8.0005773216219218 0 0 1 0 
1 49.340698369267677 11.475476656729921 0 -1 0 0 
1 45.845984221562439 11.475476656729921 0 1.4210854715200792e-13 1 0 
1 45.845984221562453 11.575476656729929 0 1 0 0 
1 49.440698369267693 11.575476656729929 0 0 -1 0 
1 49.440698369267693 7.900577321621931 0 -1 0 0 
Polygon3D 0
PolygonOnTriangulations 0
Surfaces 1
1 33.781555627435587 15.308653802320675 0 -0 -0 -1 -1 0 0 0 1 -0 
Triangulations 0

TShapes 682
Ve
1e-07
6.73678414605336 28.5530979788409 0
0 0

0101101
*
Ve
1e-07
12.4248344528616 28.5530979788409 0
0 0

0101101
*
Ed
 1e-07 1 1 0
1  1 0 0 5.68805030680821
0

0101000
+682 0 -681 0 *
Ve
1e-07
12.4248344528636 25.9721223836879 0
0 0

0101101
*
Ed
 1e-07 1 1 0
1  2 0 0 2.580975595153
0

0101000
+681 0 -679 0 *
Ve
1e-07
12.5248344528615 25.9721223836879 0
0 0

0101101
*
Ed
 1e-07 1 1 0
1  3 0 0 0.0999999999979799
0

0101000
+679 0 -677 0 *
Ve
1e-07
12.5248344528615 28.5530979788409 0
0 0

0101101
*
Ed
 1e-07 1 1 0
1  4 0 0 2.58097559515303
0

0101000
+677 0 -675 0 *
Ve
1e-07
15.1061983343464 28.5530979788409 0
0 0

0101101
*
Ed
 1e-07 1 1 0
1  5 0 0 2.58136388148483
0

0101000
+675 0 -673 0 *
Ve
1e-07
15.1061983343464 22.411468081835 0
0 0

0101101
*
Ed
 1e-07 1 1 0
1  6 0 0 6.14162989700599
0

0101000
+673 0 -671 0 *
Ve
1e-07
16.6952644012902 22.411468081835 0
0 0

0101101
*
Ed
 1e-07 1 1 0
1  7 0 0 1.58906606694381
0

0101000
+671 0 -669 0 *
Ve
1e-07
16.6952644012902 22.5140212282717 0
0 0

0101101
*
Ed
 1e-07 1 1 0
1  8 0 0 0.102553146436748
0

0101000
+669 0 -667 0 *
Ve
1e-07
15.2058349745145 22.5140212282717 0
0 0

0101101
*
Ed
 1e-07 1 1 0
1  9 0 0 1.48942942677568
0

0101000
+667 0 -665 0 *
Ve
1e-07
15.2058349745145 28.5556511252777 0
0 0

0101101
*
Ed
 1e-07 1 1 0
1  10 0 0 6.04162989700599
0

0101000
+665 0 -663 0 *
Ve
1e-07
17.947577448992 28.5556511252777 0
0 0

0101101
*
Ed
 1e-07 1 1 0
1  11 0 0 2.74174247447745
0

0101000
+663 0 -661 0 *
Ve
1e-07
17.947577448992 22.5140212282717 0
0 0

0101101
*
Ed
 1e-07 1 1 0
1  12 0 0 6.04162989700599
0

0101000
+661 0 -659 0 *
Ve
1e-07
17.7622644012901 22.5140212282717 0
0 0

0101101
*
Ed
 1e-07 1 1 0
1  13 0 0 0.185313047701801
0

0101000
+659 0 -657 0 *
Ve
1e-07
17.7622644012902 22.411468081835 0
0 0

0101101
*
Ed
 1e-07 1 1 0
1  14 0 0 0.102553146436748
0

0101000
+657 0 -655 0 *
Ve
1e-07
18.2465840811805 22.411468081835 0
0 0

0101101
*
Ed
 1e-07 1 1 0
1  15 0 0 0.484319679890341
0

0101000
+655 0 -653 0 *
Ve
1e-07
18.2465840811805 22.5140212282717 0
0 0

0101101
*
Ed
 1e-07 1 1 0
1  16 0 0 0.102553146436748
0

0101000
+653 0 -651 0 *
Ve
1e-07
18.047577448992 22.5140212282717 0
0 0

0101101
*
Ed
 1e-07 1 1 0
1  17 0 0 0.199006632188588
0

0101000
+651 0 -649 0 *
Ve
1e-07
18.047577448992 28.5556511252777 0
0 0

0101101
*
Ed
 1e-07 1 1 0
1  18 0 0 6.04162989700599
0

0101000
+649 0 -647 0 *
Ve
1e-07
20.7893199234694 28.5556511252777 0
0 0

0101101
*
Ed
 1e-07 1 1 0
1  19 0 0 2.74174247447745
0

0101000
+647 0 -645 0 *
Ve
1e-07
20.7893199234694 22.5140212282717 0
0 0

0101101
*
Ed
 1e-07 1 1 0
1  20 0 0 6.04162989700599
0

0101000
+645 0 -643 0 *
Ve
1e-07
19.3135840811805 22.5140212282717 0
0 0

0101101
*
Ed
 1e-07 1 1 0
1  21 0 0 1.47573584228889
0

0101000
+643 0 -641 0 *
Ve
1e-07
19.3135840811806 22.411468081835 0
0 0

0101101
*
Ed
 1e-07 1 1 0
1  22 0 0 0.102553146436748
0

0101000
+641 0 -639 0 *
Ve
1e-07
20.8896832833013 22.411468081835 0
0 0

0101101
*
Ed
 1e-07 1 1 0
1  23 0 0 1.57609920212073
0

0101000
+639 0 -637 0 *
Ve
1e-07
20.8896832833013 28.5530979788409 0
0 0

0101101
*
Ed
 1e-07 1 1 0
1  24 0 0 6.14162989700599
0

0101000
+637 0 -635 0 *
Ve
1e-07
31.6897969144336 28.5530979788409 0
0 0

0101101
*
Ed
 1e-07 1 1 0
1  25 0 0 10.8001136311323
0

0101000
+635 0 -633 0 *
Ve
1e-07
31.6897969144336 22.411468081835 0
0 0

0101101
*
Ed
 1e-07 1 1 0
1  26 0 0 6.14162989700599
0

0101000
+633 0 -631 0 *
Ve
1e-07
33.2129087041356 22.411468081835 0
0 0

0101101
*
Ed
 1e-07 1 1 0
1  27 0 0 1.52311178970204
0

0101000
+631 0 -629 0 *
Ve
1e-07
33.2129087041356 22.511468081835 0
0 0

0101101
*
Ed
 1e-07 1 1 0
1  28 0 0 0.0999999999999979
0

0101000
+629 0 -627 0 *
Ve
1e-07
31.7897969144336 22.511468081835 0
0 0

0101101
*
Ed
 1e-07 1 1 0
1  29 0 0 1.42311178970206
0

0101000
+627 0 -625 0 *
Ve
1e-07
31.7897969144336 28.5530979788409 0
0 0

0101101
*
Ed
 1e-07 1 1 0
1  30 0 0 6.04162989700599
0

0101000
+625 0 -623 0 *
Ve
1e-07
34.4268781927334 28.5530979788409 0
0 0

0101101
*
Ed
 1e-07 1 1 0
1  31 0 0 2.63708127829984
0

0101000
+623 0 -621 0 *
Ve
1e-07
34.4268781927334 22.511468081835 0
0 0

0101101
*
Ed
 1e-07 1 1 0
1  32 0 0 6.04162989700599
0

0101000
+621 0 -619 0 *
Ve
1e-07
34.2799087041356 22.511468081835 0
0 0

0101101
*
Ed
 1e-07 1 1 0
1  33 0 0 0.146969488597804
0

0101000
+619 0 -617 0 *
Ve
1e-07
34.2799087041357 22.411468081835 0
0 0

0101101
*
Ed
 1e-07 1 1 0
1  34 0 0 0.0999999999999979
0

0101000
+617 0 -615 0 *
Ve
1e-07
34.6853517455474 22.411468081835 0
0 0

0101101
*
Ed
 1e-07 1 1 0
1  35 0 0 0.405443041411743
0

0101000
+615 0 -613 0 *
Ve
1e-07
34.6853517455474 22.511468081835 0
0 0

0101101
*
Ed
 1e-07 1 1 0
1  36 0 0 0.0999999999999979
0

0101000
+613 0 -611 0 *
Ve
1e-07
34.5268781927334 22.511468081835 0
0 0

0101101
*
Ed
 1e-07 1 1 0
1  37 0 0 0.158473552813973
0

0101000
+611 0 -609 0 *
Ve
1e-07
34.5268781927334 28.5530979788409 0
0 0

0101101
*
Ed
 1e-07 1 1 0
1  38 0 0 6.04162989700599
0

0101000
+609 0 -607 0 *
Ve
1e-07
37.1639594710333 28.5530979788409 0
0 0

0101101
*
Ed
 1e-07 1 1 0
1  39 0 0 2.63708127829985
0

0101000
+607 0 -605 0 *
Ve
1e-07
37.1639594710333 22.511468081835 0
0 0

0101101
*
Ed
 1e-07 1 1 0
1  40 0 0 6.04162989700599
0

0101000
+605 0 -603 0 *
Ve
1e-07
35.7523517455474 22.511468081835 0
0 0

0101101
*
Ed
 1e-07 1 1 0
1  41 0 0 1.41160772548589
0

0101000
+603 0 -601 0 *
Ve
1e-07
35.7523517455474 22.411468081835 0
0 0

0101101
*
Ed
 1e-07 1 1 0
1  42 0 0 0.0999999999999979
0

0101000
+601 0 -599 0 *
Ve
1e-07
37.2639594710333 22.411468081835 0
0 0

0101101
*
Ed
 1e-07 1 1 0
1  43 0 0 1.51160772548588
0

0101000
+599 0 -597 0 *
Ve
1e-07
37.2639594710333 28.5530979788409 0
0 0

0101101
*
Ed
 1e-07 1 1 0
1  44 0 0 6.14162989700598
0

0101000
+597 0 -595 0 *
Ve
1e-07
50.7974654184323 28.5530979788409 0
0 0

0101101
*
Ed
 1e-07 1 1 0
1  45 0 0 13.533505947399
0

0101000
+595 0 -593 0 *
Ve
1e-07
50.7974654184323 22.411468081835 0
0 0

0101101
*
Ed
 1e-07 1 1 0
1  46 0 0 6.14162989700599
0

0101000
+593 0 -591 0 *
Ve
1e-07
52.2767782220756 22.411468081835 0
0 0

0101101
*
Ed
 1e-07 1 1 0
1  47 0 0 1.47931280364335
0

0101000
+591 0 -589 0 *
Ve
1e-07
52.2767782220756 22.511468081835 0
0 0

0101101
*
Ed
 1e-07 1 1 0
1  48 0 0 0.0999999999999979
0

0101000
+589 0 -587 0 *
Ve
1e-07
50.8969472756029 22.511468081835 0
0 0

0101101
*
Ed
 1e-07 1 1 0
1  49 0 0 1.37983094647274
0

0101000
+587 0 -585 0 *
Ve
1e-07
50.8969472756029 28.5530979788409 0
0 0

0101101
*
Ed
 1e-07 1 1 0
1  50 0 0 6.04162989700599
0

0101000
+585 0 -583 0 *
Ve
1e-07
53.5396953888475 28.5530979788409 0
0 0

0101101
*
Ed
 1e-07 1 1 0
1  51 0 0 2.6427481132446
0

0101000
+583 0 -581 0 *
Ve
1e-07
53.5396953888475 22.511468081835 0
0 0

0101101
*
Ed
 1e-07 1 1 0
1  52 0 0 6.04162989700599
0

0101000
+581 0 -579 0 *
Ve
1e-07
53.3437782220756 22.511468081835 0
0 0

0101101
*
Ed
 1e-07 1 1 0
1  53 0 0 0.195917166771842
0

0101000
+579 0 -577 0 *
Ve
1e-07
53.3437782220756 22.411468081835 0
0 0

0101101
*
Ed
 1e-07 1 1 0
1  54 0 0 0.0999999999999979
0

0101000
+577 0 -575 0 *
Ve
1e-07
53.8324463049585 22.411468081835 0
0 0

0101101
*
Ed
 1e-07 1 1 0
1  55 0 0 0.488668082882867
0

0101000
+575 0 -573 0 *
Ve
1e-07
53.8324463049585 22.511468081835 0
0 0

0101101
*
Ed
 1e-07 1 1 0
1  56 0 0 0.100000000000009
0

0101000
+573 0 -571 0 *
Ve
1e-07
53.6396953888475 22.511468081835 0
0 0

0101101
*
Ed
 1e-07 1 1 0
1  57 0 0 0.192750916111052
0

0101000
+571 0 -569 0 *
Ve
1e-07
53.6396953888475 28.5530979788409 0
0 0

0101101
*
Ed
 1e-07 1 1 0
1  58 0 0 6.04162989700599
0

0101000
+569 0 -567 0 *
Ve
1e-07
56.282443502092 28.5530979788409 0
0 0

0101101
*
Ed
 1e-07 1 1 0
1  59 0 0 2.64274811324455
0

0101000
+567 0 -565 0 *
Ve
1e-07
56.282443502092 22.511468081835 0
0 0

0101101
*
Ed
 1e-07 1 1 0
1  60 0 0 6.04162989700599
0

0101000
+565 0 -563 0 *
Ve
1e-07
54.8994463049585 22.511468081835 0
0 0

0101101
*
Ed
 1e-07 1 1 0
1  61 0 0 1.38299719713348
0

0101000
+563 0 -561 0 *
Ve
1e-07
54.8994463049585 22.411468081835 0
0 0

0101101
*
Ed
 1e-07 1 1 0
1  62 0 0 0.0999999999999979
0

0101000
+561 0 -559 0 *
Ve
1e-07
56.3829616449214 22.411468081835 0
0 0

0101101
*
Ed
 1e-07 1 1 0
1  63 0 0 1.48351533996291
0

0101000
+559 0 -557 0 *
Ve
1e-07
56.3829616449214 28.5530979788409 0
0 0

0101101
*
Ed
 1e-07 1 1 0
1  64 0 0 6.14162989700599
0

0101000
+557 0 -555 0 *
Ve
1e-07
58.9562139812076 28.5530979788409 0
0 0

0101101
*
Ed
 1e-07 1 1 0
1  65 0 0 2.57325233628623
0

0101000
+555 0 -553 0 *
Ve
1e-07
58.9562139812076 25.9748716810958 0
0 0

0101101
*
Ed
 1e-07 1 1 0
1  66 0 0 2.57822629774515
0

0101000
+553 0 -551 0 *
Ve
1e-07
59.0562139812076 25.9748716810958 0
0 0

0101101
*
Ed
 1e-07 1 1 0
1  67 0 0 0.10000000000003
0

0101000
+551 0 -549 0 *
Ve
1e-07
59.0562139812076 28.5530979788409 0
0 0

0101101
*
Ed
 1e-07 1 1 0
1  68 0 0 2.57822629774516
0

0101000
+549 0 -547 0 *
Ve
1e-07
64.6050756873039 28.5530979788409 0
0 0

0101101
*
Ed
 1e-07 1 1 0
1  69 0 0 5.54886170609628
0

0101000
+547 0 -545 0 *
Ve
1e-07
64.6050756873039 24.6181198489064 0
0 0

0101101
*
Ed
 1e-07 1 1 0
1  70 0 0 3.93497812993451
0

0101000
+545 0 -543 0 *
Ve
1e-07
59.0562139812076 24.6181198489064 0
0 0

0101101
*
Ed
 1e-07 1 1 0
1  71 0 0 5.54886170609628
0

0101000
+543 0 -541 0 *
Ve
1e-07
59.0562139812076 24.9078716810958 0
0 0

0101101
*
Ed
 1e-07 1 1 0
1  72 0 0 0.289751832189342
0

0101000
+541 0 -539 0 *
Ve
1e-07
58.9562139812076 24.9078716810958 0
0 0

0101101
*
Ed
 1e-07 1 1 0
1  73 0 0 0.100000000000009
0

0101000
+539 0 -537 0 *
Ve
1e-07
58.9562139812076 20.4813622421663 0
0 0

0101101
*
Ed
 1e-07 1 1 0
1  74 0 0 4.42650943892949
0

0101000
+537 0 -535 0 *
Ve
1e-07
59.0562139812076 20.4813622421663 0
0 0

0101101
*
Ed
 1e-07 1 1 0
1  75 0 0 0.100000000000009
0

0101000
+535 0 -533 0 *
Ve
1e-07
59.0562139812076 24.5181198489064 0
0 0

0101101
*
Ed
 1e-07 1 1 0
1  76 0 0 4.03675760674014
0

0101000
+533 0 -531 0 *
Ve
1e-07
64.6050756873039 24.5181198489064 0
0 0

0101101
*
Ed
 1e-07 1 1 0
1  77 0 0 5.54886170609628
0

0101000
+531 0 -529 0 *
Ve
1e-07
64.6050756873039 19.137460541334 0
0 0

0101101
*
Ed
 1e-07 1 1 0
1  78 0 0 5.38065930757244
0

0101000
+529 0 -527 0 *
Ve
1e-07
59.0562139812076 19.137460541334 0
0 0

0101101
*
Ed
 1e-07 1 1 0
1  79 0 0 5.5488617060963
0

0101000
+527 0 -525 0 *
Ve
1e-07
59.0562139812076 19.4143622421663 0
0 0

0101101
*
Ed
 1e-07 1 1 0
1  80 0 0 0.276901700832308
0

0101000
+525 0 -523 0 *
Ve
1e-07
58.9562139812076 19.4143622421663 0
0 0

0101101
*
Ed
 1e-07 1 1 0
1  81 0 0 0.100000000000009
0

0101000
+523 0 -521 0 *
Ve
1e-07
58.9562139812076 15.0443086281769 0
0 0

0101101
*
Ed
 1e-07 1 1 0
1  82 0 0 4.37005361398934
0

0101000
+521 0 -519 0 *
Ve
1e-07
59.0562139812076 15.0443086281769 0
0 0

0101101
*
Ed
 1e-07 1 1 0
1  83 0 0 0.100000000000009
0

0101000
+519 0 -517 0 *
Ve
1e-07
59.0562139812076 19.037460541334 0
0 0

0101101
*
Ed
 1e-07 1 1 0
1  84 0 0 3.99315191315705
0

0101000
+517 0 -515 0 *
Ve
1e-07
64.6050756873039 19.037460541334 0
0 0

0101101
*
Ed
 1e-07 1 1 0
1  85 0 0 5.54886170609628
0

0101000
+515 0 -513 0 *
Ve
1e-07
64.6050756873039 13.6716478624539 0
0 0

0101101
*
Ed
 1e-07 1 1 0
1  86 0 0 5.36581267888012
0

0101000
+513 0 -511 0 *
Ve
1e-07
59.0562139812076 13.6716478624539 0
0 0

0101101
*
Ed
 1e-07 1 1 0
1  87 0 0 5.5488617060963
0

0101000
+511 0 -509 0 *
Ve
1e-07
59.0562139812076 13.9773086281769 0
0 0

0101101
*
Ed
 1e-07 1 1 0
1  88 0 0 0.305660765723069
0

0101000
+509 0 -507 0 *
Ve
1e-07
58.9562139812076 13.9773086281769 0
0 0

0101101
*
Ed
 1e-07 1 1 0
1  89 0 0 0.100000000000009
0

0101000
+507 0 -505 0 *
Ve
1e-07
58.9562139812076 9.45502736968778 0
0 0

0101101
*
Ed
 1e-07 1 1 0
1  90 0 0 4.52228125848917
0

0101000
+505 0 -503 0 *
Ve
1e-07
59.0562139812076 9.45502736968778 0
0 0

0101101
*
Ed
 1e-07 1 1 0
1  91 0 0 0.100000000000009
0

0101000
+503 0 -501 0 *
Ve
1e-07
59.0562139812076 13.5716478624539 0
0 0

0101101
*
Ed
 1e-07 1 1 0
1  92 0 0 4.11662049276611
0

0101000
+501 0 -499 0 *
Ve
1e-07
64.6050756873039 13.5716478624539 0
0 0

0101101
*
Ed
 1e-07 1 1 0
1  93 0 0 5.54886170609628
0

0101000
+499 0 -497 0 *
Ve
1e-07
64.6050756873039 8.09930074840355 0
0 0

0101101
*
Ed
 1e-07 1 1 0
1  94 0 0 5.47234711405034
0

0101000
+497 0 -495 0 *
Ve
1e-07
59.0562139812076 8.09930074840355 0
0 0

0101101
*
Ed
 1e-07 1 1 0
1  95 0 0 5.54886170609628
0

0101000
+495 0 -493 0 *
Ve
1e-07
59.0562139812076 8.38802736968777 0
0 0

0101101
*
Ed
 1e-07 1 1 0
1  96 0 0 0.288726621284226
0

0101000
+493 0 -491 0 *
Ve
1e-07
58.9562139812077 8.38802736968777 0
0 0

0101101
*
Ed
 1e-07 1 1 0
1  97 0 0 0.0999999999999659
0

0101000
+491 0 -489 0 *
Ve
1e-07
58.9562139812076 7.89930074840356 0
0 0

0101101
*
Ed
 1e-07 1 1 0
1  98 0 0 0.488726621284215
0

0101000
+489 0 -487 0 *
Ve
1e-07
64.6050756873039 7.89930074840356 0
0 0

0101101
*
Ed
 1e-07 1 1 0
1  99 0 0 5.64886170609629
0

0101000
+487 0 -485 0 *
Ve
1e-07
64.6050756873039 0.0210000000000008 0
0 0

0101101
*
Ed
 1e-07 1 1 0
1  100 0 0 7.87830074840356
0

0101000
+485 0 -483 0 *
Ve
1e-07
49.4416282859463 0.0210000000000008 0
0 0

0101101
*
Ed
 1e-07 1 1 0
1  101 0 0 15.1634474013576
0

0101000
+483 0 -481 0 *
Ve
1e-07
49.4416282859463 5.83914836296655 0
0 0

0101101
*
Ed
 1e-07 1 1 0
1  102 0 0 5.81814836296655
0

0101000
+481 0 -479 0 *
Ve
1e-07
47.6201916420138 5.83918933509 0
0 0

0101101
*
Ed
 1e-07 1 1 0
1  103 0 0 1.82143664439339
0

0101000
+479 0 -477 0 *
Ve
1e-07
47.6201916420138 5.73909634703258 0
0 0

0101101
*
Ed
 1e-07 1 1 0
1  104 0 0 0.100092988057419
0

0101000
+477 0 -475 0 *
Ve
1e-07
49.3416282859463 5.73909634703258 0
0 0

0101101
*
Ed
 1e-07 1 1 0
1  105 0 0 1.72143664393257
0

0101000
+475 0 -473 0 *
Ve
1e-07
49.3416282859463 0.0210000000000008 0
0 0

0101101
*
Ed
 1e-07 1 1 0
1  106 0 0 5.71809634703258
0

0101000
+473 0 -471 0 *
Ve
1e-07
43.9610055375097 0.0210000000000008 0
0 0

0101101
*
Ed
 1e-07 1 1 0
1  107 0 0 5.38062274843664
0

0101000
+471 0 -469 0 *
Ve
1e-07
43.9610055375097 5.73909634703258 0
0 0

0101101
*
Ed
 1e-07 1 1 0
1  108 0 0 5.71809634703258
0

0101000
+469 0 -467 0 *
Ve
1e-07
45.6430249753471 5.73909634703258 0
0 0

0101101
*
Ed
 1e-07 1 1 0
1  109 0 0 1.68201943783738
0

0101000
+467 0 -465 0 *
Ve
1e-07
45.6430249753471 5.83919981649009 0
0 0

0101101
*
Ed
 1e-07 1 1 0
1  110 0 0 0.100103469457508
0

0101000
+465 0 -463 0 *
Ve
1e-07
42.1819022269105 5.83924317257806 0
0 0

0101101
*
Ed
 1e-07 1 1 0
1  111 0 0 3.46112274870818
0

0101000
+463 0 -461 0 *
Ve
1e-07
42.1819022269105 5.73909634703258 0
0 0

0101101
*
Ed
 1e-07 1 1 0
1  112 0 0 0.10014682554548
0

0101000
+461 0 -459 0 *
Ve
1e-07
43.8610055375097 5.73909634703258 0
0 0

0101101
*
Ed
 1e-07 1 1 0
1  113 0 0 1.67910331059923
0

0101000
+459 0 -457 0 *
Ve
1e-07
43.8610055375097 0.0210000000000008 0
0 0

0101101
*
Ed
 1e-07 1 1 0
1  114 0 0 5.71809634703258
0

0101000
+457 0 -455 0 *
Ve
1e-07
38.480382789073 0.0210000000000008 0
0 0

0101101
*
Ed
 1e-07 1 1 0
1  115 0 0 5.38062274843664
0

0101000
+455 0 -453 0 *
Ve
1e-07
38.480382789073 5.73909634703258 0
0 0

0101101
*
Ed
 1e-07 1 1 0
1  116 0 0 5.71809634703258
0

0101000
+453 0 -451 0 *
Ve
1e-07
40.2047355602438 5.73909634703258 0
0 0

0101101
*
Ed
 1e-07 1 1 0
1  117 0 0 1.72435277117074
0

0101000
+451 0 -449 0 *
Ve
1e-07
40.2047355602438 5.83925365397816 0
0 0

0101101
*
Ed
 1e-07 1 1 0
1  118 0 0 0.100157306945577
0

0101000
+449 0 -447 0 *
Ve
1e-07
36.6681264177509 5.83929691988607 0
0 0

0101101
*
Ed
 1e-07 1 1 0
1  119 0 0 3.5366091427575
0

0101000
+447 0 -445 0 *
Ve
1e-07
36.6681264177509 5.73909634703258 0
0 0

0101101
*
Ed
 1e-07 1 1 0
1  120 0 0 0.100200572853488
0

0101000
+445 0 -443 0 *
Ve
1e-07
38.3803827890731 5.73909634703258 0
0 0

0101101
*
Ed
 1e-07 1 1 0
1  121 0 0 1.71225637132213
0

0101000
+443 0 -441 0 *
Ve
1e-07
38.3803827890731 0.0210000000000008 0
0 0

0101101
*
Ed
 1e-07 1 1 0
1  122 0 0 5.71809634703258
0

0101000
+441 0 -439 0 *
Ve
1e-07
33.0089403132469 0.0210000000000008 0
0 0

0101101
*
Ed
 1e-07 1 1 0
1  123 0 0 5.3714424758262
0

0101000
+439 0 -437 0 *
Ve
1e-07
33.0089403132469 5.73909634703258 0
0 0

0101101
*
Ed
 1e-07 1 1 0
1  124 0 0 5.71809634703258
0

0101000
+437 0 -435 0 *
Ve
1e-07
34.6909597510843 5.73909634703258 0
0 0

0101101
*
Ed
 1e-07 1 1 0
1  125 0 0 1.68201943783739
0

0101000
+435 0 -433 0 *
Ve
1e-07
34.6909597510843 5.83930740128617 0
0 0

0101101
*
Ed
 1e-07 1 1 0
1  126 0 0 0.100211054253592
0

0101000
+433 0 -431 0 *
Ve
1e-07
31.1148233967039 5.83935084755419 0
0 0

0101101
*
Ed
 1e-07 1 1 0
1  127 0 0 3.57613635464432
0

0101000
+431 0 -429 0 *
Ve
1e-07
31.1148233967039 5.73909634703258 0
0 0

0101101
*
Ed
 1e-07 1 1 0
1  128 0 0 0.100254500521616
0

0101000
+429 0 -427 0 *
Ve
1e-07
32.9089403132469 5.73909634703258 0
0 0

0101101
*
Ed
 1e-07 1 1 0
1  129 0 0 1.79411691654304
0

0101000
+427 0 -425 0 *
Ve
1e-07
32.9089403132469 0.0210000000000008 0
0 0

0101101
*
Ed
 1e-07 1 1 0
1  130 0 0 5.71809634703258
0

0101000
+425 0 -423 0 *
Ve
1e-07
27.5191372921998 0.0210000000000008 0
0 0

0101101
*
Ed
 1e-07 1 1 0
1  131 0 0 5.38980302104711
0

0101000
+423 0 -421 0 *
Ve
1e-07
27.5191372921998 5.73909634703258 0
0 0

0101101
*
Ed
 1e-07 1 1 0
1  132 0 0 5.71809634703258
0

0101000
+421 0 -419 0 *
Ve
1e-07
29.2434900633705 5.73909634703258 0
0 0

0101101
*
Ed
 1e-07 1 1 0
1  133 0 0 1.72435277117069
0

0101000
+419 0 -417 0 *
Ve
1e-07
29.2434900633705 5.83936132895428 0
0 0

0101101
*
Ed
 1e-07 1 1 0
1  134 0 0 0.100264981921704
0

0101000
+417 0 -415 0 *
Ve
1e-07
25.6948945268215 5.83940450468217 0
0 0

0101101
*
Ed
 1e-07 1 1 0
1  135 0 0 3.54859553681175
0

0101000
+415 0 -413 0 *
Ve
1e-07
25.6948945268215 5.73909634703258 0
0 0

0101101
*
Ed
 1e-07 1 1 0
1  136 0 0 0.100308157649593
0

0101000
+413 0 -411 0 *
Ve
1e-07
27.4191372921998 5.73909634703258 0
0 0

0101101
*
Ed
 1e-07 1 1 0
1  137 0 0 1.72424276537834
0

0101000
+411 0 -409 0 *
Ve
1e-07
27.4191372921998 0.0210000000000008 0
0 0

0101101
*
Ed
 1e-07 1 1 0
1  138 0 0 5.71809634703258
0

0101000
+409 0 -407 0 *
Ve
1e-07
22.0568750889841 0.0210000000000008 0
0 0

0101101
*
Ed
 1e-07 1 1 0
1  139 0 0 5.36226220321574
0

0101000
+407 0 -405 0 *
Ve
1e-07
22.0568750889841 5.73909634703258 0
0 0

0101101
*
Ed
 1e-07 1 1 0
1  140 0 0 5.71809634703258
0

0101000
+405 0 -403 0 *
Ve
1e-07
23.7388945268214 5.73909634703258 0
0 0

0101101
*
Ed
 1e-07 1 1 0
1  141 0 0 1.68201943783736
0

0101000
+403 0 -401 0 *
Ve
1e-07
23.7388945268214 5.83941498608225 0
0 0

0101101
*
Ed
 1e-07 1 1 0
1  142 0 0 0.100318639049668
0

0101000
+401 0 -399 0 *
Ve
1e-07
20.2566051117181 5.83945834217023 0
0 0

0101101
*
Ed
 1e-07 1 1 0
1  143 0 0 3.48228941537323
0

0101000
+399 0 -397 0 *
Ve
1e-07
20.2566051117181 5.73909634703258 0
0 0

0101101
*
Ed
 1e-07 1 1 0
1  144 0 0 0.100361995137646
0

0101000
+397 0 -395 0 *
Ve
1e-07
21.956875088984 5.73909634703258 0
0 0

0101101
*
Ed
 1e-07 1 1 0
1  145 0 0 1.70026997726591
0

0101000
+395 0 -393 0 *
Ve
1e-07
21.956875088984 0.0210000000000008 0
0 0

0101101
*
Ed
 1e-07 1 1 0
1  146 0 0 5.71809634703258
0

0101000
+393 0 -391 0 *
Ve
1e-07
16.5762523405474 0.0210000000000008 0
0 0

0101101
*
Ed
 1e-07 1 1 0
1  147 0 0 5.38062274843662
0

0101000
+391 0 -389 0 *
Ve
1e-07
16.5762523405474 5.73909634703258 0
0 0

0101101
*
Ed
 1e-07 1 1 0
1  148 0 0 5.71809634703258
0

0101000
+389 0 -387 0 *
Ve
1e-07
18.3006051117181 5.73909634703258 0
0 0

0101101
*
Ed
 1e-07 1 1 0
1  149 0 0 1.72435277117073
0

0101000
+387 0 -385 0 *
Ve
1e-07
18.3006051117182 5.83946882357031 0
0 0

0101101
*
Ed
 1e-07 1 1 0
1  150 0 0 0.100372476537729
0

0101000
+385 0 -383 0 *
Ve
1e-07
16.4762523405474 5.83947218985913 0
0 0

0101101
*
Ed
 1e-07 1 1 0
1  151 0 0 1.82435277117384
0

0101000
+383 0 -381 0 *
Ve
1e-07
16.4762523405474 0.0210000000000008 0
0 0

0101101
*
Ed
 1e-07 1 1 0
1  152 0 0 5.81847218985913
0

0101000
+381 0 -379 0 *
Ve
1e-07
6.7349243126961 0.0210000000000008 0
0 0

0101101
*
Ed
 1e-07 1 1 0
1  153 0 0 9.74132802785133
0

0101000
+379 0 -377 0 *
Ve
1e-07
6.73608862859586 7.89930074840356 0
0 0

0101101
*
Ed
 1e-07 1 1 0
1  154 0 0 7.87830083443934
0

0101000
+377 0 -375 0 *
Ve
1e-07
12.5248344528615 7.89930074840356 0
0 0

0101101
*
Ed
 1e-07 1 1 0
1  155 0 0 5.78874582426568
0

0101000
+375 0 -373 0 *
Ve
1e-07
12.5248344528615 8.16114670237031 0
0 0

0101101
*
Ed
 1e-07 1 1 0
1  156 0 0 0.261845953966752
0

0101000
+373 0 -371 0 *
Ve
1e-07
12.4248344528615 8.16114670237029 0
0 0

0101101
*
Ed
 1e-07 1 1 0
1  157 0 0 0.0999999999999908
0

0101000
+371 0 -369 0 *
Ve
1e-07
12.4248344528615 7.99930074840356 0
0 0

0101101
*
Ed
 1e-07 1 1 0
1  158 0 0 0.161845953966733
0

0101000
+369 0 -367 0 *
Ve
1e-07
6.73539311113839 7.99930074840356 0
0 0

0101101
*
Ed
 1e-07 1 1 0
1  159 0 0 5.68944134172316
0

0101000
+367 0 -365 0 *
Ve
1e-07
6.73584820656816 10.6258417144427 0
0 0

0101101
*
Ed
 1e-07 1 1 0
1  160 0 0 2.62654100546584
0

0101000
+365 0 -363 0 *
Ve
1e-07
12.4248344528615 10.6258417137062 0
0 0

0101101
*
Ed
 1e-07 1 1 0
1  161 0 0 5.68898624629339
0

0101000
+363 0 -361 0 *
Ve
1e-07
12.4248344528615 9.2281467023703 0
0 0

0101101
*
Ed
 1e-07 1 1 0
1  162 0 0 1.39769501133591
0

0101000
+361 0 -359 0 *
Ve
1e-07
12.5248344528615 9.22814670237028 0
0 0

0101101
*
Ed
 1e-07 1 1 0
1  163 0 0 0.0999999999999908
0

0101000
+359 0 -357 0 *
Ve
1e-07
12.5248344528615 10.887687667673 0
0 0

0101101
*
Ed
 1e-07 1 1 0
1  164 0 0 1.65954096530268
0

0101000
+357 0 -355 0 *
Ve
1e-07
12.4248344528615 10.8876876676729 0
0 0

0101101
*
Ed
 1e-07 1 1 0
1  165 0 0 0.0999999999999908
0

0101000
+355 0 -353 0 *
Ve
1e-07
12.4248344528615 10.7258417137062 0
0 0

0101101
*
Ed
 1e-07 1 1 0
1  166 0 0 0.161845953966731
0

0101000
+353 0 -351 0 *
Ve
1e-07
6.73539311113839 10.7258417137062 0
0 0

0101101
*
Ed
 1e-07 1 1 0
1  167 0 0 5.68944134172316
0

0101000
+351 0 -349 0 *
Ve
1e-07
6.73584820656816 13.3523826797453 0
0 0

0101101
*
Ed
 1e-07 1 1 0
1  168 0 0 2.62654100546584
0

0101000
+349 0 -347 0 *
Ve
1e-07
12.4248344528615 13.3523826790088 0
0 0

0101101
*
Ed
 1e-07 1 1 0
1  169 0 0 5.68898624629339
0

0101000
+347 0 -345 0 *
Ve
1e-07
12.4248344528615 11.9546876676729 0
0 0

0101101
*
Ed
 1e-07 1 1 0
1  170 0 0 1.3976950113359
0

0101000
+345 0 -343 0 *
Ve
1e-07
12.5248344528615 11.954687667673 0
0 0

0101101
*
Ed
 1e-07 1 1 0
1  171 0 0 0.0999999999999908
0

0101000
+343 0 -341 0 *
Ve
1e-07
12.5248344528615 13.6142286329756 0
0 0

0101101
*
Ed
 1e-07 1 1 0
1  172 0 0 1.65954096530262
0

0101000
+341 0 -339 0 *
Ve
1e-07
12.4248344528615 13.6142286329756 0
0 0

0101101
*
Ed
 1e-07 1 1 0
1  173 0 0 0.0999999999999908
0

0101000
+339 0 -337 0 *
Ve
1e-07
12.4248344528615 13.4523826790089 0
0 0

0101101
*
Ed
 1e-07 1 1 0
1  174 0 0 0.16184595396674
0

0101000
+337 0 -335 0 *
Ve
1e-07
6.735852497426 13.4523826790089 0
0 0

0101101
*
Ed
 1e-07 1 1 0
1  175 0 0 5.68898195543555
0

0101000
+335 0 -333 0 *
Ve
1e-07
6.73631188371368 16.0789236443115 0
0 0

0101101
*
Ed
 1e-07 1 1 0
1  176 0 0 2.62654100547635
0

0101000
+333 0 -331 0 *
Ve
1e-07
12.4248344528615 16.0789236443115 0
0 0

0101101
*
Ed
 1e-07 1 1 0
1  177 0 0 5.68852256914787
0

0101000
+331 0 -329 0 *
Ve
1e-07
12.4248344528615 14.6812286329756 0
0 0

0101101
*
Ed
 1e-07 1 1 0
1  178 0 0 1.39769501133592
0

0101000
+329 0 -327 0 *
Ve
1e-07
12.5248344528615 14.6812286329756 0
0 0

0101101
*
Ed
 1e-07 1 1 0
1  179 0 0 0.0999999999999908
0

0101000
+327 0 -325 0 *
Ve
1e-07
12.5248344528615 16.3407695982783 0
0 0

0101101
*
Ed
 1e-07 1 1 0
1  180 0 0 1.65954096530265
0

0101000
+325 0 -323 0 *
Ve
1e-07
12.4248344528615 16.3407695982783 0
0 0

0101101
*
Ed
 1e-07 1 1 0
1  181 0 0 0.0999999999999908
0

0101000
+323 0 -321 0 *
Ve
1e-07
12.4248344528615 16.1789236443115 0
0 0

0101101
*
Ed
 1e-07 1 1 0
1  182 0 0 0.16184595396675
0

0101000
+321 0 -319 0 *
Ve
1e-07
6.73583962137396 16.1789236443115 0
0 0

0101101
*
Ed
 1e-07 1 1 0
1  183 0 0 5.68899483148759
0

0101000
+319 0 -317 0 *
Ve
1e-07
6.73618497673371 18.8256925631826 0
0 0

0101101
*
Ed
 1e-07 1 1 0
1  184 0 0 2.64676894140237
0

0101000
+317 0 -315 0 *
Ve
1e-07
12.4248344528615 18.8256925627649 0
0 0

0101101
*
Ed
 1e-07 1 1 0
1  185 0 0 5.68864947612784
0

0101000
+315 0 -313 0 *
Ve
1e-07
12.4248344528615 17.4077695982783 0
0 0

0101101
*
Ed
 1e-07 1 1 0
1  186 0 0 1.41792296448661
0

0101000
+313 0 -311 0 *
Ve
1e-07
12.5248344528615 17.4077695982783 0
0 0

0101101
*
Ed
 1e-07 1 1 0
1  187 0 0 0.0999999999999908
0

0101000
+311 0 -309 0 *
Ve
1e-07
12.5248344528615 19.0875385167316 0
0 0

0101101
*
Ed
 1e-07 1 1 0
1  188 0 0 1.67976891845333
0

0101000
+309 0 -307 0 *
Ve
1e-07
12.4248344528615 19.0875385167316 0
0 0

0101101
*
Ed
 1e-07 1 1 0
1  189 0 0 0.0999999999999908
0

0101000
+307 0 -305 0 *
Ve
1e-07
12.4248344528615 18.9256925627649 0
0 0

0101101
*
Ed
 1e-07 1 1 0
1  190 0 0 0.16184595396674
0

0101000
+305 0 -303 0 *
Ve
1e-07
6.73618820825717 18.9256925627649 0
0 0

0101101
*
Ed
 1e-07 1 1 0
1  191 0 0 5.68864624460438
0

0101000
+303 0 -301 0 *
Ve
1e-07
6.73653679514035 21.5724614812182 0
0 0

0101101
*
Ed
 1e-07 1 1 0
1  192 0 0 2.6467689414083
0

0101000
+301 0 -299 0 *
Ve
1e-07
12.4248344528615 21.5724614812182 0
0 0

0101101
*
Ed
 1e-07 1 1 0
1  193 0 0 5.6882976577212
0

0101000
+299 0 -297 0 *
Ve
1e-07
12.4248344528615 20.1545385167316 0
0 0

0101101
*
Ed
 1e-07 1 1 0
1  194 0 0 1.41792296448662
0

0101000
+297 0 -295 0 *
Ve
1e-07
12.5248344528615 20.1545385167316 0
0 0

0101101
*
Ed
 1e-07 1 1 0
1  195 0 0 0.0999999999999908
0

0101000
+295 0 -293 0 *
Ve
1e-07
12.5248344528615 21.834307435185 0
0 0

0101101
*
Ed
 1e-07 1 1 0
1  196 0 0 1.67976891845336
0

0101000
+293 0 -291 0 *
Ve
1e-07
12.4248344528615 21.8343074351849 0
0 0

0101101
*
Ed
 1e-07 1 1 0
1  197 0 0 0.0999999999999908
0

0101000
+291 0 -289 0 *
Ve
1e-07
12.4248344528615 21.6724614812182 0
0 0

0101101
*
Ed
 1e-07 1 1 0
1  198 0 0 0.161845953966729
0

0101000
+289 0 -287 0 *
Ve
1e-07
6.73628944422733 21.6724614812182 0
0 0

0101101
*
Ed
 1e-07 1 1 0
1  199 0 0 5.68854500863422
0

0101000
+287 0 -285 0 *
Ve
1e-07
6.73653474808585 24.6432764298888 0
0 0

0101101
*
Ed
 1e-07 1 1 0
1  200 0 0 2.97081495879813
0

0101000
+285 0 -283 0 *
Ve
1e-07
12.4248344528615 24.6432764297212 0
0 0

0101101
*
Ed
 1e-07 1 1 0
1  201 0 0 5.6882997047757
0

0101000
+283 0 -281 0 *
Ve
1e-07
12.4248344528615 22.901307435185 0
0 0

0101101
*
Ed
 1e-07 1 1 0
1  202 0 0 1.74196899453625
0

0101000
+281 0 -279 0 *
Ve
1e-07
12.5248344528615 22.9013074351849 0
0 0

0101101
*
Ed
 1e-07 1 1 0
1  203 0 0 0.0999999999999908
0

0101000
+279 0 -277 0 *
Ve
1e-07
12.5248344528615 24.9051223836879 0
0 0

0101101
*
Ed
 1e-07 1 1 0
1  204 0 0 2.00381494850303
0

0101000
+277 0 -275 0 *
Ve
1e-07
12.4248344528644 24.9051223836879 0
0 0

0101101
*
Ed
 1e-07 1 1 0
1  205 0 0 0.099999999997161
0

0101000
+275 0 -273 0 *
Ve
1e-07
12.4248344528645 24.7432764297212 0
0 0

0101101
*
Ed
 1e-07 1 1 0
1  206 0 0 0.16184595396674
0

0101000
+273 0 -271 0 *
Ve
1e-07
6.73653679514327 24.7432764297212 0
0 0

0101101
*
Ed
 1e-07 1 1 0
1  207 0 0 5.68829765772121
0

0101000
+271 0 -269 0 *
Ed
 1e-07 1 1 0
1  208 0 0 3.80982155714932
0

0101000
+269 0 -682 0 *
Wi

0101100
+680 0 +678 0 +676 0 +674 0 +672 0 +670 0 +668 0 +666 0 +664 0 +662 0 
+660 0 +658 0 +656 0 +654 0 +652 0 +650 0 +648 0 +646 0 +644 0 +642 0 
+640 0 +638 0 +636 0 +634 0 +632 0 +630 0 +628 0 +626 0 +624 0 +622 0 
+620 0 +618 0 +616 0 +614 0 +612 0 +610 0 +608 0 +606 0 +604 0 +602 0 
+600 0 +598 0 +596 0 +594 0 +592 0 +590 0 +588 0 +586 0 +584 0 +582 0 
+580 0 +578 0 +576 0 +574 0 +572 0 +570 0 +568 0 +566 0 +564 0 +562 0 
+560 0 +558 0 +556 0 +554 0 +552 0 +550 0 +548 0 +546 0 +544 0 +542 0 
+540 0 +538 0 +536 0 +534 0 +532 0 +530 0 +528 0 +526 0 +524 0 +522 0 
+520 0 +518 0 +516 0 +514 0 +512 0 +510 0 +508 0 +506 0 +504 0 +502 0 
+500 0 +498 0 +496 0 +494 0 +492 0 +490 0 +488 0 +486 0 +484 0 +482 0 
+480 0 +478 0 +476 0 +474 0 +472 0 +470 0 +468 0 +466 0 +464 0 +462 0 
+460 0 +458 0 +456 0 +454 0 +452 0 +450 0 +448 0 +446 0 +444 0 +442 0 
+440 0 +438 0 +436 0 +434 0 +432 0 +430 0 +428 0 +426 0 +424 0 +422 0 
+420 0 +418 0 +416 0 +414 0 +412 0 +410 0 +408 0 +406 0 +404 0 +402 0 
+400 0 +398 0 +396 0 +394 0 +392 0 +390 0 +388 0 +386 0 +384 0 +382 0 
+380 0 +378 0 +376 0 +374 0 +372 0 +370 0 +368 0 +366 0 +364 0 +362 0 
+360 0 +358 0 +356 0 +354 0 +352 0 +350 0 +348 0 +346 0 +344 0 +342 0 
+340 0 +338 0 +336 0 +334 0 +332 0 +330 0 +328 0 +326 0 +324 0 +322 0 
+320 0 +318 0 +316 0 +314 0 +312 0 +310 0 +308 0 +306 0 +304 0 +302 0 
+300 0 +298 0 +296 0 +294 0 +292 0 +290 0 +288 0 +286 0 +284 0 +282 0 
+280 0 +278 0 +276 0 +274 0 +272 0 +270 0 +268 0 +267 0 *
Ve
1e-07
19.5989964315325 14.2372916238135 0
0 0

0101101
*
Ve
1e-07
19.5989964315325 17.5840497749914 0
0 0

0101101
*
Ed
 1e-07 1 1 0
1  209 0 0 3.3467581511779
0

0101000
+265 0 -264 0 *
Ve
1e-07
15.2450055795214 17.5840497749914 0
0 0

0101101
*
Ed
 1e-07 1 1 0
1  210 0 0 4.35399085201112
0

0101000
+264 0 -262 0 *
Ve
1e-07
15.2450055795214 8.10057732162194 0
0 0

0101101
*
Ed
 1e-07 1 1 0
1  211 0 0 9.48347245336949
0

0101000
+262 0 -260 0 *
Ve
1e-07
19.5989964315325 8.10057732162192 0
0 0

0101101
*
Ed
 1e-07 1 1 0
1  212 0 0 4.35399085201112
0

0101000
+260 0 -258 0 *
Ve
1e-07
19.5989964315325 13.1702916238135 0
0 0

0101101
*
Ed
 1e-07 1 1 0
1  213 0 0 5.06971430219161
0

0101000
+258 0 -256 0 *
Ve
1e-07
19.7989964315325 13.1702916238135 0
0 0

0101101
*
Ed
 1e-07 1 1 0
1  214 0 0 0.199999999999992
0

0101000
+256 0 -254 0 *
Ve
1e-07
19.7989964315325 7.90057732162192 0
0 0

0101101
*
Ed
 1e-07 1 1 0
1  215 0 0 5.26971430219161
0

0101000
+254 0 -252 0 *
Ve
1e-07
15.0450055795214 7.90057732162192 0
0 0

0101101
*
Ed
 1e-07 1 1 0
1  216 0 0 4.75399085201111
0

0101000
+252 0 -250 0 *
Ve
1e-07
15.0450055795214 20.3525402536824 0
0 0

0101101
*
Ed
 1e-07 1 1 0
1  217 0 0 12.4519629320604
0

0101000
+250 0 -248 0 *
Ve
1e-07
19.7989964315325 20.3525402536824 0
0 0

0101101
*
Ed
 1e-07 1 1 0
1  218 0 0 4.75399085201111
0

0101000
+248 0 -246 0 *
Ve
1e-07
19.7989964315325 19.0643648151028 0
0 0

0101101
*
Ed
 1e-07 1 1 0
1  219 0 0 1.28817543857955
0

0101000
+246 0 -244 0 *
Ve
1e-07
19.6989964315325 19.0643648151028 0
0 0

0101101
*
Ed
 1e-07 1 1 0
1  220 0 0 0.0999999999999908
0

0101000
+244 0 -242 0 *
Ve
1e-07
19.6989964315325 20.2525402536824 0
0 0

0101101
*
Ed
 1e-07 1 1 0
1  221 0 0 1.18817543857956
0

0101000
+242 0 -240 0 *
Ve
1e-07
15.1450055795214 20.2525402536824 0
0 0

0101101
*
Ed
 1e-07 1 1 0
1  222 0 0 4.55399085201112
0

0101000
+240 0 -238 0 *
Ve
1e-07
15.1450055795214 17.7840497749914 0
0 0

0101101
*
Ed
 1e-07 1 1 0
1  223 0 0 2.46849047869093
0

0101000
+238 0 -236 0 *
Ve
1e-07
19.6989964315325 17.7840497749914 0
0 0

0101101
*
Ed
 1e-07 1 1 0
1  224 0 0 4.55399085201112
0

0101000
+236 0 -234 0 *
Ve
1e-07
19.6989964315325 17.9973648151028 0
0 0

0101101
*
Ed
 1e-07 1 1 0
1  225 0 0 0.213315040111379
0

0101000
+234 0 -232 0 *
Ve
1e-07
19.7989964315325 17.9973648151028 0
0 0

0101101
*
Ed
 1e-07 1 1 0
1  226 0 0 0.0999999999999908
0

0101000
+232 0 -230 0 *
Ve
1e-07
19.7989964315325 14.2372916238135 0
0 0

0101101
*
Ed
 1e-07 1 1 0
1  227 0 0 3.76007319128927
0

0101000
+230 0 -228 0 *
Ed
 1e-07 1 1 0
1  228 0 0 0.199999999999992
0

0101000
+228 0 -265 0 *
Wi

0101100
+263 0 +261 0 +259 0 +257 0 +255 0 +253 0 +251 0 +249 0 +247 0 +245 0 
+243 0 +241 0 +239 0 +237 0 +235 0 +233 0 +231 0 +229 0 +227 0 +226 0 
*
Ve
1e-07
51.8280408762316 14.2372916238135 0
0 0

0101101
*
Ve
1e-07
51.8280408762316 17.5840497749914 0
0 0

0101101
*
Ed
 1e-07 1 1 0
1  229 0 0 3.3467581511779
0

0101000
+224 0 -223 0 *
Ve
1e-07
56.1820317282428 17.5840497749914 0
0 0

0101101
*
Ed
 1e-07 1 1 0
1  230 0 0 4.35399085201112
0

0101000
+223 0 -221 0 *
Ve
1e-07
56.1820317282428 8.10057732162194 0
0 0

0101101
*
Ed
 1e-07 1 1 0
1  231 0 0 9.48347245336949
0

0101000
+221 0 -219 0 *
Ve
1e-07
51.8280408762316 8.10057732162192 0
0 0

0101101
*
Ed
 1e-07 1 1 0
1  232 0 0 4.35399085201112
0

0101000
+219 0 -217 0 *
Ve
1e-07
51.8280408762316 13.1702916238135 0
0 0

0101101
*
Ed
 1e-07 1 1 0
1  233 0 0 5.06971430219161
0

0101000
+217 0 -215 0 *
Ve
1e-07
51.6280408762317 13.1702916238135 0
0 0

0101101
*
Ed
 1e-07 1 1 0
1  234 0 0 0.199999999999989
0

0101000
+215 0 -213 0 *
Ve
1e-07
51.6280408762317 7.90057732162192 0
0 0

0101101
*
Ed
 1e-07 1 1 0
1  235 0 0 5.26971430219161
0

0101000
+213 0 -211 0 *
Ve
1e-07
56.3820317282428 7.90057732162192 0
0 0

0101101
*
Ed
 1e-07 1 1 0
1  236 0 0 4.7539908520111
0

0101000
+211 0 -209 0 *
Ve
1e-07
56.3820317282428 20.3525402536824 0
0 0

0101101
*
Ed
 1e-07 1 1 0
1  237 0 0 12.4519629320604
0

0101000
+209 0 -207 0 *
Ve
1e-07
51.6280408762317 20.3525402536824 0
0 0

0101101
*
Ed
 1e-07 1 1 0
1  238 0 0 4.7539908520111
0

0101000
+207 0 -205 0 *
Ve
1e-07
51.6280408762317 19.0643648151028 0
0 0

0101101
*
Ed
 1e-07 1 1 0
1  239 0 0 1.28817543857955
0

0101000
+205 0 -203 0 *
Ve
1e-07
51.7280408762316 19.0643648151028 0
0 0

0101101
*
Ed
 1e-07 1 1 0
1  240 0 0 0.0999999999999659
0

0101000
+203 0 -201 0 *
Ve
1e-07
51.7280408762316 20.2525402536824 0
0 0

0101101
*
Ed
 1e-07 1 1 0
1  241 0 0 1.18817543857956
0

0101000
+201 0 -199 0 *
Ve
1e-07
56.2820317282428 20.2525402536824 0
0 0

0101101
*
Ed
 1e-07 1 1 0
1  242 0 0 4.55399085201114
0

0101000
+199 0 -197 0 *
Ve
1e-07
56.2820317282428 17.7840497749914 0
0 0

0101101
*
Ed
 1e-07 1 1 0
1  243 0 0 2.46849047869093
0

0101000
+197 0 -195 0 *
Ve
1e-07
51.7280408762316 17.7840497749914 0
0 0

0101101
*
Ed
 1e-07 1 1 0
1  244 0 0 4.55399085201114
0

0101000
+195 0 -193 0 *
Ve
1e-07
51.7280408762316 17.9973648151028 0
0 0

0101101
*
Ed
 1e-07 1 1 0
1  245 0 0 0.213315040111379
0

0101000
+193 0 -191 0 *
Ve
1e-07
51.6280408762317 17.9973648151028 0
0 0

0101101
*
Ed
 1e-07 1 1 0
1  246 0 0 0.0999999999999659
0

0101000
+191 0 -189 0 *
Ve
1e-07
51.6280408762317 14.2372916238135 0
0 0

0101101
*
Ed
 1e-07 1 1 0
1  247 0 0 3.76007319128927
0

0101000
+189 0 -187 0 *
Ed
 1e-07 1 1 0
1  248 0 0 0.199999999999989
0

0101000
+187 0 -224 0 *
Wi

0101100
+222 0 +220 0 +218 0 +216 0 +214 0 +212 0 +210 0 +208 0 +206 0 +204 0 
+202 0 +200 0 +198 0 +196 0 +194 0 +192 0 +190 0 +188 0 +186 0 +185 0 
*
Ve
1e-07
44.1491478668911 19.1940880355417 0
0 0

0101101
*
Ve
1e-07
44.1491478668911 19.0940822460459 0
0 0

0101101
*
Ed
 1e-07 1 1 0
1  249 0 0 0.100005789495839
0

0101000
+183 0 -182 0 *
Ve
1e-07
44.383892538809 19.0940880355417 0
0 0

0101101
*
Ed
 1e-07 1 1 0
1  250 0 0 0.234744671989316
0

0101000
+182 0 -180 0 *
Ve
1e-07
44.3775177295848 14.2976493413711 0
0 0

0101101
*
Ed
 1e-07 1 1 0
1  251 0 0 4.79644293045692
0

0101000
+180 0 -178 0 *
Ve
1e-07
44.1427730576669 14.2976493413711 0
0 0

0101101
*
Ed
 1e-07 1 1 0
1  252 0 0 0.234744671917873
0

0101000
+178 0 -176 0 *
Ve
1e-07
44.1427730576669 14.1976493413711 0
0 0

0101101
*
Ed
 1e-07 1 1 0
1  253 0 0 0.10000000000001
0

0101000
+176 0 -174 0 *
Ve
1e-07
49.4406983692677 14.1976493413711 0
0 0

0101101
*
Ed
 1e-07 1 1 0
1  254 0 0 5.2979253116008
0

0101000
+174 0 -172 0 *
Ve
1e-07
49.4406983692677 19.1940880355417 0
0 0

0101101
*
Ed
 1e-07 1 1 0
1  255 0 0 4.99643869417067
0

0101000
+172 0 -170 0 *
Ve
1e-07
45.7908101383424 19.1940880355417 0
0 0

0101101
*
Ed
 1e-07 1 1 0
1  256 0 0 3.64988823092526
0

0101000
+170 0 -168 0 *
Ve
1e-07
45.7908101383424 19.0940880355417 0
0 0

0101101
*
Ed
 1e-07 1 1 0
1  257 0 0 0.100000000000001
0

0101000
+168 0 -166 0 *
Ve
1e-07
49.3406983692677 19.0940880355417 0
0 0

0101101
*
Ed
 1e-07 1 1 0
1  258 0 0 3.54988823092525
0

0101000
+166 0 -164 0 *
Ve
1e-07
49.3406983692677 14.2976493413711 0
0 0

0101101
*
Ed
 1e-07 1 1 0
1  259 0 0 4.79643869417066
0

0101000
+164 0 -162 0 *
Ve
1e-07
44.4774642619874 14.297649312722 0
0 0

0101101
*
Ed
 1e-07 1 1 0
1  260 0 0 4.86323410728023
0

0101000
+162 0 -160 0 *
Ve
1e-07
44.4811240338384 19.0940880355417 0
0 0

0101101
*
Ed
 1e-07 1 1 0
1  261 0 0 4.79644011905649
0

0101000
+160 0 -158 0 *
Ve
1e-07
44.7238101383425 19.0940880355417 0
0 0

0101101
*
Ed
 1e-07 1 1 0
1  262 0 0 0.242686104504074
0

0101000
+158 0 -156 0 *
Ve
1e-07
44.7238101383424 19.1940880355417 0
0 0

0101101
*
Ed
 1e-07 1 1 0
1  263 0 0 0.100000000000001
0

0101000
+156 0 -154 0 *
Ed
 1e-07 1 1 0
1  264 0 0 0.574662271451317
0

0101000
+154 0 -183 0 *
Wi

0101100
+181 0 +179 0 +177 0 +175 0 +173 0 +171 0 +169 0 +167 0 +165 0 +163 0 
+161 0 +159 0 +157 0 +155 0 +153 0 +152 0 *
Ve
1e-07
43.0821478668911 19.1940880355417 0
0 0

0101101
*
Ve
1e-07
43.0821478668911 19.0940559306795 0
0 0

0101101
*
Ed
 1e-07 1 1 0
1  265 0 0 0.100032104862279
0

0101000
+150 0 -149 0 *
Ve
1e-07
40.0433869084572 19.0939809858734 0
0 0

0101101
*
Ed
 1e-07 1 1 0
1  266 0 0 3.03876095935803
0

0101000
+149 0 -147 0 *
Ve
1e-07
40.0433869084572 14.2976493413711 0
0 0

0101101
*
Ed
 1e-07 1 1 0
1  267 0 0 4.79633164450226
0

0101000
+147 0 -145 0 *
Ve
1e-07
43.0757730576669 14.2976493413711 0
0 0

0101101
*
Ed
 1e-07 1 1 0
1  268 0 0 3.03238614920964
0

0101000
+145 0 -143 0 *
Ve
1e-07
43.0757730576669 14.1976493413711 0
0 0

0101101
*
Ed
 1e-07 1 1 0
1  269 0 0 0.0999999999999996
0

0101000
+143 0 -141 0 *
Ve
1e-07
39.9433869084572 14.1976493413711 0
0 0

0101101
*
Ed
 1e-07 1 1 0
1  270 0 0 3.13238614920965
0

0101000
+141 0 -139 0 *
Ve
1e-07
39.9433869084572 19.1940880355417 0
0 0

0101101
*
Ed
 1e-07 1 1 0
1  271 0 0 4.99643869417067
0

0101000
+139 0 -137 0 *
Ed
 1e-07 1 1 0
1  272 0 0 3.13876095843389
0

0101000
+137 0 -150 0 *
Wi

0101100
+148 0 +146 0 +144 0 +142 0 +140 0 +138 0 +136 0 +135 0 *
Ve
1e-07
36.7558795245274 19.1940880355417 0
0 0

0101101
*
Ve
1e-07
37.2059877963856 19.1940880355417 0
0 0

0101101
*
Ed
 1e-07 1 1 0
1  273 0 0 0.450108271858262
0

0101000
+133 0 -132 0 *
Ve
1e-07
37.2059877963856 14.1972036530248 0
0 0

0101101
*
Ed
 1e-07 1 1 0
1  274 0 0 4.99688438251692
0

0101000
+132 0 -130 0 *
Ve
1e-07
36.7558795245274 14.1972036530248 0
0 0

0101101
*
Ed
 1e-07 1 1 0
1  275 0 0 0.450108271858255
0

0101000
+130 0 -128 0 *
Ve
1e-07
36.7558795245274 14.2972036530248 0
0 0

0101101
*
Ed
 1e-07 1 1 0
1  276 0 0 0.099999999999989
0

0101000
+128 0 -126 0 *
Ve
1e-07
37.1059877963856 14.2972036530248 0
0 0

0101101
*
Ed
 1e-07 1 1 0
1  277 0 0 0.350108271858247
0

0101000
+126 0 -124 0 *
Ve
1e-07
37.1059877963856 19.0940880355417 0
0 0

0101101
*
Ed
 1e-07 1 1 0
1  278 0 0 4.79688438251693
0

0101000
+124 0 -122 0 *
Ve
1e-07
36.7558795245274 19.0940880355417 0
0 0

0101101
*
Ed
 1e-07 1 1 0
1  279 0 0 0.35010827185824
0

0101000
+122 0 -120 0 *
Ed
 1e-07 1 1 0
1  280 0 0 0.100000000000001
0

0101000
+120 0 -133 0 *
Wi

0101100
+131 0 +129 0 +127 0 +125 0 +123 0 +121 0 +119 0 +118 0 *
Ve
1e-07
23.9595421340684 19.1940880355417 0
0 0

0101101
*
Ve
1e-07
23.9595421340684 19.0940880355417 0
0 0

0101101
*
Ed
 1e-07 1 1 0
1  281 0 0 0.100000000000001
0

0101000
+116 0 -115 0 *
Ve
1e-07
23.4397593683808 19.0940880355417 0
0 0

0101101
*
Ed
 1e-07 1 1 0
1  282 0 0 0.519782765687602
0

0101000
+115 0 -113 0 *
Ve
1e-07
23.4397593683808 14.2972036530248 0
0 0

0101101
*
Ed
 1e-07 1 1 0
1  283 0 0 4.79688438251692
0

0101000
+113 0 -111 0 *
Ve
1e-07
31.6537925984013 14.2972036530248 0
0 0

0101101
*
Ed
 1e-07 1 1 0
1  284 0 0 8.21403323002053
0

0101000
+111 0 -109 0 *
Ve
1e-07
31.6537925984013 19.0940880355417 0
0 0

0101101
*
Ed
 1e-07 1 1 0
1  285 0 0 4.79688438251692
0

0101000
+109 0 -107 0 *
Ve
1e-07
30.1722088007351 19.0940880355417 0
0 0

0101101
*
Ed
 1e-07 1 1 0
1  286 0 0 1.48158379766622
0

0101000
+107 0 -105 0 *
Ve
1e-07
30.172208800735 19.1940880355417 0
0 0

0101101
*
Ed
 1e-07 1 1 0
1  287 0 0 0.100000000000001
0

0101000
+105 0 -103 0 *
Ve
1e-07
33.0853795245274 19.1940880355417 0
0 0

0101101
*
Ed
 1e-07 1 1 0
1  288 0 0 2.91317072379239
0

0101000
+103 0 -101 0 *
Ve
1e-07
33.0853795245274 19.0940880355417 0
0 0

0101101
*
Ed
 1e-07 1 1 0
1  289 0 0 0.100000000000001
0

0101000
+101 0 -99 0 *
Ve
1e-07
31.7537925984013 19.0940880355417 0
0 0

0101101
*
Ed
 1e-07 1 1 0
1  290 0 0 1.33158692612612
0

0101000
+99 0 -97 0 *
Ve
1e-07
31.7537925984013 14.2972036530248 0
0 0

0101101
*
Ed
 1e-07 1 1 0
1  291 0 0 4.79688438251692
0

0101000
+97 0 -95 0 *
Ve
1e-07
35.6888795245274 14.2972036530248 0
0 0

0101101
*
Ed
 1e-07 1 1 0
1  292 0 0 3.93508692612612
0

0101000
+95 0 -93 0 *
Ve
1e-07
35.6888795245274 14.1972036530248 0
0 0

0101101
*
Ed
 1e-07 1 1 0
1  293 0 0 0.099999999999989
0

0101000
+93 0 -91 0 *
Ve
1e-07
23.3397593683808 14.1972036530248 0
0 0

0101101
*
Ed
 1e-07 1 1 0
1  294 0 0 12.3491201561466
0

0101000
+91 0 -89 0 *
Ve
1e-07
23.3397593683808 19.1940880355417 0
0 0

0101101
*
Ed
 1e-07 1 1 0
1  295 0 0 4.99688438251692
0

0101000
+89 0 -87 0 *
Ed
 1e-07 1 1 0
1  296 0 0 0.619782765687599
0

0101000
+87 0 -116 0 *
Wi

0101100
+114 0 +112 0 +110 0 +108 0 +106 0 +104 0 +102 0 +100 0 +98 0 +96 0 
+94 0 +92 0 +90 0 +88 0 +86 0 +85 0 *
Ve
1e-07
26.9062268598567 8.00057732162193 0
0 0

0101101
*
Ve
1e-07
31.6101810933257 8.00057732162193 0
0 0

0101101
*
Ed
 1e-07 1 1 0
1  297 0 0 4.70395423346904
0

0101000
+83 0 -82 0 *
Ve
1e-07
31.6101810933257 7.90057732162193 0
0 0

0101101
*
Ed
 1e-07 1 1 0
1  298 0 0 0.0999999999999979
0

0101000
+82 0 -80 0 *
Ve
1e-07
26.9062268598567 7.90057732162193 0
0 0

0101101
*
Ed
 1e-07 1 1 0
1  299 0 0 4.70395423346904
0

0101000
+80 0 -78 0 *
Ed
 1e-07 1 1 0
1  300 0 0 0.0999999999999979
0

0101000
+78 0 -83 0 *
Wi

0101100
+81 0 +79 0 +77 0 +76 0 *
Ve
1e-07
39.4974180703472 7.90057732162193 0
0 0

0101101
*
Ve
1e-07
39.4974180703472 8.10057732162193 0
0 0

0101101
*
Ed
 1e-07 1 1 0
1  301 0 0 0.200000000000003
0

0101000
+74 0 -73 0 *
Ve
1e-07
39.8433869084572 8.10057732162193 0
0 0

0101101
*
Ed
 1e-07 1 1 0
1  302 0 0 0.345968838110011
0

0101000
+73 0 -71 0 *
Ve
1e-07
39.8433869084572 11.3754766567299 0
0 0

0101101
*
Ed
 1e-07 1 1 0
1  303 0 0 3.27489933510799
0

0101000
+71 0 -69 0 *
Ve
1e-07
37.3059877963856 11.3754766567299 0
0 0

0101101
*
Ed
 1e-07 1 1 0
1  304 0 0 2.53739911207158
0

0101000
+69 0 -67 0 *
Ve
1e-07
37.3059877963856 8.10057732162193 0
0 0

0101101
*
Ed
 1e-07 1 1 0
1  305 0 0 3.27489933510799
0

0101000
+67 0 -65 0 *
Ve
1e-07
37.6874180703472 8.10057732162193 0
0 0

0101101
*
Ed
 1e-07 1 1 0
1  306 0 0 0.381430273961548
0

0101000
+65 0 -63 0 *
Ve
1e-07
37.6874180703472 7.90057732162193 0
0 0

0101101
*
Ed
 1e-07 1 1 0
1  307 0 0 0.200000000000003
0

0101000
+63 0 -61 0 *
Ve
1e-07
33.4201810933257 7.90057732162193 0
0 0

0101101
*
Ed
 1e-07 1 1 0
1  308 0 0 4.26723697702144
0

0101000
+61 0 -59 0 *
Ve
1e-07
33.4201810933257 8.00057732162193 0
0 0

0101101
*
Ed
 1e-07 1 1 0
1  309 0 0 0.100000000000001
0

0101000
+59 0 -57 0 *
Ve
1e-07
37.1059877963856 8.00057732162193 0
0 0

0101101
*
Ed
 1e-07 1 1 0
1  310 0 0 3.6858067030599
0

0101000
+57 0 -55 0 *
Ve
1e-07
37.1059877963856 11.4754766567299 0
0 0

0101101
*
Ed
 1e-07 1 1 0
1  311 0 0 3.47489933510799
0

0101000
+55 0 -53 0 *
Ve
1e-07
23.4397593683808 11.4754766567299 0
0 0

0101101
*
Ed
 1e-07 1 1 0
1  312 0 0 13.6662284280049
0

0101000
+53 0 -51 0 *
Ve
1e-07
23.4397593683808 8.00057732162192 0
0 0

0101101
*
Ed
 1e-07 1 1 0
1  313 0 0 3.474899335108
0

0101000
+51 0 -49 0 *
Ve
1e-07
25.0962268598567 8.00057732162192 0
0 0

0101101
*
Ed
 1e-07 1 1 0
1  314 0 0 1.65646749147591
0

0101000
+49 0 -47 0 *
Ve
1e-07
25.0962268598567 7.90057732162193 0
0 0

0101101
*
Ed
 1e-07 1 1 0
1  315 0 0 0.0999999999999872
0

0101000
+47 0 -45 0 *
Ve
1e-07
23.3397593683808 7.90057732162193 0
0 0

0101101
*
Ed
 1e-07 1 1 0
1  316 0 0 1.75646749147591
0

0101000
+45 0 -43 0 *
Ve
1e-07
23.3397593683808 11.5754766567299 0
0 0

0101101
*
Ed
 1e-07 1 1 0
1  317 0 0 3.67489933510799
0

0101000
+43 0 -41 0 *
Ve
1e-07
40.3588156512919 11.5754766567299 0
0 0

0101101
*
Ed
 1e-07 1 1 0
1  318 0 0 17.0190562829112
0

0101000
+41 0 -39 0 *
Ve
1e-07
40.3588156512919 11.4754766567299 0
0 0

0101101
*
Ed
 1e-07 1 1 0
1  319 0 0 0.0999999999999996
0

0101000
+39 0 -37 0 *
Ve
1e-07
40.0433869084572 11.4754766567299 0
0 0

0101101
*
Ed
 1e-07 1 1 0
1  320 0 0 0.315428742834669
0

0101000
+37 0 -35 0 *
Ve
1e-07
40.0433869084572 8.00057732162192 0
0 0

0101101
*
Ed
 1e-07 1 1 0
1  321 0 0 3.474899335108
0

0101000
+35 0 -33 0 *
Ve
1e-07
44.3775177868217 8.00057732162192 0
0 0

0101101
*
Ed
 1e-07 1 1 0
1  322 0 0 4.33413087836444
0

0101000
+33 0 -31 0 *
Ve
1e-07
44.3775177868217 11.4754766567299 0
0 0

0101101
*
Ed
 1e-07 1 1 0
1  323 0 0 3.474899335108
0

0101000
+31 0 -29 0 *
Ve
1e-07
41.4258156512919 11.4754766567299 0
0 0

0101101
*
Ed
 1e-07 1 1 0
1  324 0 0 2.95170213552979
0

0101000
+29 0 -27 0 *
Ve
1e-07
41.4258156512919 11.5754766567299 0
0 0

0101101
*
Ed
 1e-07 1 1 0
1  325 0 0 0.100000000000009
0

0101000
+27 0 -25 0 *
Ve
1e-07
44.7789842215624 11.5754766567299 0
0 0

0101101
*
Ed
 1e-07 1 1 0
1  326 0 0 3.35316857027054
0

0101000
+25 0 -23 0 *
Ve
1e-07
44.7789842215624 11.4754766567299 0
0 0

0101101
*
Ed
 1e-07 1 1 0
1  327 0 0 0.100000000000009
0

0101000
+23 0 -21 0 *
Ve
1e-07
44.4775177868217 11.4754766567299 0
0 0

0101101
*
Ed
 1e-07 1 1 0
1  328 0 0 0.30146643474076
0

0101000
+21 0 -19 0 *
Ve
1e-07
44.4775177868217 8.00057732162192 0
0 0

0101101
*
Ed
 1e-07 1 1 0
1  329 0 0 3.474899335108
0

0101000
+19 0 -17 0 *
Ve
1e-07
49.3406983692677 8.00057732162192 0
0 0

0101101
*
Ed
 1e-07 1 1 0
1  330 0 0 4.86318058244602
0

0101000
+17 0 -15 0 *
Ve
1e-07
49.3406983692677 11.4754766567299 0
0 0

0101101
*
Ed
 1e-07 1 1 0
1  331 0 0 3.474899335108
0

0101000
+15 0 -13 0 *
Ve
1e-07
45.8459842215624 11.4754766567299 0
0 0

0101101
*
Ed
 1e-07 1 1 0
1  332 0 0 3.49471414770524
0

0101000
+13 0 -11 0 *
Ve
1e-07
45.8459842215625 11.5754766567299 0
0 0

0101101
*
Ed
 1e-07 1 1 0
1  333 0 0 0.100000000000009
0

0101000
+11 0 -9 0 *
Ve
1e-07
49.4406983692677 11.5754766567299 0
0 0

0101101
*
Ed
 1e-07 1 1 0
1  334 0 0 3.59471414770524
0

0101000
+9 0 -7 0 *
Ve
1e-07
49.4406983692677 7.90057732162193 0
0 0

0101101
*
Ed
 1e-07 1 1 0
1  335 0 0 3.674899335108
0

0101000
+7 0 -5 0 *
Ed
 1e-07 1 1 0
1  336 0 0 9.94328029892051
0

0101000
+5 0 -74 0 *
Wi

0101100
+72 0 +70 0 +68 0 +66 0 +64 0 +62 0 +60 0 +58 0 +56 0 +54 0 
+52 0 +50 0 +48 0 +46 0 +44 0 +42 0 +40 0 +38 0 +36 0 +34 0 
+32 0 +30 0 +28 0 +26 0 +24 0 +22 0 +20 0 +18 0 +16 0 +14 0 
+12 0 +10 0 +8 0 +6 0 +4 0 +3 0 *
Fa
0  1e-07 1 0

1111000
+266 0 -225 0 +184 0 +151 0 -134 0 -117 0 -84 0 -75 0 -2 0 *

+1 0 