
CASCADE Topology V3, (c) Open Cascade
Locations 0
Curve2ds 0
Curves 0
Polygon3D 0
PolygonOnTriangulations 0
Surfaces 0
Triangulations 0

TShapes 41
Ve
1e-07
41.2830144281742 17.8847115536924 0
0 0

0101101
*
Ve
1e-07
41.2830144281742 17.0939136115602 0
0 0

0101101
*
Ve
1e-07
41.2830144281742 16.3031156694281 0
0 0

0101101
*
Ve
1e-07
41.2830144281742 15.512317727296 0
0 0

0101101
*
Ve
1e-07
43.1316666666667 15.512317727296 0
0 0

0101101
*
Ve
1e-07
43.1316666666667 16.3031156694281 0
0 0

0101101
*
Ve
1e-07
43.1316666666667 17.0939136115602 0
0 0

0101101
*
Ve
1e-07
43.1316666666667 17.8847115536924 0
0 0

0101101
*
Ve
1e-07
45.9185144281742 17.8847115536924 0
0 0

0101101
*
Ve
1e-07
45.9185144281742 17.0939136115602 0
0 0

0101101
*
Ve
1e-07
45.9185144281742 16.3031156694281 0
0 0

0101101
*
Ve
1e-07
45.9185144281742 15.512317727296 0
0 0

0101101
*
Ve
1e-07
47.7671666666666 15.512317727296 0
0 0

0101101
*
Ve
1e-07
47.7671666666666 16.3031156694281 0
0 0

0101101
*
Ve
1e-07
47.7671666666666 17.0939136115602 0
0 0

0101101
*
Ve
1e-07
47.7671666666667 17.8847115536924 0
0 0

0101101
*
Ve
1e-07
27.2008447882563 17.6188255626388 0
0 0

0101101
*
Ve
1e-07
26.4292010314355 17.6188255626388 0
0 0

0101101
*
Ve
1e-07
25.6575572746147 17.6188255626388 0
0 0

0101101
*
Ve
1e-07
24.8859135177939 17.6188255626389 0
0 0

0101101
*
Ve
1e-07
30.2874198155395 17.6188255626388 0
0 0

0101101
*
Ve
1e-07
29.5157760587187 17.6188255626388 0
0 0

0101101
*
Ve
1e-07
28.7441323018979 17.6188255626388 0
0 0

0101101
*
Ve
1e-07
27.9724885450771 17.6188255626389 0
0 0

0101101
*
Ve
1e-07
24.8859135177939 15.7727661042845 0
0 0

0101101
*
Ve
1e-07
25.6575572746147 15.7727661042845 0
0 0

0101101
*
Ve
1e-07
26.4292010314355 15.7727661042845 0
0 0

0101101
*
Ve
1e-07
27.2008447882563 15.7727661042845 0
0 0

0101101
*
Ve
1e-07
27.9724885450771 15.7727661042845 0
0 0

0101101
*
Ve
1e-07
28.7441323018979 15.7727661042845 0
0 0

0101101
*
Ve
1e-07
29.5157760587187 15.7727661042845 0
0 0

0101101
*
Ve
1e-07
30.2874198155395 15.7727661042845 0
0 0

0101101
*
Ve
1e-07
35.9073506023208 17.1469068082282 0
0 0

0101101
*
Ve
1e-07
35.8954951833078 16.2933166392939 0
0 0

0101101
*
Ve
1e-07
34.8157724687975 15.2831788406844 0
0 0

0101101
*
Ve
1e-07
34.0515581823419 15.2750348162587 0
0 0

0101101
*
Ve
1e-07
32.9561184730043 16.3731496719989 0
0 0

0101101
*
Ve
1e-07
32.9521666666667 17.1990771965696 0
0 0

0101101
*
Ve
1e-07
34.0896572263212 18.2044029573622 0
0 0

0101101
*
Ve
1e-07
34.9100386460304 18.2060189684725 0
0 0

0101101
*
Co

1100000
+41 0 +40 0 +39 0 +38 0 +37 0 +36 0 +35 0 +34 0 +33 0 +32 0 
+31 0 +30 0 +29 0 +28 0 +27 0 +26 0 +25 0 +24 0 +23 0 +22 0 
+21 0 +20 0 +19 0 +18 0 +17 0 +16 0 +15 0 +14 0 +13 0 +12 0 
+11 0 +10 0 +9 0 +8 0 +7 0 +6 0 +5 0 +4 0 +3 0 +2 0 
*

+1 0 