
CASCADE Topology V3, (c) Open Cascade
Locations 0
Curve2ds 0
Curves 0
Polygon3D 0
PolygonOnTriangulations 0
Surfaces 0
Triangulations 0

TShapes 57
Ve
1e-07
64.0690919678271 2.40992808030305 0
0 0

0101101
*
Ve
1e-07
64.0572365488141 1.55633791136871 0
0 0

0101101
*
Ve
1e-07
62.9900470985324 0.548768112627727 0
0 0

0101101
*
Ve
1e-07
62.2258328120768 0.540624088202033 0
0 0

0101101
*
Ve
1e-07
61.1178598385106 1.57016923355052 0
0 0

0101101
*
Ve
1e-07
61.1139080321729 2.39609675812125 0
0 0

0101101
*
Ve
1e-07
62.19774924545 3.44882556263886 0
0 0

0101101
*
Ve
1e-07
63.0181306651592 3.45044157374917 0
0 0

0101101
*
Ve
1e-07
59.8357586344937 2.40992808030305 0
0 0

0101101
*
Ve
1e-07
59.8239032154807 1.55633791136871 0
0 0

0101101
*
Ve
1e-07
58.756713765199 0.548768112627727 0
0 0

0101101
*
Ve
1e-07
57.9924994787434 0.540624088202033 0
0 0

0101101
*
Ve
1e-07
56.8845265051773 1.57016923355052 0
0 0

0101101
*
Ve
1e-07
56.8805746988396 2.39609675812125 0
0 0

0101101
*
Ve
1e-07
57.9644159121166 3.44882556263886 0
0 0

0101101
*
Ve
1e-07
58.7847973318258 3.45044157374917 0
0 0

0101101
*
Ve
1e-07
15.075 3.04479622140655 0
0 0

0101101
*
Ve
1e-07
15.063144580987 2.1912060524722 0
0 0

0101101
*
Ve
1e-07
13.9959551307053 1.18363625373122 0
0 0

0101101
*
Ve
1e-07
13.2317408442497 1.17549222930553 0
0 0

0101101
*
Ve
1e-07
12.1237678706836 2.205037374654 0
0 0

0101101
*
Ve
1e-07
12.1198160643459 3.03096489922473 0
0 0

0101101
*
Ve
1e-07
13.2036572776229 4.08369370374235 0
0 0

0101101
*
Ve
1e-07
14.0240386973321 4.08530971485267 0
0 0

0101101
*
Ve
1e-07
10.8416666666667 3.04479622140655 0
0 0

0101101
*
Ve
1e-07
10.8298112476537 2.1912060524722 0
0 0

0101101
*
Ve
1e-07
9.76262179737196 1.18363625373122 0
0 0

0101101
*
Ve
1e-07
8.99840751091639 1.17549222930553 0
0 0

0101101
*
Ve
1e-07
7.89043453735023 2.205037374654 0
0 0

0101101
*
Ve
1e-07
7.88648273101256 3.03096489922473 0
0 0

0101101
*
Ve
1e-07
8.97032394428958 4.08369370374235 0
0 0

0101101
*
Ve
1e-07
9.79070536399877 4.08530971485267 0
0 0

0101101
*
Ve
1e-07
64.0690919678271 6.32576141363639 0
0 0

0101101
*
Ve
1e-07
64.0572365488141 5.47217124470204 0
0 0

0101101
*
Ve
1e-07
62.9900470985324 4.46460144596106 0
0 0

0101101
*
Ve
1e-07
62.2258328120768 4.45645742153537 0
0 0

0101101
*
Ve
1e-07
61.1178598385106 5.48600256688385 0
0 0

0101101
*
Ve
1e-07
61.1139080321729 6.31193009145458 0
0 0

0101101
*
Ve
1e-07
62.19774924545 7.36465889597219 0
0 0

0101101
*
Ve
1e-07
62.8911306651592 7.34510824041584 0
0 0

0101101
*
Ve
1e-07
24.8868506023208 26.6652297248949 0
0 0

0101101
*
Ve
1e-07
24.8749951833078 25.8116395559605 0
0 0

0101101
*
Ve
1e-07
23.7952724687975 24.8015017573511 0
0 0

0101101
*
Ve
1e-07
23.0310581823419 24.7933577329254 0
0 0

0101101
*
Ve
1e-07
21.9356184730043 25.8914725886655 0
0 0

0101101
*
Ve
1e-07
21.9316666666667 26.7174001132362 0
0 0

0101101
*
Ve
1e-07
23.0691572263212 27.7227258740289 0
0 0

0101101
*
Ve
1e-07
23.8895386460304 27.7243418851392 0
0 0

0101101
*
Ve
1e-07
30.3901839356541 26.6652297248949 0
0 0

0101101
*
Ve
1e-07
30.3783285166411 25.8116395559605 0
0 0

0101101
*
Ve
1e-07
29.2986058021309 24.8015017573511 0
0 0

0101101
*
Ve
1e-07
28.5343915156753 24.7933577329254 0
0 0

0101101
*
Ve
1e-07
27.4389518063377 25.8914725886655 0
0 0

0101101
*
Ve
1e-07
27.435 26.7174001132362 0
0 0

0101101
*
Ve
1e-07
28.5724905596545 27.7227258740289 0
0 0

0101101
*
Ve
1e-07
29.3928719793637 27.7243418851392 0
0 0

0101101
*
Co

1100000
+57 0 +56 0 +55 0 +54 0 +53 0 +52 0 +51 0 +50 0 +49 0 +48 0 
+47 0 +46 0 +45 0 +44 0 +43 0 +42 0 +41 0 +40 0 +39 0 +38 0 
+37 0 +36 0 +35 0 +34 0 +33 0 +32 0 +31 0 +30 0 +29 0 +28 0 
+27 0 +26 0 +25 0 +24 0 +23 0 +22 0 +21 0 +20 0 +19 0 +18 0 
+17 0 +16 0 +15 0 +14 0 +13 0 +12 0 +11 0 +10 0 +9 0 +8 0 
+7 0 +6 0 +5 0 +4 0 +3 0 +2 0 *

+1 0 