
CASCADE Topology V3, (c) Open Cascade
Locations 0
Curve2ds 0
Curves 0
Polygon3D 0
PolygonOnTriangulations 0
Surfaces 0
Triangulations 0

TShapes 471
Ve
1e-07
9.90393750000003 26.2379088959722 0
0 0

0101101
*
Ve
1e-07
11.6607708333334 25.5394088959722 0
0 0

0101101
*
Ve
1e-07
13.7398333333333 25.5394088959722 0
0 0

0101101
*
Ve
1e-07
9.90393750000003 23.1475755626389 0
0 0

0101101
*
Ve
1e-07
11.6607708333334 22.4490755626389 0
0 0

0101101
*
Ve
1e-07
54.9115 25.1745755626389 0
0 0

0101101
*
Ve
1e-07
54.3763333333333 23.0729088959722 0
0 0

0101101
*
Ve
1e-07
54.3763333333333 21.2849088959722 0
0 0

0101101
*
Ve
1e-07
52.4561666666667 25.1745755626389 0
0 0

0101101
*
Ve
1e-07
52.8311666666667 23.0729088959722 0
0 0

0101101
*
Ve
1e-07
52.8311666666667 21.2849088959722 0
0 0

0101101
*
Ve
1e-07
35.7345 25.1745755626389 0
0 0

0101101
*
Ve
1e-07
35.1993333333333 23.0729088959722 0
0 0

0101101
*
Ve
1e-07
35.1993333333333 20.0995755626389 0
0 0

0101101
*
Ve
1e-07
33.6541666666667 20.0995755626389 0
0 0

0101101
*
Ve
1e-07
31.4750833333333 20.0995755626389 0
0 0

0101101
*
Ve
1e-07
28.9139166666667 20.0995755626389 0
0 0

0101101
*
Ve
1e-07
35.1993333333333 21.2849088959722 0
0 0

0101101
*
Ve
1e-07
33.2791666666667 25.1745755626389 0
0 0

0101101
*
Ve
1e-07
33.6541666666667 23.0729088959722 0
0 0

0101101
*
Ve
1e-07
33.6541666666667 21.2849088959722 0
0 0

0101101
*
Ve
1e-07
19.3303333333333 25.1745755626389 0
0 0

0101101
*
Ve
1e-07
18.7951666666667 23.0729088959722 0
0 0

0101101
*
Ve
1e-07
56.0178333333333 1.46092089109418 0
0 0

0101101
*
Ve
1e-07
56.0178333333333 4.16107556263886 0
0 0

0101101
*
Ve
1e-07
54.8430833333333 1.46092089109418 0
0 0

0101101
*
Ve
1e-07
54.8430833333333 4.16107556263886 0
0 0

0101101
*
Ve
1e-07
53.2555833333333 1.46092089109418 0
0 0

0101101
*
Ve
1e-07
53.2555833333333 4.16107556263886 0
0 0

0101101
*
Ve
1e-07
51.9855833333334 1.46092089109418 0
0 0

0101101
*
Ve
1e-07
51.9855833333334 4.16107556263886 0
0 0

0101101
*
Ve
1e-07
51.1389166666667 2.84874222930553 0
0 0

0101101
*
Ve
1e-07
52.5359166666667 2.84874222930553 0
0 0

0101101
*
Ve
1e-07
54.1234166666667 2.84874222930553 0
0 0

0101101
*
Ve
1e-07
51.1389166666667 6.06607556263886 0
0 0

0101101
*
Ve
1e-07
52.5359166666667 6.06607556263886 0
0 0

0101101
*
Ve
1e-07
54.1234166666667 6.06607556263886 0
0 0

0101101
*
Ve
1e-07
55.43575 2.84874222930553 0
0 0

0101101
*
Ve
1e-07
56.0178333333333 2.84874222930553 0
0 0

0101101
*
Ve
1e-07
50.35575 1.46092089109418 0
0 0

0101101
*
Ve
1e-07
50.35575 4.16107556263886 0
0 0

0101101
*
Ve
1e-07
56.0178333333333 6.81608755776085 0
0 0

0101101
*
Ve
1e-07
54.1234166666667 6.81608755776085 0
0 0

0101101
*
Ve
1e-07
52.51475 6.81608755776085 0
0 0

0101101
*
Ve
1e-07
50.5885833333333 6.81608755776085 0
0 0

0101101
*
Ve
1e-07
61.6799166666667 26.4495755626389 0
0 0

0101101
*
Ve
1e-07
59.69025 25.5817422293055 0
0 0

0101101
*
Ve
1e-07
57.6370833333334 25.5817422293055 0
0 0

0101101
*
Ve
1e-07
61.6799166666667 22.2585755626389 0
0 0

0101101
*
Ve
1e-07
59.69025 20.0149088959722 0
0 0

0101101
*
Ve
1e-07
57.6370833333334 20.0149088959722 0
0 0

0101101
*
Ve
1e-07
61.6799166666667 16.7340755626389 0
0 0

0101101
*
Ve
1e-07
59.69025 14.4904088959722 0
0 0

0101101
*
Ve
1e-07
57.6370833333334 14.4904088959722 0
0 0

0101101
*
Ve
1e-07
61.6799166666667 11.1249088959722 0
0 0

0101101
*
Ve
1e-07
59.69025 8.88124222930553 0
0 0

0101101
*
Ve
1e-07
57.6370833333334 8.88124222930553 0
0 0

0101101
*
Ve
1e-07
57.6370833333334 9.51624222930553 0
0 0

0101101
*
Ve
1e-07
57.6370833333334 11.2730755626389 0
0 0

0101101
*
Ve
1e-07
57.6370833333334 13.5802422293055 0
0 0

0101101
*
Ve
1e-07
57.6370833333334 15.7604088959722 0
0 0

0101101
*
Ve
1e-07
57.6370833333334 18.4697422293055 0
0 0

0101101
*
Ve
1e-07
56.1130833333333 21.3060755626389 0
0 0

0101101
*
Ve
1e-07
57.6370833333334 24.3540755626389 0
0 0

0101101
*
Ve
1e-07
57.6370833333334 22.6395755626389 0
0 0

0101101
*
Ve
1e-07
57.6370833333334 21.3060755626389 0
0 0

0101101
*
Ve
1e-07
50.5885833333333 8.01340889597219 0
0 0

0101101
*
Ve
1e-07
50.5885833333333 9.51624222930553 0
0 0

0101101
*
Ve
1e-07
50.5885833333333 11.2730755626389 0
0 0

0101101
*
Ve
1e-07
50.5885833333333 13.5802422293055 0
0 0

0101101
*
Ve
1e-07
50.5885833333333 15.7604088959722 0
0 0

0101101
*
Ve
1e-07
50.5885833333333 18.4697422293055 0
0 0

0101101
*
Ve
1e-07
50.5885833333333 20.2054088959722 0
0 0

0101101
*
Ve
1e-07
50.5885833333333 21.2849088959722 0
0 0

0101101
*
Ve
1e-07
47.24425 20.2054088959722 0
0 0

0101101
*
Ve
1e-07
44.6830833333333 20.2054088959722 0
0 0

0101101
*
Ve
1e-07
42.0584166666667 20.2054088959722 0
0 0

0101101
*
Ve
1e-07
38.78 20.2054088959722 0
0 0

0101101
*
Ve
1e-07
47.24425 21.2849088959722 0
0 0

0101101
*
Ve
1e-07
44.6830833333333 21.2849088959722 0
0 0

0101101
*
Ve
1e-07
49.8054166666667 22.5549088959722 0
0 0

0101101
*
Ve
1e-07
46.527 22.5549088959722 0
0 0

0101101
*
Ve
1e-07
45.6355833333333 22.5549088959722 0
0 0

0101101
*
Ve
1e-07
42.3571666666667 22.5549088959722 0
0 0

0101101
*
Ve
1e-07
41.5715833333333 22.5549088959722 0
0 0

0101101
*
Ve
1e-07
38.2931666666667 22.5549088959722 0
0 0

0101101
*
Ve
1e-07
37.9121666666667 25.6875755626389 0
0 0

0101101
*
Ve
1e-07
41.9126666666667 25.6875755626389 0
0 0

0101101
*
Ve
1e-07
45.9766666666667 25.6875755626389 0
0 0

0101101
*
Ve
1e-07
50.1676666666667 25.6875755626389 0
0 0

0101101
*
Ve
1e-07
42.0584166666667 21.2849088959722 0
0 0

0101101
*
Ve
1e-07
38.78 16.7552422293055 0
0 0

0101101
*
Ve
1e-07
38.78 14.0459088959722 0
0 0

0101101
*
Ve
1e-07
38.78 19.2740755626389 0
0 0

0101101
*
Ve
1e-07
38.78 21.2849088959722 0
0 0

0101101
*
Ve
1e-07
31.4750833333333 21.2849088959722 0
0 0

0101101
*
Ve
1e-07
28.9139166666667 21.2849088959722 0
0 0

0101101
*
Ve
1e-07
26.28925 20.1207422293055 0
0 0

0101101
*
Ve
1e-07
23.43175 20.1207422293055 0
0 0

0101101
*
Ve
1e-07
26.28925 21.2849088959722 0
0 0

0101101
*
Ve
1e-07
20.3438333333334 21.2849088959722 0
0 0

0101101
*
Ve
1e-07
21.6561666666667 21.2849088959722 0
0 0

0101101
*
Ve
1e-07
23.43175 21.2849088959722 0
0 0

0101101
*
Ve
1e-07
18.7951666666667 21.2849088959722 0
0 0

0101101
*
Ve
1e-07
16.875 25.1745755626389 0
0 0

0101101
*
Ve
1e-07
17.25 23.0729088959722 0
0 0

0101101
*
Ve
1e-07
17.25 21.2849088959722 0
0 0

0101101
*
Ve
1e-07
13.7398333333333 22.4490755626389 0
0 0

0101101
*
Ve
1e-07
9.90393750000003 20.3959088959722 0
0 0

0101101
*
Ve
1e-07
11.6607708333334 19.6974088959722 0
0 0

0101101
*
Ve
1e-07
15.2215 21.2849088959722 0
0 0

0101101
*
Ve
1e-07
13.7398333333333 21.2849088959722 0
0 0

0101101
*
Ve
1e-07
21.6561666666667 19.6974088959722 0
0 0

0101101
*
Ve
1e-07
21.6561666666667 16.2260755626389 0
0 0

0101101
*
Ve
1e-07
45.375 12.8605755626389 0
0 0

0101101
*
Ve
1e-07
45.375 10.7370755626389 0
0 0

0101101
*
Ve
1e-07
40.96875 12.8605755626389 0
0 0

0101101
*
Ve
1e-07
40.96875 10.7370755626389 0
0 0

0101101
*
Ve
1e-07
41.8491666666667 12.8605755626389 0
0 0

0101101
*
Ve
1e-07
38.78 12.8605755626389 0
0 0

0101101
*
Ve
1e-07
43.57225 12.8605755626389 0
0 0

0101101
*
Ve
1e-07
43.57225 14.4904088959722 0
0 0

0101101
*
Ve
1e-07
33.5095 12.8605755626389 0
0 0

0101101
*
Ve
1e-07
30.4403333333333 12.8605755626389 0
0 0

0101101
*
Ve
1e-07
21.6561666666667 18.5539922293055 0
0 0

0101101
*
Ve
1e-07
54.1011666666667 19.0505755626389 0
0 0

0101101
*
Ve
1e-07
52.556 18.4697422293055 0
0 0

0101101
*
Ve
1e-07
54.1011666666667 12.4254088959722 0
0 0

0101101
*
Ve
1e-07
52.5715 13.6433255626389 0
0 0

0101101
*
Ve
1e-07
17.25 12.4254088959722 0
0 0

0101101
*
Ve
1e-07
17.25 18.9870755626389 0
0 0

0101101
*
Ve
1e-07
18.7683333333333 18.5539922293055 0
0 0

0101101
*
Ve
1e-07
21.6561666666667 13.6433255626389 0
0 0

0101101
*
Ve
1e-07
18.7683333333333 13.6433255626389 0
0 0

0101101
*
Ve
1e-07
26.334 12.8605755626389 0
0 0

0101101
*
Ve
1e-07
23.3706666666667 12.8605755626389 0
0 0

0101101
*
Ve
1e-07
21.6561666666667 12.8605755626389 0
0 0

0101101
*
Ve
1e-07
21.6561666666667 14.2364088959722 0
0 0

0101101
*
Ve
1e-07
21.6561666666667 11.4847422293055 0
0 0

0101101
*
Ve
1e-07
21.6561666666667 8.77540889597219 0
0 0

0101101
*
Ve
1e-07
13.7398333333333 19.6974088959722 0
0 0

0101101
*
Ve
1e-07
9.90393750000003 17.6654088959722 0
0 0

0101101
*
Ve
1e-07
11.6607708333334 16.9669088959722 0
0 0

0101101
*
Ve
1e-07
13.7398333333333 16.9669088959722 0
0 0

0101101
*
Ve
1e-07
9.90393750000003 14.9349088959722 0
0 0

0101101
*
Ve
1e-07
11.6607708333334 14.2364088959722 0
0 0

0101101
*
Ve
1e-07
13.7398333333333 14.2364088959722 0
0 0

0101101
*
Ve
1e-07
9.90393750000003 12.1832422293055 0
0 0

0101101
*
Ve
1e-07
11.6607708333334 11.4847422293055 0
0 0

0101101
*
Ve
1e-07
13.7398333333333 11.4847422293055 0
0 0

0101101
*
Ve
1e-07
9.90393750000003 9.47390889597219 0
0 0

0101101
*
Ve
1e-07
11.6607708333334 8.77540889597219 0
0 0

0101101
*
Ve
1e-07
15.3273333333334 6.8704088959722 0
0 0

0101101
*
Ve
1e-07
9.37950000000002 6.8704088959722 0
0 0

0101101
*
Ve
1e-07
11.602 6.8704088959722 0
0 0

0101101
*
Ve
1e-07
13.7398333333333 6.8704088959722 0
0 0

0101101
*
Ve
1e-07
13.7398333333333 8.77540889597219 0
0 0

0101101
*
Ve
1e-07
36.1850833333334 12.8605755626389 0
0 0

0101101
*
Ve
1e-07
31.2845833333333 24.2370755626389 0
0 0

0101101
*
Ve
1e-07
31.2845833333333 28.1105755626389 0
0 0

0101101
*
Ve
1e-07
28.9139166666667 22.9247422293055 0
0 0

0101101
*
Ve
1e-07
26.8184166666667 24.2370755626389 0
0 0

0101101
*
Ve
1e-07
26.8184166666667 28.1105755626389 0
0 0

0101101
*
Ve
1e-07
29.3928719793637 27.7241752184725 0
0 0

0101101
*
Ve
1e-07
28.5724905596545 27.7225592073622 0
0 0

0101101
*
Ve
1e-07
27.435 26.7172334465696 0
0 0

0101101
*
Ve
1e-07
27.4389518063377 25.8913059219989 0
0 0

0101101
*
Ve
1e-07
28.5343915156753 24.7931910662587 0
0 0

0101101
*
Ve
1e-07
29.2986058021309 24.8013350906844 0
0 0

0101101
*
Ve
1e-07
30.3783285166411 25.8114728892939 0
0 0

0101101
*
Ve
1e-07
30.3901839356541 26.6650630582282 0
0 0

0101101
*
Ve
1e-07
25.78125 24.2370755626389 0
0 0

0101101
*
Ve
1e-07
25.78125 28.1105755626389 0
0 0

0101101
*
Ve
1e-07
26.28925 22.9247422293055 0
0 0

0101101
*
Ve
1e-07
23.43175 22.9247422293055 0
0 0

0101101
*
Ve
1e-07
21.3150833333333 24.2370755626389 0
0 0

0101101
*
Ve
1e-07
21.3150833333333 28.1105755626389 0
0 0

0101101
*
Ve
1e-07
23.8895386460304 27.7241752184725 0
0 0

0101101
*
Ve
1e-07
23.0691572263212 27.7225592073622 0
0 0

0101101
*
Ve
1e-07
21.9316666666667 26.7172334465696 0
0 0

0101101
*
Ve
1e-07
21.9356184730043 25.8913059219989 0
0 0

0101101
*
Ve
1e-07
23.0310581823419 24.7931910662587 0
0 0

0101101
*
Ve
1e-07
23.7952724687975 24.8013350906844 0
0 0

0101101
*
Ve
1e-07
24.8749951833078 25.8114728892939 0
0 0

0101101
*
Ve
1e-07
24.8868506023208 26.6650630582282 0
0 0

0101101
*
Ve
1e-07
36.5054166666667 14.7189193126389 0
0 0

0101101
*
Ve
1e-07
36.5054166666667 18.7405859793056 0
0 0

0101101
*
Ve
1e-07
34.51575 14.7189193126389 0
0 0

0101101
*
Ve
1e-07
34.51575 18.7405859793056 0
0 0

0101101
*
Ve
1e-07
32.3355833333334 14.7189193126389 0
0 0

0101101
*
Ve
1e-07
32.3355833333334 18.7405859793056 0
0 0

0101101
*
Ve
1e-07
36.5054166666667 16.7085859793056 0
0 0

0101101
*
Ve
1e-07
32.3355833333334 16.7085859793056 0
0 0

0101101
*
Ve
1e-07
31.01525 14.6471588959722 0
0 0

0101101
*
Ve
1e-07
31.01525 18.6688255626389 0
0 0

0101101
*
Ve
1e-07
31.01525 16.7426588959722 0
0 0

0101101
*
Ve
1e-07
27.6074166666667 14.6471588959722 0
0 0

0101101
*
Ve
1e-07
27.6074166666667 20.1546224376389 0
0 0

0101101
*
Ve
1e-07
27.6074166666667 18.6688255626389 0
0 0

0101101
*
Ve
1e-07
24.09375 14.6471588959722 0
0 0

0101101
*
Ve
1e-07
24.09375 18.6688255626389 0
0 0

0101101
*
Ve
1e-07
24.09375 16.7426588959722 0
0 0

0101101
*
Ve
1e-07
34.9100386460304 18.2060189684725 0
0 0

0101101
*
Ve
1e-07
34.0896572263212 18.2044029573622 0
0 0

0101101
*
Ve
1e-07
32.9521666666667 17.1990771965696 0
0 0

0101101
*
Ve
1e-07
32.9561184730043 16.3731496719989 0
0 0

0101101
*
Ve
1e-07
34.0515581823419 15.2750348162587 0
0 0

0101101
*
Ve
1e-07
34.8157724687975 15.2831788406844 0
0 0

0101101
*
Ve
1e-07
35.8954951833078 16.2933166392939 0
0 0

0101101
*
Ve
1e-07
35.9073506023208 17.1469068082282 0
0 0

0101101
*
Ve
1e-07
30.2874198155395 15.7727661042845 0
0 0

0101101
*
Ve
1e-07
29.5157760587187 15.7727661042845 0
0 0

0101101
*
Ve
1e-07
28.7441323018979 15.7727661042845 0
0 0

0101101
*
Ve
1e-07
27.9724885450771 15.7727661042845 0
0 0

0101101
*
Ve
1e-07
27.2008447882563 15.7727661042845 0
0 0

0101101
*
Ve
1e-07
26.4292010314355 15.7727661042845 0
0 0

0101101
*
Ve
1e-07
25.6575572746147 15.7727661042845 0
0 0

0101101
*
Ve
1e-07
24.8859135177939 15.7727661042845 0
0 0

0101101
*
Ve
1e-07
27.9724885450771 17.6188255626389 0
0 0

0101101
*
Ve
1e-07
28.7441323018979 17.6188255626388 0
0 0

0101101
*
Ve
1e-07
29.5157760587187 17.6188255626388 0
0 0

0101101
*
Ve
1e-07
30.2874198155395 17.6188255626388 0
0 0

0101101
*
Ve
1e-07
24.8859135177939 17.6188255626389 0
0 0

0101101
*
Ve
1e-07
25.6575572746147 17.6188255626388 0
0 0

0101101
*
Ve
1e-07
26.4292010314355 17.6188255626388 0
0 0

0101101
*
Ve
1e-07
27.2008447882563 17.6188255626388 0
0 0

0101101
*
Ve
1e-07
62.8911306651592 7.34494157374918 0
0 0

0101101
*
Ve
1e-07
62.19774924545 7.36449222930552 0
0 0

0101101
*
Ve
1e-07
61.113908032173 6.31176342478792 0
0 0

0101101
*
Ve
1e-07
61.1178598385106 5.48583590021719 0
0 0

0101101
*
Ve
1e-07
62.2258328120768 4.4562907548687 0
0 0

0101101
*
Ve
1e-07
62.9900470985324 4.4644347792944 0
0 0

0101101
*
Ve
1e-07
64.0572365488141 5.47200457803537 0
0 0

0101101
*
Ve
1e-07
64.0690919678271 6.32559474696973 0
0 0

0101101
*
Ve
1e-07
9.79070536399878 4.08514304818601 0
0 0

0101101
*
Ve
1e-07
8.97032394428958 4.08352703707569 0
0 0

0101101
*
Ve
1e-07
7.88648273101256 3.03079823255807 0
0 0

0101101
*
Ve
1e-07
7.89043453735024 2.20487070798734 0
0 0

0101101
*
Ve
1e-07
8.99840751091639 1.17532556263886 0
0 0

0101101
*
Ve
1e-07
9.76262179737197 1.18346958706456 0
0 0

0101101
*
Ve
1e-07
10.8298112476537 2.19103938580554 0
0 0

0101101
*
Ve
1e-07
10.8416666666667 3.04462955473988 0
0 0

0101101
*
Ve
1e-07
14.0240386973321 4.08514304818601 0
0 0

0101101
*
Ve
1e-07
13.2036572776229 4.08352703707569 0
0 0

0101101
*
Ve
1e-07
12.1198160643459 3.03079823255807 0
0 0

0101101
*
Ve
1e-07
12.1237678706836 2.20487070798734 0
0 0

0101101
*
Ve
1e-07
13.2317408442497 1.17532556263886 0
0 0

0101101
*
Ve
1e-07
13.9959551307053 1.18346958706456 0
0 0

0101101
*
Ve
1e-07
15.063144580987 2.19103938580554 0
0 0

0101101
*
Ve
1e-07
15.075 3.04462955473988 0
0 0

0101101
*
Ve
1e-07
7.76329315790503 4.42841085820683 0
0 0

0101101
*
Ve
1e-07
15.2139598245717 4.42841085820683 0
0 0

0101101
*
Ve
1e-07
15.2139598245717 1.0840775248735 0
0 0

0101101
*
Ve
1e-07
7.76329315790505 1.0840775248735 0
0 0

0101101
*
Ve
1e-07
11.513293157905 1.0840775248735 0
0 0

0101101
*
Ve
1e-07
11.513293157905 4.4590775248735 0
0 0

0101101
*
Ve
1e-07
58.7847973318258 3.45027490708251 0
0 0

0101101
*
Ve
1e-07
57.9644159121166 3.44865889597219 0
0 0

0101101
*
Ve
1e-07
56.8805746988396 2.39593009145458 0
0 0

0101101
*
Ve
1e-07
56.8845265051773 1.57000256688385 0
0 0

0101101
*
Ve
1e-07
57.9924994787435 0.540457421535368 0
0 0

0101101
*
Ve
1e-07
58.756713765199 0.548601445961062 0
0 0

0101101
*
Ve
1e-07
59.8239032154807 1.55617124470204 0
0 0

0101101
*
Ve
1e-07
59.8357586344938 2.40976141363639 0
0 0

0101101
*
Ve
1e-07
63.0181306651592 3.45027490708251 0
0 0

0101101
*
Ve
1e-07
62.19774924545 3.44865889597219 0
0 0

0101101
*
Ve
1e-07
61.113908032173 2.39593009145458 0
0 0

0101101
*
Ve
1e-07
61.1178598385106 1.57000256688385 0
0 0

0101101
*
Ve
1e-07
62.2258328120768 0.540457421535368 0
0 0

0101101
*
Ve
1e-07
62.9900470985324 0.548601445961062 0
0 0

0101101
*
Ve
1e-07
64.0572365488141 1.55617124470204 0
0 0

0101101
*
Ve
1e-07
64.0690919678271 2.40976141363639 0
0 0

0101101
*
Ve
1e-07
56.7573851257321 3.79354271710333 0
0 0

0101101
*
Ve
1e-07
60.3768851257321 7.54004271710334 0
0 0

0101101
*
Ve
1e-07
64.2080517923988 7.54004271710334 0
0 0

0101101
*
Ve
1e-07
64.2080517923988 3.79354271710333 0
0 0

0101101
*
Ve
1e-07
64.2080517923988 0.44920938377 0
0 0

0101101
*
Ve
1e-07
56.7573851257321 0.44920938377 0
0 0

0101101
*
Ve
1e-07
60.5073851257321 0.44920938377 0
0 0

0101101
*
Ve
1e-07
60.5073851257321 3.82420938377001 0
0 0

0101101
*
Ve
1e-07
57.6805101257321 6.82420938377002 0
0 0

0101101
*
Ve
1e-07
47.645792199757 6.81608755776085 0
0 0

0101101
*
Ve
1e-07
46.6721255330903 6.81608755776085 0
0 0

0101101
*
Ve
1e-07
44.8094588664237 6.81608755776085 0
0 0

0101101
*
Ve
1e-07
46.6721255330903 5.43400422442751 0
0 0

0101101
*
Ve
1e-07
46.6678338664237 4.65983755776085 0
0 0

0101101
*
Ve
1e-07
46.6678338664237 2.50358755776085 0
0 0

0101101
*
Ve
1e-07
47.9455289804778 4.66916539273603 0
0 0

0101101
*
Ve
1e-07
47.9455289804778 2.81576822037409 0
0 0

0101101
*
Ve
1e-07
47.9455289804778 0.962371048012141 0
0 0

0101101
*
Ve
1e-07
45.3491677170703 1.34337104801215 0
0 0

0101101
*
Ve
1e-07
45.3491677170703 3.19676822037408 0
0 0

0101101
*
Ve
1e-07
38.5229588664237 6.81608755776085 0
0 0

0101101
*
Ve
1e-07
41.994292199757 6.81608755776085 0
0 0

0101101
*
Ve
1e-07
41.185667199757 6.81608755776085 0
0 0

0101101
*
Ve
1e-07
39.327292199757 6.81608755776085 0
0 0

0101101
*
Ve
1e-07
41.185667199757 5.43400422442751 0
0 0

0101101
*
Ve
1e-07
41.185667199757 4.65983755776085 0
0 0

0101101
*
Ve
1e-07
41.185667199757 2.50358755776085 0
0 0

0101101
*
Ve
1e-07
42.4633623138112 4.66916539273603 0
0 0

0101101
*
Ve
1e-07
42.4633623138112 2.81576822037409 0
0 0

0101101
*
Ve
1e-07
42.4633623138112 0.962371048012141 0
0 0

0101101
*
Ve
1e-07
39.8670010504036 1.34337104801215 0
0 0

0101101
*
Ve
1e-07
39.8670010504036 3.19676822037408 0
0 0

0101101
*
Ve
1e-07
38.5665 9.89332556263886 0
0 0

0101101
*
Ve
1e-07
38.5665 8.66565889597219 0
0 0

0101101
*
Ve
1e-07
30.375 9.89332556263886 0
0 0

0101101
*
Ve
1e-07
32.3211255330903 8.57292089109419 0
0 0

0101101
*
Ve
1e-07
26.0769588664237 8.57292089109419 0
0 0

0101101
*
Ve
1e-07
32.3211255330903 6.81608755776085 0
0 0

0101101
*
Ve
1e-07
30.1578338664237 6.81608755776085 0
0 0

0101101
*
Ve
1e-07
35.661167199757 6.81608755776085 0
0 0

0101101
*
Ve
1e-07
33.866292199757 6.81608755776085 0
0 0

0101101
*
Ve
1e-07
35.661167199757 5.43400422442751 0
0 0

0101101
*
Ve
1e-07
35.661167199757 4.65983755776085 0
0 0

0101101
*
Ve
1e-07
35.661167199757 2.50358755776085 0
0 0

0101101
*
Ve
1e-07
37.0023623138112 4.66916539273603 0
0 0

0101101
*
Ve
1e-07
37.0023623138112 2.81576822037409 0
0 0

0101101
*
Ve
1e-07
37.0023623138112 0.962371048012141 0
0 0

0101101
*
Ve
1e-07
34.4060010504036 1.34337104801215 0
0 0

0101101
*
Ve
1e-07
34.4060010504036 3.19676822037408 0
0 0

0101101
*
Ve
1e-07
26.0769588664237 6.81608755776085 0
0 0

0101101
*
Ve
1e-07
24.675667199757 6.81608755776085 0
0 0

0101101
*
Ve
1e-07
29.294292199757 6.81608755776085 0
0 0

0101101
*
Ve
1e-07
30.1578338664237 5.43400422442751 0
0 0

0101101
*
Ve
1e-07
30.1578338664237 4.65983755776085 0
0 0

0101101
*
Ve
1e-07
30.1578338664237 2.50358755776085 0
0 0

0101101
*
Ve
1e-07
31.4990289804778 4.66916539273603 0
0 0

0101101
*
Ve
1e-07
31.4990289804778 2.81576822037409 0
0 0

0101101
*
Ve
1e-07
31.4990289804778 0.962371048012141 0
0 0

0101101
*
Ve
1e-07
28.9026677170703 1.34337104801215 0
0 0

0101101
*
Ve
1e-07
28.9026677170703 3.19676822037408 0
0 0

0101101
*
Ve
1e-07
22.9019588664237 6.81608755776085 0
0 0

0101101
*
Ve
1e-07
24.675667199757 5.43400422442751 0
0 0

0101101
*
Ve
1e-07
24.675667199757 4.65983755776085 0
0 0

0101101
*
Ve
1e-07
24.675667199757 2.50358755776085 0
0 0

0101101
*
Ve
1e-07
26.0380289804778 4.66916539273603 0
0 0

0101101
*
Ve
1e-07
26.0380289804778 2.81576822037409 0
0 0

0101101
*
Ve
1e-07
26.0380289804778 0.962371048012141 0
0 0

0101101
*
Ve
1e-07
23.4416677170703 1.34337104801215 0
0 0

0101101
*
Ve
1e-07
23.4416677170703 3.19676822037408 0
0 0

0101101
*
Ve
1e-07
19.769292199757 6.81608755776085 0
0 0

0101101
*
Ve
1e-07
19.214667199757 6.81608755776085 0
0 0

0101101
*
Ve
1e-07
17.419792199757 6.81608755776085 0
0 0

0101101
*
Ve
1e-07
19.214667199757 5.43400422442751 0
0 0

0101101
*
Ve
1e-07
19.214667199757 4.65983755776085 0
0 0

0101101
*
Ve
1e-07
19.214667199757 2.50358755776085 0
0 0

0101101
*
Ve
1e-07
20.5558623138112 4.66916539273603 0
0 0

0101101
*
Ve
1e-07
20.5558623138112 2.81576822037409 0
0 0

0101101
*
Ve
1e-07
20.5558623138112 0.962371048012141 0
0 0

0101101
*
Ve
1e-07
17.9595010504036 1.34337104801215 0
0 0

0101101
*
Ve
1e-07
17.9595010504036 3.19676822037408 0
0 0

0101101
*
Ve
1e-07
7.76902883840358 9.29128664148033 0
0 0

0101101
*
Ve
1e-07
9.30606000499442 8.41600413721859 0
0 0

0101101
*
Ve
1e-07
10.0585343147544 8.40917903396383 0
0 0

0101101
*
Ve
1e-07
7.74489344126098 26.034626607813 0
0 0

0101101
*
Ve
1e-07
9.28192460785182 25.1593441035512 0
0 0

0101101
*
Ve
1e-07
10.0343989176119 25.1525190002964 0
0 0

0101101
*
Ve
1e-07
7.73489116029018 22.9424551007432 0
0 0

0101101
*
Ve
1e-07
9.27192232688101 22.0671725964815 0
0 0

0101101
*
Ve
1e-07
10.024396636641 22.0603474932267 0
0 0

0101101
*
Ve
1e-07
7.7316431238031 11.9851409924915 0
0 0

0101101
*
Ve
1e-07
9.26867429039394 11.1098584882298 0
0 0

0101101
*
Ve
1e-07
10.021148600154 11.103033384975 0
0 0

0101101
*
Ve
1e-07
7.7316431238031 14.7116819577942 0
0 0

0101101
*
Ve
1e-07
9.26867429039394 13.8363994535324 0
0 0

0101101
*
Ve
1e-07
10.021148600154 13.8295743502777 0
0 0

0101101
*
Ve
1e-07
7.7316431238031 17.4584508762475 0
0 0

0101101
*
Ve
1e-07
9.26867429039394 16.5831683719858 0
0 0

0101101
*
Ve
1e-07
10.021148600154 16.576343268731 0
0 0

0101101
*
Ve
1e-07
7.7316431238031 20.2052197947009 0
0 0

0101101
*
Ve
1e-07
9.26867429039394 19.3299372904391 0
0 0

0101101
*
Ve
1e-07
10.021148600154 19.3231121871844 0
0 0

0101101
*
Ve
1e-07
16.7035619563314 27.5842670560606 0
0 0

0101101
*
Ve
1e-07
15.574448450909 26.1318000881085 0
0 0

0101101
*
Ve
1e-07
15.5725132349202 25.3682073977156 0
0 0

0101101
*
Ve
1e-07
15.579338338175 24.6157330879555 0
0 0

0101101
*
Ve
1e-07
20.4325401982044 26.1318000881085 0
0 0

0101101
*
Ve
1e-07
20.4344754141932 25.3682073977156 0
0 0

0101101
*
Ve
1e-07
20.4276503109384 24.6157330879555 0
0 0

0101101
*
Ve
1e-07
19.2880579017025 27.5815549164583 0
0 0

0101101
*
Ve
1e-07
33.1817679399376 27.5842670560606 0
0 0

0101101
*
Ve
1e-07
35.7662638853087 27.5815549164583 0
0 0

0101101
*
Ve
1e-07
32.1700110680672 26.1306315435364 0
0 0

0101101
*
Ve
1e-07
32.1680758520784 25.3670388531435 0
0 0

0101101
*
Ve
1e-07
32.1749009553332 24.6145645433835 0
0 0

0101101
*
Ve
1e-07
36.7797219724807 26.1387587600239 0
0 0

0101101
*
Ve
1e-07
36.7816571884695 25.375166069631 0
0 0

0101101
*
Ve
1e-07
36.7748320852147 24.622691759871 0
0 0

0101101
*
Ve
1e-07
52.2872499786132 27.5842670560606 0
0 0

0101101
*
Ve
1e-07
51.2754931067427 26.1306315435364 0
0 0

0101101
*
Ve
1e-07
51.2735578907539 25.3670388531435 0
0 0

0101101
*
Ve
1e-07
51.2803829940087 24.6145645433835 0
0 0

0101101
*
Ve
1e-07
54.8907309012001 27.578842776856 0
0 0

0101101
*
Ve
1e-07
55.9088347054098 24.6278773201472 0
0 0

0101101
*
Ve
1e-07
55.9156598086645 25.3803516299072 0
0 0

0101101
*
Ve
1e-07
55.9137245926757 26.1439443203002 0
0 0

0101101
*
Ve
1e-07
49.3102499614227 27.5496613350617 0
0 0

0101101
*
Ve
1e-07
49.3102499614227 25.6799098320333 0
0 0

0101101
*
Ve
1e-07
49.3102499614227 23.8035015544627 0
0 0

0101101
*
Ve
1e-07
46.8951134493346 27.5496613350617 0
0 0

0101101
*
Ve
1e-07
46.8951134493346 25.6799098320333 0
0 0

0101101
*
Ve
1e-07
46.8951134493346 23.8035015544627 0
0 0

0101101
*
Ve
1e-07
45.172691132413 27.5496613350617 0
0 0

0101101
*
Ve
1e-07
45.172691132413 25.6799098320333 0
0 0

0101101
*
Ve
1e-07
45.172691132413 23.8035015544627 0
0 0

0101101
*
Ve
1e-07
42.757554620325 27.5496613350617 0
0 0

0101101
*
Ve
1e-07
42.757554620325 25.6799098320333 0
0 0

0101101
*
Ve
1e-07
42.757554620325 23.8035015544627 0
0 0

0101101
*
Ve
1e-07
41.1605719915499 27.5496613350617 0
0 0

0101101
*
Ve
1e-07
41.1605719915499 25.6799098320333 0
0 0

0101101
*
Ve
1e-07
41.1605719915499 23.8035015544627 0
0 0

0101101
*
Ve
1e-07
38.7454354794618 27.5496613350617 0
0 0

0101101
*
Ve
1e-07
38.7454354794618 25.6799098320333 0
0 0

0101101
*
Ve
1e-07
38.7454354794618 23.8035015544627 0
0 0

0101101
*
Ve
1e-07
61.5464185266189 13.2093508229001 0
0 0

0101101
*
Ve
1e-07
60.7828360498117 13.2049527556717 0
0 0

0101101
*
Ve
1e-07
63.6115033550332 12.318040541473 0
0 0

0101101
*
Ve
1e-07
63.3638611545857 9.94095940367138 0
0 0

0101101
*
Ve
1e-07
63.3638611545857 15.5133065177217 0
0 0

0101101
*
Ve
1e-07
63.3638611545857 20.9791191966018 0
0 0

0101101
*
Ve
1e-07
61.5411822178822 28.1865743892941 0
0 0

0101101
*
Ve
1e-07
60.7775997410749 28.1821763220657 0
0 0

0101101
*
Ve
1e-07
63.6062670462964 27.295264107867 0
0 0

0101101
*
Ve
1e-07
61.5392587993709 24.1488702244629 0
0 0

0101101
*
Ve
1e-07
60.7756763225637 24.1444721572345 0
0 0

0101101
*
Ve
1e-07
63.6043436277852 23.2575599430357 0
0 0

0101101
*
Ve
1e-07
61.5350473904466 18.6667195947006 0
0 0

0101101
*
Ve
1e-07
60.7714649136393 18.6623215274722 0
0 0

0101101
*
Ve
1e-07
42 9.89332556263885 0
0 0

0101101
*
Ve
1e-07
47.066 9.89332556263885 0
0 0

0101101
*
Ve
1e-07
49.38525 12.8394088959722 0
0 0

0101101
*
Ve
1e-07
46.97225 12.8605755626389 0
0 0

0101101
*
Ve
1e-07
48.3619166666667 14.8708854584722 0
0 0

0101101
*
Ve
1e-07
48.3619166666667 18.4268854584722 0
0 0

0101101
*
Ve
1e-07
45.3774166666667 14.8708854584722 0
0 0

0101101
*
Ve
1e-07
45.2715833333334 20.2054088959722 0
0 0

0101101
*
Ve
1e-07
45.2715833333334 18.8084088959722 0
0 0

0101101
*
Ve
1e-07
45.3774166666667 18.4268854584722 0
0 0

0101101
*
Ve
1e-07
48.3619166666667 16.7123854584722 0
0 0

0101101
*
Ve
1e-07
45.3774166666667 16.7123854584722 0
0 0

0101101
*
Ve
1e-07
46.8590833333333 14.8708854584722 0
0 0

0101101
*
Ve
1e-07
46.8590833333333 18.4268854584722 0
0 0

0101101
*
Ve
1e-07
47.7671666666667 17.8847115536924 0
0 0

0101101
*
Ve
1e-07
47.7671666666666 17.0939136115602 0
0 0

0101101
*
Ve
1e-07
47.7671666666666 16.3031156694281 0
0 0

0101101
*
Ve
1e-07
47.7671666666666 15.512317727296 0
0 0

0101101
*
Ve
1e-07
45.9185144281742 15.512317727296 0
0 0

0101101
*
Ve
1e-07
45.9185144281742 16.3031156694281 0
0 0

0101101
*
Ve
1e-07
45.9185144281742 17.0939136115602 0
0 0

0101101
*
Ve
1e-07
45.9185144281742 17.8847115536924 0
0 0

0101101
*
Ve
1e-07
43.6205833333333 20.2054088959722 0
0 0

0101101
*
Ve
1e-07
43.6205833333333 18.8084088959722 0
0 0

0101101
*
Ve
1e-07
43.7475833333333 14.9132187918055 0
0 0

0101101
*
Ve
1e-07
43.7475833333333 18.4692187918055 0
0 0

0101101
*
Ve
1e-07
40.6360833333333 14.9132187918055 0
0 0

0101101
*
Ve
1e-07
40.6360833333333 18.4692187918055 0
0 0

0101101
*
Ve
1e-07
42.24475 14.9132187918055 0
0 0

0101101
*
Ve
1e-07
42.24475 18.4692187918055 0
0 0

0101101
*
Ve
1e-07
43.7475833333333 16.6912187918055 0
0 0

0101101
*
Ve
1e-07
40.6360833333333 16.6912187918055 0
0 0

0101101
*
Ve
1e-07
43.1316666666667 17.8847115536924 0
0 0

0101101
*
Ve
1e-07
43.1316666666667 17.0939136115602 0
0 0

0101101
*
Ve
1e-07
43.1316666666667 16.3031156694281 0
0 0

0101101
*
Ve
1e-07
43.1316666666667 15.512317727296 0
0 0

0101101
*
Ve
1e-07
41.2830144281742 15.512317727296 0
0 0

0101101
*
Ve
1e-07
41.2830144281742 16.3031156694281 0
0 0

0101101
*
Ve
1e-07
41.2830144281742 17.0939136115602 0
0 0

0101101
*
Ve
1e-07
41.2830144281742 17.8847115536924 0
0 0

0101101
*
Ve
1e-07
63.6001322188608 17.7754093132735 0
0 0

0101101
*
Co

1100000
+471 0 +470 0 +469 0 +468 0 +467 0 +466 0 +465 0 +464 0 +463 0 +462 0 
+461 0 +460 0 +459 0 +458 0 +457 0 +456 0 +455 0 +454 0 +453 0 +452 0 
+451 0 +450 0 +449 0 +448 0 +447 0 +446 0 +445 0 +444 0 +443 0 +442 0 
+441 0 +440 0 +439 0 +438 0 +437 0 +436 0 +435 0 +434 0 +433 0 +432 0 
+431 0 +430 0 +429 0 +428 0 +427 0 +426 0 +425 0 +424 0 +423 0 +422 0 
+421 0 +420 0 +419 0 +418 0 +417 0 +416 0 +415 0 +414 0 +413 0 +412 0 
+411 0 +410 0 +409 0 +408 0 +407 0 +406 0 +405 0 +404 0 +403 0 +402 0 
+401 0 +400 0 +399 0 +398 0 +397 0 +396 0 +395 0 +394 0 +393 0 +392 0 
+391 0 +390 0 +389 0 +388 0 +387 0 +386 0 +385 0 +384 0 +383 0 +382 0 
+381 0 +380 0 +379 0 +378 0 +377 0 +376 0 +375 0 +374 0 +373 0 +372 0 
+371 0 +370 0 +369 0 +368 0 +367 0 +366 0 +365 0 +364 0 +363 0 +362 0 
+361 0 +360 0 +359 0 +358 0 +357 0 +356 0 +355 0 +354 0 +353 0 +352 0 
+351 0 +350 0 +349 0 +348 0 +347 0 +346 0 +345 0 +344 0 +343 0 +342 0 
+341 0 +340 0 +339 0 +338 0 +337 0 +336 0 +335 0 +334 0 +333 0 +332 0 
+331 0 +330 0 +329 0 +328 0 +327 0 +326 0 +325 0 +324 0 +323 0 +322 0 
+321 0 +320 0 +319 0 +318 0 +317 0 +316 0 +315 0 +314 0 +313 0 +312 0 
+311 0 +310 0 +309 0 +308 0 +307 0 +306 0 +305 0 +304 0 +303 0 +302 0 
+301 0 +300 0 +299 0 +298 0 +297 0 +296 0 +295 0 +294 0 +293 0 +292 0 
+291 0 +290 0 +289 0 +288 0 +287 0 +286 0 +285 0 +284 0 +283 0 +282 0 
+281 0 +280 0 +279 0 +278 0 +277 0 +276 0 +275 0 +274 0 +273 0 +272 0 
+271 0 +270 0 +269 0 +268 0 +267 0 +266 0 +265 0 +264 0 +263 0 +262 0 
+261 0 +260 0 +259 0 +258 0 +257 0 +256 0 +255 0 +254 0 +253 0 +252 0 
+251 0 +250 0 +249 0 +248 0 +247 0 +246 0 +245 0 +244 0 +243 0 +242 0 
+241 0 +240 0 +239 0 +238 0 +237 0 +236 0 +235 0 +234 0 +233 0 +232 0 
+231 0 +230 0 +229 0 +228 0 +227 0 +226 0 +225 0 +224 0 +223 0 +222 0 
+221 0 +220 0 +219 0 +218 0 +217 0 +216 0 +215 0 +214 0 +213 0 +212 0 
+211 0 +210 0 +209 0 +208 0 +207 0 +206 0 +205 0 +204 0 +203 0 +202 0 
+201 0 +200 0 +199 0 +198 0 +197 0 +196 0 +195 0 +194 0 +193 0 +192 0 
+191 0 +190 0 +189 0 +188 0 +187 0 +186 0 +185 0 +184 0 +183 0 +182 0 
+181 0 +180 0 +179 0 +178 0 +177 0 +176 0 +175 0 +174 0 +173 0 +172 0 
+171 0 +170 0 +169 0 +168 0 +167 0 +166 0 +165 0 +164 0 +163 0 +162 0 
+161 0 +160 0 +159 0 +158 0 +157 0 +156 0 +155 0 +154 0 +153 0 +152 0 
+151 0 +150 0 +149 0 +148 0 +147 0 +146 0 +145 0 +144 0 +143 0 +142 0 
+141 0 +140 0 +139 0 +138 0 +137 0 +136 0 +135 0 +134 0 +133 0 +132 0 
+131 0 +130 0 +129 0 +128 0 +127 0 +126 0 +125 0 +124 0 +123 0 +122 0 
+121 0 +120 0 +119 0 +118 0 +117 0 +116 0 +115 0 +114 0 +113 0 +112 0 
+111 0 +110 0 +109 0 +108 0 +107 0 +106 0 +105 0 +104 0 +103 0 +102 0 
+101 0 +100 0 +99 0 +98 0 +97 0 +96 0 +95 0 +94 0 +93 0 +92 0 
+91 0 +90 0 +89 0 +88 0 +87 0 +86 0 +85 0 +84 0 +83 0 +82 0 
+81 0 +80 0 +79 0 +78 0 +77 0 +76 0 +75 0 +74 0 +73 0 +72 0 
+71 0 +70 0 +69 0 +68 0 +67 0 +66 0 +65 0 +64 0 +63 0 +62 0 
+61 0 +60 0 +59 0 +58 0 +57 0 +56 0 +55 0 +54 0 +53 0 +52 0 
+51 0 +50 0 +49 0 +48 0 +47 0 +46 0 +45 0 +44 0 +43 0 +42 0 
+41 0 +40 0 +39 0 +38 0 +37 0 +36 0 +35 0 +34 0 +33 0 +32 0 
+31 0 +30 0 +29 0 +28 0 +27 0 +26 0 +25 0 +24 0 +23 0 +22 0 
+21 0 +20 0 +19 0 +18 0 +17 0 +16 0 +15 0 +14 0 +13 0 +12 0 
+11 0 +10 0 +9 0 +8 0 +7 0 +6 0 +5 0 +4 0 +3 0 +2 0 
*

+1 0 