
CASCADE Topology V3, (c) Open Cascade
Locations 0
Curve2ds 0
Curves 401
1 8.9231401666427246 5.8397345479564038 0 0.99999999999986544 -5.1860837275841433e-07 0 
1 13.31160488177569 5.839732272061859 0 -3.0198753662829966e-13 -1 0 
1 13.31160488177566 5.7397345482916444 0 -1 0 0 
1 8.9231319784247489 5.7397345482916444 0 0 -1 0 
1 8.9231319784247489 0.0211666666666659 0 1 0 0 
1 14.681828108132089 0.0211666666666659 0 0 1 0 
1 14.681828108132089 5.7397345482916444 0 -1 0 0 
1 14.39977154844234 5.7397345482916444 0 0 1 0 
1 14.39977154844234 5.8397221452926757 0 0.99999999749067381 -7.0842447296931723e-05 0 
1 15.044830679348751 5.8396764477250764 0 -2.122851616380095e-13 -1 0 
1 15.044830679348729 5.7392630136992366 0 -1 0 0 
1 14.781828108132091 5.7392630136992366 0 3.4172081139456627e-15 -1 0 
1 14.78182810813211 0.0211666666666659 0 1 0 0 
1 20.160020909313719 0.0211666666666659 0 0 1 0 
1 20.160020909313719 5.7392630136992366 0 -1 0 0 
1 16.111830679348738 5.7392630136992366 0 0 1 0 
1 16.111830679348738 5.8396663209558923 0 0.99999999995496158 -9.4908802086155662e-06 0 
1 20.517741998793039 5.8396245049793478 0 0 -1 0 
1 20.517741998793039 5.7392630136992366 0 -1 0 0 
1 20.26002090931371 5.7392630136992366 0 -1.8639316985158162e-15 -1 0 
1 20.260020909313699 0.0211666666666659 0 1 0 0 
1 25.640643657750331 0.0211666666666659 0 0 1 0 
1 25.640643657750331 5.7392630136992366 0 -1 0 0 
1 21.584741998793049 5.7392630136992366 0 0 1 0 
1 21.584741998793049 5.8396143782101566 0 0.99999999995496158 -9.4908802084139774e-06 0 
1 25.990653318237349 5.839572562233613 0 0 -1 0 
1 25.990653318237349 5.7392630136992366 0 -1 0 0 
1 25.74064365775034 5.7392630136992366 0 -1.8639316985158162e-15 -1 0 
1 25.740643657750329 0.0211666666666659 0 1 0 0 
1 31.102905860966079 0.0211666666666659 0 0 1 0 
1 31.102905860966079 5.7392630136992366 0 -1 0 0 
1 27.05765331823736 5.7392630136992366 0 0 1 0 
1 27.05765331823736 5.8395624354644369 0 0.99999999995496169 -9.4908802072164524e-06 0 
1 31.500744741754001 5.8395202666159847 0 -1.0630793011306472e-13 -1 0 
1 31.500744741753991 5.7392630136992366 0 -1 0 0 
1 31.20290586096608 5.7392630136992366 0 0 -1 0 
1 31.20290586096608 0.0211666666666659 0 1 0 0 
1 36.59270888201317 0.0211666666666659 0 0 1 0 
1 36.59270888201317 5.7392630136992366 0 -1 0 0 
1 32.567744741753977 5.7392630136992366 0 0 1 0 
1 32.567744741753977 5.8395101398468006 0 0.99999999995496158 -9.4908802065822873e-06 0 
1 36.936475957125957 5.8394686767421788 0 0 -1 0 
1 36.936475957125957 5.7392630136992366 0 -1 0 0 
1 36.692708882013157 5.7392630136992366 0 -1.2426211323438774e-15 -1 0 
1 36.69270888201315 0.0211666666666659 0 1 0 0 
1 42.064151357839343 0.0211666666666659 0 0 1 0 
1 42.064151357839343 5.7392630136992366 0 -1 0 0 
1 38.003475957125978 5.7392630136992366 0 0 1 0 
1 38.003475957125978 5.8394585499729956 0 0.99999999995496147 -9.4908802110186258e-06 0 
1 42.439131359828117 5.8394164516989093 0 3.5472708174152858e-13 -1 0 
1 42.439131359828153 5.7392630136992366 0 -1 0 0 
1 42.164151357839337 5.7392630136992366 0 0 -1 0 
1 42.164151357839337 0.0211666666666659 0 1 0 0 
1 47.54477410627598 0.0211666666666659 0 0 1 0 
1 47.54477410627598 5.7392630136992366 0 -1 0 0 
1 43.506131359828117 5.7392630136992366 0 0 1 0 
1 43.506131359828117 5.8394063249297261 0 0.99999999995496158 -9.4908802080237612e-06 0 
1 47.90208050873531 5.8393646035029514 0 0 -1 0 
1 47.90208050873531 5.7392630136992366 0 -1 0 0 
1 47.644774106275968 5.7392630136992366 0 0 -1 0 
1 47.644774106275968 0.0211666666666659 0 1 0 0 
1 53.025396854712596 0.0211666666666659 0 0 1 0 
1 53.025396854712596 5.7392630136992366 0 -1 0 0 
1 48.969080508735331 5.7392630136992366 0 0 1 0 
1 48.969080508735331 5.8393544767337673 0 0.99999999995496169 -9.49088020893999e-06 0 
1 53.37714827421582 5.8393126402906503 0 0 -1 0 
1 53.37714827421582 5.7392630136992366 0 -1 0 0 
1 53.125396854712598 5.7392630136992366 0 0 -1 0 
1 53.125396854712598 0.0211666666666659 0 1 0 0 
1 58.506019603149241 0.0211666666666659 0 0 1 0 
1 58.506019603149241 5.7392630136992366 0 -1 0 0 
1 54.444148274215827 5.7392630136992366 0 0 1 0 
1 54.444148274215827 5.8393025135214671 0 0.99999999995496169 -9.4908802070772663e-06 0 
1 58.60601960314925 5.8392630136992452 0 0 -1 0 
1 58.60601960314925 0.0211666666666659 0 1 0 0 
1 66.793291541250525 0.0211666666666659 0 0 1 0 
1 66.793291541250525 7.8994674150702267 0 -1 0 0 
1 61.144429835154241 7.8994674150702267 0 0 1 0 
1 61.144429835154241 8.323547680045948 0 1 -7.1054273575998911e-14 0 
1 61.244429835154257 8.3235476800459409 0 0 -1 0 
1 61.244429835154257 8.0994674150702295 0 1 0 0 
1 66.793291541250525 8.0994674150702295 0 0 1 0 
1 66.793291541250525 13.57181452912055 0 -1 0 0 
1 61.244429835154257 13.57181452912055 0 0 -1 0 
1 61.244429835154257 9.3905476800459482 0 -1 0 0 
1 61.144429835154241 9.3905476800459482 0 0 1 0 
1 61.144429835154241 13.91282893853511 0 1 8.8817841969998639e-14 0 
1 61.244429835154257 13.912828938535119 0 0 -1 0 
1 61.244429835154257 13.67181452912056 0 1 -1.9207797204049823e-15 0 
1 66.793291541250525 13.67181452912055 0 0 1 0 
1 66.793291541250525 19.037627208000671 0 -1 0 0 
1 61.244429835154257 19.037627208000671 0 0 -1 0 
1 61.244429835154257 14.979828938535119 0 -1 0 0 
1 61.144429835154241 14.979828938535119 0 0 1 0 
1 61.144429835154241 19.34988255252447 0 1 0 0 
1 61.244429835154257 19.34988255252447 0 0 -1 0 
1 61.244429835154257 19.137627208000659 0 1 0 0 
1 66.793291541250525 19.137627208000659 0 0 1 0 
1 66.793291541250525 24.518286515573099 0 -1 0 0 
1 61.244429835154257 24.518286515573099 0 0 -1 0 
1 61.244429835154257 20.416882552524481 0 -1 0 0 
1 61.144429835154241 20.416882552524481 0 0 1 0 
1 61.144429835154241 24.843391991453949 0 1 0 0 
1 61.244429835154257 24.843391991453949 0 0 -1 0 
1 61.244429835154257 24.618286515573111 0 1 0 0 
1 66.793291541250525 24.618286515573111 0 0 1 0 
1 66.793291541250525 28.553264645507621 0 -1 0 0 
1 61.244429835154257 28.553264645507621 0 0 -1 0 
1 61.244429835154257 25.910391991453938 0 -1 0 0 
1 61.144429835154241 25.910391991453938 0 0 1 0 
1 61.144429835154241 28.553264645507621 0 -1 0 0 
1 50.389166768289748 28.553264645507621 0 0 -1 0 
1 50.389166768289748 22.411634748501619 0 -1 0 0 
1 48.950184780583577 22.411634748501619 0 2.176392399632924e-10 1 0 
1 48.950184780605341 22.511634748501631 0 1 0 0 
1 50.289166768289768 22.511634748501631 0 0 1 0 
1 50.289166768289768 28.553264645507621 0 -1 0 0 
1 47.646418655045217 28.553264645507621 0 0 -1 0 
1 47.646418655045217 22.511634748501631 0 1 0 0 
1 47.883184780605319 22.511634748501631 0 -1.8381740574113531e-10 -1 0 
1 47.883184780586937 22.41163474850163 0 -1 0 0 
1 46.224067493199257 22.41163474850163 0 4.2632564145605405e-13 1 0 
1 46.2240674931993 22.511634748501631 0 1 0 0 
1 47.54641865504523 22.511634748501631 0 0 1 0 
1 47.54641865504523 28.553264645507621 0 -1 0 0 
1 44.903670541800658 28.553264645507621 0 0 -1 0 
1 44.903670541800658 22.511634748501631 0 1 0 0 
1 45.157067493199293 22.511634748501631 0 -3.5527136788000718e-13 -1 0 
1 45.157067493199257 22.411634748501619 0 -1 6.361631986256237e-15 0 
1 43.481689058950387 22.41163474850163 0 0 1 0 
1 43.481689058950387 22.511634748501631 0 1 0 0 
1 44.80367054180067 22.511634748501631 0 0 1 0 
1 44.80367054180067 28.553264645507621 0 -1 0 0 
1 42.177922933390278 28.553264645507621 0 0 -1 0 
1 42.177922933390278 22.511634748501631 0 1 0 0 
1 42.414689058950387 22.511634748501631 0 3.5527136788000718e-13 -1 0 
1 42.414689058950422 22.411634748501619 0 -1 0 0 
1 40.779115612017392 22.411634748501619 0 -3.5527136788000718e-13 1 0 
1 40.779115612017357 22.511634748501631 0 1 0 0 
1 42.077922933390248 22.511634748501631 0 0 1 0 
1 42.077922933390248 28.553264645507621 0 -1 0 0 
1 39.452175324979891 28.553264645507621 0 0 -1 0 
1 39.452175324979891 22.511634748501631 0 1 0 0 
1 39.712115612017371 22.511634748501631 0 0 -1 0 
1 39.712115612017371 22.411634748501619 0 -1 0 0 
1 38.018860172240153 22.411634748501619 0 0 1 0 
1 38.018860172240153 22.511634748501631 0 1 0 0 
1 39.352175324979889 22.511634748501631 0 2.3521557853526219e-15 1 0 
1 39.352175324979903 28.553264645507621 0 -1 0 0 
1 36.715094046680051 28.553264645507621 0 0 -1 0 
1 36.715094046680051 22.511634748501631 0 1 0 0 
1 36.951860172240167 22.511634748501631 0 -7.1054273576001436e-14 -1 0 
1 36.95186017224016 22.411634748501619 0 -1 0 0 
1 35.279955139097993 22.411634748501619 0 1.4210854715200287e-13 1 0 
1 35.279955139098007 22.511634748501631 0 1 0 0 
1 36.615094046680049 22.511634748501631 0 0 1 0 
1 36.615094046680049 28.553264645507621 0 -1 0 0 
1 33.978012768380211 28.553264645507621 0 0 -1 0 
1 33.978012768380211 22.511634748501631 0 1 0 0 
1 34.212955139098007 22.511634748501631 0 0 -1 0 
1 34.212955139098007 22.411634748501619 0 -1 0 0 
1 32.550364450585242 22.411634748501619 0 -1.4210854715200287e-13 1 0 
1 32.550364450585228 22.511634748501631 0 1 0 0 
1 33.878012768380223 22.511634748501631 0 0 1 0 
1 33.878012768380223 28.553264645507621 0 -1 0 0 
1 31.246598325025111 28.553264645507621 0 0 -1 0 
1 31.246598325025111 22.511634748501631 0 1 0 0 
1 31.48336445058521 22.511634748501631 0 2.1316282072800431e-13 -1 0 
1 31.483364450585231 22.411634748501619 0 -1 0 0 
1 29.84102643477577 22.411634748501619 0 1.0658141036400215e-13 1 0 
1 29.841026434775781 22.511634748501631 0 1 0 0 
1 31.14659832502511 22.511634748501631 0 0 1 0 
1 31.14659832502511 28.553264645507621 0 -1 0 0 
1 28.515183881670001 28.553264645507621 0 0 -1 0 
1 28.515183881670001 22.511634748501631 0 1 0 0 
1 28.774026434775781 22.511634748501631 0 0 -1 0 
1 28.774026434775781 22.41163474850163 0 -1 0 0 
1 27.07017621594591 22.41163474850163 0 0 1 0 
1 27.07017621594591 22.511634748501631 0 1 0 0 
1 28.41518388167 22.511634748501631 0 0 1 0 
1 28.41518388167 28.553264645507621 0 -1 0 0 
1 25.76641009038579 28.553264645507621 0 0 -1 0 
1 25.76641009038579 22.511634748501631 0 1 0 0 
1 26.003176215945899 22.511634748501631 0 0 -1 0 
1 26.003176215945899 22.411634748501619 0 -1 0 0 
1 24.311750077557829 22.411634748501619 0 3.1974423109200646e-13 1 0 
1 24.311750077557861 22.511634748501631 0 1 0 0 
1 25.666410090385799 22.511634748501631 0 0 1 0 
1 25.666410090385799 28.553264645507621 0 -1 0 0 
1 23.017636299101571 28.553264645507621 0 0 -1 0 
1 23.017636299101571 22.511634748501631 0 1 0 0 
1 23.24475007755785 22.511634748501631 0 0 -1 0 
1 23.24475007755785 22.41163474850163 0 -1 -6.0382984818233508e-15 0 
1 21.479659950184232 22.411634748501619 0 0 1 0 
1 21.479659950184232 22.511634748501631 0 1 0 0 
1 22.917636299101559 22.511634748501631 0 0 1 0 
1 22.917636299101559 28.553264645507621 0 -1 0 0 
1 20.175893824624129 28.553264645507621 0 0 -1 0 
1 20.175893824624129 22.511634748501631 0 1 0 0 
1 20.412659950184231 22.511634748501631 0 -1.0658141036400215e-13 -1 0 
1 20.412659950184221 22.411634748501619 0 -1 0 0 
1 18.637917475706772 22.411634748501619 0 -1.0658141036400215e-13 1 0 
1 18.637917475706761 22.511634748501631 0 1 0 0 
1 20.075893824624099 22.511634748501631 0 0 1 0 
1 20.075893824624099 28.553264645507621 0 -1 0 0 
1 17.334151350146669 28.553264645507621 0 0 -1 0 
1 17.334151350146669 22.511634748501631 0 1 0 0 
1 17.570917475706779 22.511634748501631 0 -7.1054273576001436e-14 -1 0 
1 17.570917475706771 22.411634748501619 0 -1 0 0 
1 17.234151350146661 22.411634748501619 0 0 1 0 
1 17.234151350146661 28.553264645507621 0 -1 0 0 
1 14.71305030680819 28.553264645507621 0 0 -1 0 
1 14.71305030680819 26.974421558294459 0 -1 1.9550583374439226e-10 0 
1 14.613050306808191 26.97442155831401 0 0 1 0 
1 14.613050306808191 28.553264645507621 0 -1 0 0 
1 8.9249999999999972 28.553264645507621 0 -8.3260289329491002e-05 -0.99999999653386218 0 
1 8.9247526490869831 25.58244969700463 0 1 0 0 
1 14.613050306808191 25.58244969700463 0 0 1 0 
1 14.613050306808191 25.90742155831402 0 1 -1.6871837260623638e-10 0 
1 14.71305030680819 25.907421558297148 0 0 -1 0 
1 14.71305030680819 23.90360660981101 0 -1 0 0 
1 14.613050306808191 23.90360660981101 0 0 1 0 
1 14.613050306808191 25.482449697004618 0 -1 2.9467607682267227e-11 0 
1 8.9247506020325034 25.482449697172239 0 -8.257123447150835e-05 -0.99999999659099548 0 
1 8.924505298173969 22.511634748501631 0 1 0 0 
1 14.613050306808191 22.511634748501631 0 0 1 0 
1 14.613050306808191 22.836606609811021 0 1 0 0 
1 14.71305030680819 22.836606609811021 0 0 -1 0 
1 14.71305030680819 21.156837691357691 0 -1 -2.1316282072803081e-13 0 
1 14.613050306808191 21.156837691357669 0 0 1 0 
1 14.613050306808191 22.41163474850163 0 -1 0 0 
1 8.9247526490869831 22.41163474850163 0 -0.00013170280100315116 -0.99999999132718609 0 
1 8.9244040622037915 19.76486583004829 0 1 0 0 
1 14.613050306808191 19.76486583004829 0 0 1 0 
1 14.613050306808191 20.08983769135768 0 1 0 0 
1 14.71305030680819 20.08983769135768 0 0 -1 0 
1 14.71305030680819 18.418110383321459 0 -1 0 0 
1 14.613050306808191 18.418110383321459 0 0 1 0 
1 14.613050306808191 19.664865830048281 0 -1 7.3428106235790746e-11 0 
1 8.9244008306803551 19.664865830465988 0 -0.00013048186955535082 -0.99999999148724084 0 
1 8.9240554753205998 17.018096911594931 0 1 0 0 
1 14.613050306808191 17.018096911594931 0 0 1 0 
1 14.613050306808191 17.351110383321451 0 1 0 0 
1 14.71305030680819 17.351110383321451 0 0 -1 0 
1 14.71305030680819 15.68352780760169 0 -1 -1.9539925233402826e-13 0 
1 14.613050306808191 15.683527807601671 0 0 1 0 
1 14.613050306808191 16.91809691159494 0 -1 0 0 
1 8.9245277376602985 16.91809691159494 0 -0.00017490162410825592 -0.99999998470471096 0 
1 8.9240683513726538 14.291555946292281 0 1 0 0 
1 14.613050306808191 14.291555946292281 0 0 1 0 
1 14.613050306808191 14.616527807601679 0 1 0 0 
1 14.71305030680819 14.616527807601679 0 0 -1 0 
1 14.71305030680819 12.821176375996 0 -1 -1.9539925233402826e-13 0 
1 14.613050306808191 12.82117637599598 0 0 1 0 
1 14.613050306808191 14.191555946292279 0 -1 1.2945360564490465e-10 0 
1 8.9240640605148087 14.191555947028739 0 -0.00017326797062152608 -0.99999998498910503 0 
1 8.9236089650850374 11.56501498098962 0 1 0 0 
1 14.613050306808191 11.56501498098962 0 0 1 0 
1 14.613050306808191 11.754176375995989 0 1 0 0 
1 14.71305030680819 11.754176375995989 0 0 -1 0 
1 14.71305030680819 11.465014980989629 0 -1 0 0 
1 8.9243044825425102 11.465014980989629 0 -0.00020697916996431865 -0.99999997857981138 0 
1 46.670269804463643 17.765298014781731 0 1 0 0 
1 51.529844139892973 17.765298014781731 0 0 1 0 
1 51.529844139892973 17.996254908551091 0 1 0 0 
1 51.62984413989296 17.996254908551091 0 0 -1 0 
1 51.62984413989296 14.19653943481938 0 -1 0 0 
1 48.147242206715191 14.19653943481938 0 0 1 0 
1 48.147242206715191 14.296539434819371 0 1 0 0 
1 51.529844139892973 14.296539434819371 0 0 1 0 
1 51.529844139892973 17.66529801478173 0 -1 0 0 
1 46.670269804463643 17.66529801478173 0 -0.0010784409712966156 -0.99999941848236673 0 
1 46.666636795060498 14.296539420494851 0 0.99999999999999933 3.46332998384488e-08 0 
1 47.080242206715177 14.296539434819371 0 0 -1 0 
1 47.080242206715177 14.19653943481938 0 -1 0 0 
1 46.218686987487033 14.19653943481938 0 0 1 0 
1 46.218686987487033 14.296539434819371 0 1 0 0 
1 46.566663500210041 14.296539434819371 0 0.0010704966840109696 0.9999994270182605 0 
1 46.573038309434281 20.251537396799051 0 -0.99999999969586939 -2.4662948848339958e-05 0 
1 46.218686987487033 20.251528657450521 0 0 1 0 
1 46.218686987487033 20.351430347130648 0 1 0 0 
1 51.62984413989296 20.351430347130648 0 0 -1 0 
1 51.62984413989296 19.06325490855108 0 -1 0 0 
1 51.529844139892973 19.06325490855108 0 0 1 0 
1 51.529844139892973 20.25143034713064 0 -1 0 0 
1 46.673038252136116 20.25143034713064 0 -0.0011135553486051207 -0.99999937999705057 0 
1 45.151686987487011 20.351430347130648 0 0 -1 0 
1 45.151686987487011 20.25150234208407 0 -0.99999999969586939 -2.466294885503138e-05 0 
1 42.232532679082482 20.25143034713064 0 0 -1 0 
1 42.232532679082482 14.296539434819371 0 1 0 0 
1 45.151686987487011 14.296539434819371 0 0 -1 0 
1 45.151686987487011 14.19653943481938 0 -1 0 0 
1 42.132532679082459 14.19653943481938 0 0 1 0 
1 42.132532679082459 20.351430347130648 0 1 0 0 
1 29.583395871983299 7.8994674150702124 0 0 1 0 
1 29.583395871983299 7.999467415070221 0 1 0 0 
1 34.754936523879763 7.999467415070221 0 0 -1 0 
1 34.754936523879763 7.8994674150702124 0 -1 0 0 
1 41.659865857969592 7.8994674150702124 0 0 1 0 
1 41.659865857969592 8.0994674150702295 0 1 0 0 
1 42.032532679082458 8.0994674150702295 0 0 1 0 
1 42.032532679082458 11.374366750178201 0 -1 0 0 
1 39.495133567010903 11.374366750178201 0 0 -1 0 
1 39.495133567010903 8.0994674150702295 0 1 0 0 
1 39.849865857969597 8.0994674150702295 0 -7.105427357600396e-14 -1 0 
1 39.849865857969583 7.8994674150702124 0 -1 0 0 
1 36.564936523879737 7.8994674150702124 0 3.552713678800198e-13 1 0 
1 36.564936523879773 7.999467415070221 0 1 0 0 
1 39.295133567010893 7.999467415070221 0 0 1 0 
1 39.295133567010893 11.4743667501782 0 -1 6.4990748865288028e-16 0 
1 25.628905139006012 11.474366750178209 0 0 -1 0 
1 25.628905139006012 11.40522936877475 0 0 -1 0 
1 25.628905139006012 7.999467415070221 0 1 0 0 
1 27.773395871983301 7.999467415070221 0 2.8421709430401584e-13 -1 0 
1 27.773395871983329 7.8994674150702124 0 -1 0 0 
1 25.52890513900601 7.8994674150702124 0 0 1 0 
1 25.52890513900601 20.351430347130648 0 1 0 0 
1 29.265591902460201 20.351430347130648 0 1.7763568394004777e-13 -1 0 
1 29.265591902460219 20.251430347130661 0 -1 0 0 
1 25.628905139006012 20.251430347130661 0 0 -1 0 
1 25.628905139006012 11.574366750178211 0 1 0 0 
1 33.842938369026541 11.574366750178211 0 0 1 0 
1 33.842938369026541 20.251430347130661 0 -1 0 0 
1 30.332591902460191 20.251430347130661 0 0 1 0 
1 30.332591902460191 20.351430347130648 0 1 0 0 
1 34.204003993918803 20.351430347130648 0 0 -1 0 
1 34.204003993918803 20.251430347130661 0 -1 0 0 
1 33.94293836902655 20.251430347130661 0 0 -1 0 
1 33.94293836902655 15.39203816909475 0 1 0 0 
1 39.295133567010893 15.39203816909475 0 0 1 0 
1 39.295133567010893 20.25143034713064 0 -1 5.2971162298891219e-15 0 
1 35.271003993918782 20.251430347130661 0 0 1 0 
1 35.271003993918782 20.351430347130648 0 1 0 0 
1 39.395133567010909 20.351430347130648 0 0 -1 0 
1 39.395133567010909 13.97837681401637 0 -1 0 0 
1 39.295133567010893 13.97837681401637 0 0 1 0 
1 39.295133567010893 15.292038169094759 0 -1 0 0 
1 33.94293836902655 15.292038169094759 0 0 -1 0 
1 33.94293836902655 11.574366750178211 0 1 0 0 
1 39.295133567010907 11.574366750178211 0 -1.0628831524578699e-14 1 0 
1 39.295133567010893 12.91137681401637 0 1 0 0 
1 39.395133567010909 12.91137681401637 0 0 -1 0 
1 39.395133567010909 11.574366750178211 0 1 0 0 
1 42.45255205576855 11.574366750178211 0 0 -1 0 
1 42.45255205576855 11.474366750178209 0 -1 0 0 
1 42.232532679082482 11.474366750178209 0 0 -1 0 
1 42.232532679082482 7.999467415070221 0 1 0 0 
1 46.56666355744693 7.999467415070221 0 0 1 0 
1 46.56666355744693 11.474366750178209 0 -1 0 0 
1 43.519552055768507 11.474366750178209 0 0 1 0 
1 43.519552055768507 11.574366750178211 0 1 0 0 
1 50.113800854175992 11.574366750178211 0 0 -1 0 
1 50.113800854175992 11.474366750178209 0 -1 0 0 
1 46.666663557446917 11.474366750178209 0 0 -1 0 
1 46.666663557446917 7.999467415070221 0 1 0 0 
1 51.529844139892937 7.999467415070221 0 0 1 0 
1 51.529844139892937 11.474366750178209 0 -1 0 0 
1 51.180800854175999 11.474366750178209 0 0 1 0 
1 51.180800854175999 11.574366750178211 0 1 0 0 
1 51.62984413989296 11.574366750178211 0 0 -1 0 
1 51.62984413989296 7.8994674150702124 0 -1 0 0 
1 54.017186646856899 14.236181717261809 0 0 1 0 
1 54.017186646856899 17.58293986843972 0 1 0 0 
1 58.371177498868008 17.58293986843972 0 0 -1 0 
1 58.371177498868008 8.0994674150702295 0 -1 -3.2638687581619538e-15 0 
1 54.017186646856899 8.0994674150702153 0 0 1 0 
1 54.017186646856899 13.16918171726182 0 -1 0 0 
1 53.817186646856896 13.16918171726182 0 0 -1 0 
1 53.817186646856896 7.8994674150702124 0 1 0 0 
1 58.571177498868011 7.8994674150702124 0 0 1 0 
1 58.571177498868011 20.351430347130648 0 -1 0 0 
1 53.817186646856896 20.351430347130648 0 0 -1 0 
1 53.817186646856896 19.063254908551091 0 1 -1.0658141036402109e-13 0 
1 53.917186646856891 19.06325490855108 0 0 1 0 
1 53.917186646856891 20.25143034713064 0 1 0 0 
1 58.471177498868023 20.25143034713064 0 0 -1 0 
1 58.471177498868023 17.782939868439719 0 -1 0 0 
1 53.917186646856891 17.782939868439719 0 0 1 0 
1 53.917186646856891 17.996254908551091 0 -1 0 0 
1 53.817186646856896 17.996254908551091 0 0 -1 0 
1 53.817186646856896 14.236181717261809 0 1 0 0 
1 21.788142202157768 14.236181717261809 0 0 1 0 
1 21.788142202157768 17.58293986843972 0 -1 0 0 
1 17.434151350146649 17.58293986843972 0 0 -1 0 
1 17.434151350146649 8.0994674150702295 0 1 -3.263868758161946e-15 0 
1 21.788142202157768 8.0994674150702153 0 0 1 0 
1 21.788142202157768 13.16918171726182 0 1 0 0 
1 21.988142202157761 13.16918171726182 0 0 -1 0 
1 21.988142202157761 7.8994674150702124 0 -1 0 0 
1 17.234151350146661 7.8994674150702124 0 0 1 0 
1 17.234151350146661 20.351430347130648 0 1 0 0 
1 21.988142202157761 20.351430347130648 0 0 -1 0 
1 21.988142202157761 19.063254908551091 0 -1 -1.0658141036402487e-13 0 
1 21.88814220215777 19.06325490855108 0 0 1 0 
1 21.88814220215777 20.25143034713064 0 -1 0 0 
1 17.334151350146659 20.25143034713064 0 0 -1 0 
1 17.334151350146659 17.782939868439719 0 1 0 0 
1 21.88814220215777 17.782939868439719 0 0 1 0 
1 21.88814220215777 17.996254908551091 0 1 0 0 
1 21.988142202157761 17.996254908551091 0 0 -1 0 
1 21.988142202157761 14.236181717261809 0 -1 0 0 
Polygon3D 0
PolygonOnTriangulations 0
Surfaces 1
1 35.691724321925754 15.511532713820092 0 0 0 1 1 0 -0 -0 1 0 
Triangulations 0

TShapes 810
Ve
1e-07
8.92314016664272 5.8397345479564 0
0 0

0101101
*
Ve
1e-07
13.3116048817757 5.83973227206186 0
0 0

0101101
*
Ed
 1e-07 1 1 0
1  1 0 0 4.38846471513356
0

0101000
+810 0 -809 0 *
Ve
1e-07
13.3116048817757 5.73973454829164 0
0 0

0101101
*
Ed
 1e-07 1 1 0
1  2 0 0 0.0999977237702145
0

0101000
+809 0 -807 0 *
Ve
1e-07
8.92313197842475 5.73973454829164 0
0 0

0101101
*
Ed
 1e-07 1 1 0
1  3 0 0 4.38847290335091
0

0101000
+807 0 -805 0 *
Ve
1e-07
8.92313197842475 0.0211666666666659 0
0 0

0101101
*
Ed
 1e-07 1 1 0
1  4 0 0 5.71856788162498
0

0101000
+805 0 -803 0 *
Ve
1e-07
14.6818281081321 0.0211666666666659 0
0 0

0101101
*
Ed
 1e-07 1 1 0
1  5 0 0 5.75869612970734
0

0101000
+803 0 -801 0 *
Ve
1e-07
14.6818281081321 5.73973454829164 0
0 0

0101101
*
Ed
 1e-07 1 1 0
1  6 0 0 5.71856788162498
0

0101000
+801 0 -799 0 *
Ve
1e-07
14.3997715484423 5.73973454829164 0
0 0

0101101
*
Ed
 1e-07 1 1 0
1  7 0 0 0.28205655968975
0

0101000
+799 0 -797 0 *
Ve
1e-07
14.3997715484423 5.83972214529268 0
0 0

0101101
*
Ed
 1e-07 1 1 0
1  8 0 0 0.0999875970010313
0

0101000
+797 0 -795 0 *
Ve
1e-07
15.0448306793488 5.83967644772508 0
0 0

0101101
*
Ed
 1e-07 1 1 0
1  9 0 0 0.645059132525075
0

0101000
+795 0 -793 0 *
Ve
1e-07
15.0448306793487 5.73926301369924 0
0 0

0101101
*
Ed
 1e-07 1 1 0
1  10 0 0 0.10041343402584
0

0101000
+793 0 -791 0 *
Ve
1e-07
14.7818281081321 5.73926301369924 0
0 0

0101101
*
Ed
 1e-07 1 1 0
1  11 0 0 0.263002571216639
0

0101000
+791 0 -789 0 *
Ve
1e-07
14.7818281081321 0.0211666666666659 0
0 0

0101101
*
Ed
 1e-07 1 1 0
1  12 0 0 5.71809634703257
0

0101000
+789 0 -787 0 *
Ve
1e-07
20.1600209093137 0.0211666666666659 0
0 0

0101101
*
Ed
 1e-07 1 1 0
1  13 0 0 5.37819280118161
0

0101000
+787 0 -785 0 *
Ve
1e-07
20.1600209093137 5.73926301369924 0
0 0

0101101
*
Ed
 1e-07 1 1 0
1  14 0 0 5.71809634703257
0

0101000
+785 0 -783 0 *
Ve
1e-07
16.1118306793487 5.73926301369924 0
0 0

0101101
*
Ed
 1e-07 1 1 0
1  15 0 0 4.04819022996498
0

0101000
+783 0 -781 0 *
Ve
1e-07
16.1118306793487 5.83966632095589 0
0 0

0101101
*
Ed
 1e-07 1 1 0
1  16 0 0 0.100403307256656
0

0101000
+781 0 -779 0 *
Ve
1e-07
20.517741998793 5.83962450497935 0
0 0

0101101
*
Ed
 1e-07 1 1 0
1  17 0 0 4.40591131964274
0

0101000
+779 0 -777 0 *
Ve
1e-07
20.517741998793 5.73926301369924 0
0 0

0101101
*
Ed
 1e-07 1 1 0
1  18 0 0 0.100361491280111
0

0101000
+777 0 -775 0 *
Ve
1e-07
20.2600209093137 5.73926301369924 0
0 0

0101101
*
Ed
 1e-07 1 1 0
1  19 0 0 0.257721089479329
0

0101000
+775 0 -773 0 *
Ve
1e-07
20.2600209093137 0.0211666666666659 0
0 0

0101101
*
Ed
 1e-07 1 1 0
1  20 0 0 5.71809634703257
0

0101000
+773 0 -771 0 *
Ve
1e-07
25.6406436577503 0.0211666666666659 0
0 0

0101101
*
Ed
 1e-07 1 1 0
1  21 0 0 5.38062274843663
0

0101000
+771 0 -769 0 *
Ve
1e-07
25.6406436577503 5.73926301369924 0
0 0

0101101
*
Ed
 1e-07 1 1 0
1  22 0 0 5.71809634703257
0

0101000
+769 0 -767 0 *
Ve
1e-07
21.584741998793 5.73926301369924 0
0 0

0101101
*
Ed
 1e-07 1 1 0
1  23 0 0 4.05590165895728
0

0101000
+767 0 -765 0 *
Ve
1e-07
21.584741998793 5.83961437821016 0
0 0

0101101
*
Ed
 1e-07 1 1 0
1  24 0 0 0.10035136451092
0

0101000
+765 0 -763 0 *
Ve
1e-07
25.9906533182373 5.83957256223361 0
0 0

0101101
*
Ed
 1e-07 1 1 0
1  25 0 0 4.40591131964274
0

0101000
+763 0 -761 0 *
Ve
1e-07
25.9906533182373 5.73926301369924 0
0 0

0101101
*
Ed
 1e-07 1 1 0
1  26 0 0 0.100309548534376
0

0101000
+761 0 -759 0 *
Ve
1e-07
25.7406436577503 5.73926301369924 0
0 0

0101101
*
Ed
 1e-07 1 1 0
1  27 0 0 0.250009660487009
0

0101000
+759 0 -757 0 *
Ve
1e-07
25.7406436577503 0.0211666666666659 0
0 0

0101101
*
Ed
 1e-07 1 1 0
1  28 0 0 5.71809634703257
0

0101000
+757 0 -755 0 *
Ve
1e-07
31.1029058609661 0.0211666666666659 0
0 0

0101101
*
Ed
 1e-07 1 1 0
1  29 0 0 5.36226220321575
0

0101000
+755 0 -753 0 *
Ve
1e-07
31.1029058609661 5.73926301369924 0
0 0

0101101
*
Ed
 1e-07 1 1 0
1  30 0 0 5.71809634703257
0

0101000
+753 0 -751 0 *
Ve
1e-07
27.0576533182374 5.73926301369924 0
0 0

0101101
*
Ed
 1e-07 1 1 0
1  31 0 0 4.04525254272872
0

0101000
+751 0 -749 0 *
Ve
1e-07
27.0576533182374 5.83956243546444 0
0 0

0101101
*
Ed
 1e-07 1 1 0
1  32 0 0 0.1002994217652
0

0101000
+749 0 -747 0 *
Ve
1e-07
31.500744741754 5.83952026661598 0
0 0

0101101
*
Ed
 1e-07 1 1 0
1  33 0 0 4.44309142371675
0

0101000
+747 0 -745 0 *
Ve
1e-07
31.500744741754 5.73926301369924 0
0 0

0101101
*
Ed
 1e-07 1 1 0
1  34 0 0 0.100257252916748
0

0101000
+745 0 -743 0 *
Ve
1e-07
31.2029058609661 5.73926301369924 0
0 0

0101101
*
Ed
 1e-07 1 1 0
1  35 0 0 0.297838880787911
0

0101000
+743 0 -741 0 *
Ve
1e-07
31.2029058609661 0.0211666666666659 0
0 0

0101101
*
Ed
 1e-07 1 1 0
1  36 0 0 5.71809634703257
0

0101000
+741 0 -739 0 *
Ve
1e-07
36.5927088820132 0.0211666666666659 0
0 0

0101101
*
Ed
 1e-07 1 1 0
1  37 0 0 5.38980302104709
0

0101000
+739 0 -737 0 *
Ve
1e-07
36.5927088820132 5.73926301369924 0
0 0

0101101
*
Ed
 1e-07 1 1 0
1  38 0 0 5.71809634703257
0

0101000
+737 0 -735 0 *
Ve
1e-07
32.567744741754 5.73926301369924 0
0 0

0101101
*
Ed
 1e-07 1 1 0
1  39 0 0 4.02496414025919
0

0101000
+735 0 -733 0 *
Ve
1e-07
32.567744741754 5.8395101398468 0
0 0

0101101
*
Ed
 1e-07 1 1 0
1  40 0 0 0.100247126147564
0

0101000
+733 0 -731 0 *
Ve
1e-07
36.936475957126 5.83946867674218 0
0 0

0101101
*
Ed
 1e-07 1 1 0
1  41 0 0 4.36873121556874
0

0101000
+731 0 -729 0 *
Ve
1e-07
36.936475957126 5.73926301369924 0
0 0

0101101
*
Ed
 1e-07 1 1 0
1  42 0 0 0.100205663042942
0

0101000
+729 0 -727 0 *
Ve
1e-07
36.6927088820132 5.73926301369924 0
0 0

0101101
*
Ed
 1e-07 1 1 0
1  43 0 0 0.2437670751128
0

0101000
+727 0 -725 0 *
Ve
1e-07
36.6927088820132 0.0211666666666659 0
0 0

0101101
*
Ed
 1e-07 1 1 0
1  44 0 0 5.71809634703257
0

0101000
+725 0 -723 0 *
Ve
1e-07
42.0641513578393 0.0211666666666659 0
0 0

0101101
*
Ed
 1e-07 1 1 0
1  45 0 0 5.37144247582619
0

0101000
+723 0 -721 0 *
Ve
1e-07
42.0641513578393 5.73926301369924 0
0 0

0101101
*
Ed
 1e-07 1 1 0
1  46 0 0 5.71809634703257
0

0101000
+721 0 -719 0 *
Ve
1e-07
38.003475957126 5.73926301369924 0
0 0

0101101
*
Ed
 1e-07 1 1 0
1  47 0 0 4.06067540071336
0

0101000
+719 0 -717 0 *
Ve
1e-07
38.003475957126 5.839458549973 0
0 0

0101101
*
Ed
 1e-07 1 1 0
1  48 0 0 0.100195536273759
0

0101000
+717 0 -715 0 *
Ve
1e-07
42.4391313598281 5.83941645169891 0
0 0

0101101
*
Ed
 1e-07 1 1 0
1  49 0 0 4.43565540290191
0

0101000
+715 0 -713 0 *
Ve
1e-07
42.4391313598282 5.73926301369924 0
0 0

0101101
*
Ed
 1e-07 1 1 0
1  50 0 0 0.100153437999673
0

0101000
+713 0 -711 0 *
Ve
1e-07
42.1641513578393 5.73926301369924 0
0 0

0101101
*
Ed
 1e-07 1 1 0
1  51 0 0 0.274980001988816
0

0101000
+711 0 -709 0 *
Ve
1e-07
42.1641513578393 0.0211666666666659 0
0 0

0101101
*
Ed
 1e-07 1 1 0
1  52 0 0 5.71809634703257
0

0101000
+709 0 -707 0 *
Ve
1e-07
47.544774106276 0.0211666666666659 0
0 0

0101101
*
Ed
 1e-07 1 1 0
1  53 0 0 5.38062274843664
0

0101000
+707 0 -705 0 *
Ve
1e-07
47.544774106276 5.73926301369924 0
0 0

0101101
*
Ed
 1e-07 1 1 0
1  54 0 0 5.71809634703257
0

0101000
+705 0 -703 0 *
Ve
1e-07
43.5061313598281 5.73926301369924 0
0 0

0101101
*
Ed
 1e-07 1 1 0
1  55 0 0 4.03864274644786
0

0101000
+703 0 -701 0 *
Ve
1e-07
43.5061313598281 5.83940632492973 0
0 0

0101101
*
Ed
 1e-07 1 1 0
1  56 0 0 0.100143311230489
0

0101000
+701 0 -699 0 *
Ve
1e-07
47.9020805087353 5.83936460350295 0
0 0

0101101
*
Ed
 1e-07 1 1 0
1  57 0 0 4.39594914910518
0

0101000
+699 0 -697 0 *
Ve
1e-07
47.9020805087353 5.73926301369924 0
0 0

0101101
*
Ed
 1e-07 1 1 0
1  58 0 0 0.100101589803715
0

0101000
+697 0 -695 0 *
Ve
1e-07
47.644774106276 5.73926301369924 0
0 0

0101101
*
Ed
 1e-07 1 1 0
1  59 0 0 0.257306402459342
0

0101000
+695 0 -693 0 *
Ve
1e-07
47.644774106276 0.0211666666666659 0
0 0

0101101
*
Ed
 1e-07 1 1 0
1  60 0 0 5.71809634703257
0

0101000
+693 0 -691 0 *
Ve
1e-07
53.0253968547126 0.0211666666666659 0
0 0

0101101
*
Ed
 1e-07 1 1 0
1  61 0 0 5.38062274843663
0

0101000
+691 0 -689 0 *
Ve
1e-07
53.0253968547126 5.73926301369924 0
0 0

0101101
*
Ed
 1e-07 1 1 0
1  62 0 0 5.71809634703257
0

0101000
+689 0 -687 0 *
Ve
1e-07
48.9690805087353 5.73926301369924 0
0 0

0101101
*
Ed
 1e-07 1 1 0
1  63 0 0 4.05631634597727
0

0101000
+687 0 -685 0 *
Ve
1e-07
48.9690805087353 5.83935447673377 0
0 0

0101101
*
Ed
 1e-07 1 1 0
1  64 0 0 0.100091463034531
0

0101000
+685 0 -683 0 *
Ve
1e-07
53.3771482742158 5.83931264029065 0
0 0

0101101
*
Ed
 1e-07 1 1 0
1  65 0 0 4.40806776567902
0

0101000
+683 0 -681 0 *
Ve
1e-07
53.3771482742158 5.73926301369924 0
0 0

0101101
*
Ed
 1e-07 1 1 0
1  66 0 0 0.100049626591414
0

0101000
+681 0 -679 0 *
Ve
1e-07
53.1253968547126 5.73926301369924 0
0 0

0101101
*
Ed
 1e-07 1 1 0
1  67 0 0 0.251751419503222
0

0101000
+679 0 -677 0 *
Ve
1e-07
53.1253968547126 0.0211666666666659 0
0 0

0101101
*
Ed
 1e-07 1 1 0
1  68 0 0 5.71809634703257
0

0101000
+677 0 -675 0 *
Ve
1e-07
58.5060196031492 0.0211666666666659 0
0 0

0101101
*
Ed
 1e-07 1 1 0
1  69 0 0 5.38062274843664
0

0101000
+675 0 -673 0 *
Ve
1e-07
58.5060196031492 5.73926301369924 0
0 0

0101101
*
Ed
 1e-07 1 1 0
1  70 0 0 5.71809634703257
0

0101000
+673 0 -671 0 *
Ve
1e-07
54.4441482742158 5.73926301369924 0
0 0

0101101
*
Ed
 1e-07 1 1 0
1  71 0 0 4.06187132893341
0

0101000
+671 0 -669 0 *
Ve
1e-07
54.4441482742158 5.83930251352147 0
0 0

0101101
*
Ed
 1e-07 1 1 0
1  72 0 0 0.10003949982223
0

0101000
+669 0 -667 0 *
Ve
1e-07
58.6060196031492 5.83926301369925 0
0 0

0101101
*
Ed
 1e-07 1 1 0
1  73 0 0 4.16187132912087
0

0101000
+667 0 -665 0 *
Ve
1e-07
58.6060196031492 0.0211666666666659 0
0 0

0101101
*
Ed
 1e-07 1 1 0
1  74 0 0 5.81809634703258
0

0101000
+665 0 -663 0 *
Ve
1e-07
66.7932915412505 0.0211666666666659 0
0 0

0101101
*
Ed
 1e-07 1 1 0
1  75 0 0 8.18727193810128
0

0101000
+663 0 -661 0 *
Ve
1e-07
66.7932915412505 7.89946741507023 0
0 0

0101101
*
Ed
 1e-07 1 1 0
1  76 0 0 7.87830074840356
0

0101000
+661 0 -659 0 *
Ve
1e-07
61.1444298351542 7.89946741507023 0
0 0

0101101
*
Ed
 1e-07 1 1 0
1  77 0 0 5.64886170609628
0

0101000
+659 0 -657 0 *
Ve
1e-07
61.1444298351542 8.32354768004595 0
0 0

0101101
*
Ed
 1e-07 1 1 0
1  78 0 0 0.424080264975721
0

0101000
+657 0 -655 0 *
Ve
1e-07
61.2444298351543 8.32354768004594 0
0 0

0101101
*
Ed
 1e-07 1 1 0
1  79 0 0 0.100000000000016
0

0101000
+655 0 -653 0 *
Ve
1e-07
61.2444298351543 8.09946741507023 0
0 0

0101101
*
Ed
 1e-07 1 1 0
1  80 0 0 0.224080264975711
0

0101000
+653 0 -651 0 *
Ve
1e-07
66.7932915412505 8.09946741507023 0
0 0

0101101
*
Ed
 1e-07 1 1 0
1  81 0 0 5.54886170609627
0

0101000
+651 0 -649 0 *
Ve
1e-07
66.7932915412505 13.5718145291205 0
0 0

0101101
*
Ed
 1e-07 1 1 0
1  82 0 0 5.47234711405032
0

0101000
+649 0 -647 0 *
Ve
1e-07
61.2444298351543 13.5718145291205 0
0 0

0101101
*
Ed
 1e-07 1 1 0
1  83 0 0 5.54886170609627
0

0101000
+647 0 -645 0 *
Ve
1e-07
61.2444298351543 9.39054768004595 0
0 0

0101101
*
Ed
 1e-07 1 1 0
1  84 0 0 4.1812668490746
0

0101000
+645 0 -643 0 *
Ve
1e-07
61.1444298351542 9.39054768004595 0
0 0

0101101
*
Ed
 1e-07 1 1 0
1  85 0 0 0.100000000000016
0

0101000
+643 0 -641 0 *
Ve
1e-07
61.1444298351542 13.9128289385351 0
0 0

0101101
*
Ed
 1e-07 1 1 0
1  86 0 0 4.52228125848916
0

0101000
+641 0 -639 0 *
Ve
1e-07
61.2444298351543 13.9128289385351 0
0 0

0101101
*
Ed
 1e-07 1 1 0
1  87 0 0 0.100000000000016
0

0101000
+639 0 -637 0 *
Ve
1e-07
61.2444298351543 13.6718145291206 0
0 0

0101101
*
Ed
 1e-07 1 1 0
1  88 0 0 0.241014409414559
0

0101000
+637 0 -635 0 *
Ve
1e-07
66.7932915412505 13.6718145291205 0
0 0

0101101
*
Ed
 1e-07 1 1 0
1  89 0 0 5.54886170609627
0

0101000
+635 0 -633 0 *
Ve
1e-07
66.7932915412505 19.0376272080007 0
0 0

0101101
*
Ed
 1e-07 1 1 0
1  90 0 0 5.36581267888012
0

0101000
+633 0 -631 0 *
Ve
1e-07
61.2444298351543 19.0376272080007 0
0 0

0101101
*
Ed
 1e-07 1 1 0
1  91 0 0 5.54886170609627
0

0101000
+631 0 -629 0 *
Ve
1e-07
61.2444298351543 14.9798289385351 0
0 0

0101101
*
Ed
 1e-07 1 1 0
1  92 0 0 4.05779826946555
0

0101000
+629 0 -627 0 *
Ve
1e-07
61.1444298351542 14.9798289385351 0
0 0

0101101
*
Ed
 1e-07 1 1 0
1  93 0 0 0.100000000000016
0

0101000
+627 0 -625 0 *
Ve
1e-07
61.1444298351542 19.3498825525245 0
0 0

0101101
*
Ed
 1e-07 1 1 0
1  94 0 0 4.37005361398935
0

0101000
+625 0 -623 0 *
Ve
1e-07
61.2444298351543 19.3498825525245 0
0 0

0101101
*
Ed
 1e-07 1 1 0
1  95 0 0 0.100000000000016
0

0101000
+623 0 -621 0 *
Ve
1e-07
61.2444298351543 19.1376272080007 0
0 0

0101101
*
Ed
 1e-07 1 1 0
1  96 0 0 0.212255344523811
0

0101000
+621 0 -619 0 *
Ve
1e-07
66.7932915412505 19.1376272080007 0
0 0

0101101
*
Ed
 1e-07 1 1 0
1  97 0 0 5.54886170609627
0

0101000
+619 0 -617 0 *
Ve
1e-07
66.7932915412505 24.5182865155731 0
0 0

0101101
*
Ed
 1e-07 1 1 0
1  98 0 0 5.38065930757244
0

0101000
+617 0 -615 0 *
Ve
1e-07
61.2444298351543 24.5182865155731 0
0 0

0101101
*
Ed
 1e-07 1 1 0
1  99 0 0 5.54886170609627
0

0101000
+615 0 -613 0 *
Ve
1e-07
61.2444298351543 20.4168825525245 0
0 0

0101101
*
Ed
 1e-07 1 1 0
1  100 0 0 4.10140396304862
0

0101000
+613 0 -611 0 *
Ve
1e-07
61.1444298351542 20.4168825525245 0
0 0

0101101
*
Ed
 1e-07 1 1 0
1  101 0 0 0.100000000000016
0

0101000
+611 0 -609 0 *
Ve
1e-07
61.1444298351542 24.8433919914539 0
0 0

0101101
*
Ed
 1e-07 1 1 0
1  102 0 0 4.42650943892947
0

0101000
+609 0 -607 0 *
Ve
1e-07
61.2444298351543 24.8433919914539 0
0 0

0101101
*
Ed
 1e-07 1 1 0
1  103 0 0 0.100000000000016
0

0101000
+607 0 -605 0 *
Ve
1e-07
61.2444298351543 24.6182865155731 0
0 0

0101101
*
Ed
 1e-07 1 1 0
1  104 0 0 0.225105475880838
0

0101000
+605 0 -603 0 *
Ve
1e-07
66.7932915412505 24.6182865155731 0
0 0

0101101
*
Ed
 1e-07 1 1 0
1  105 0 0 5.54886170609627
0

0101000
+603 0 -601 0 *
Ve
1e-07
66.7932915412505 28.5532646455076 0
0 0

0101101
*
Ed
 1e-07 1 1 0
1  106 0 0 3.93497812993451
0

0101000
+601 0 -599 0 *
Ve
1e-07
61.2444298351543 28.5532646455076 0
0 0

0101101
*
Ed
 1e-07 1 1 0
1  107 0 0 5.54886170609627
0

0101000
+599 0 -597 0 *
Ve
1e-07
61.2444298351543 25.9103919914539 0
0 0

0101101
*
Ed
 1e-07 1 1 0
1  108 0 0 2.64287265405368
0

0101000
+597 0 -595 0 *
Ve
1e-07
61.1444298351542 25.9103919914539 0
0 0

0101101
*
Ed
 1e-07 1 1 0
1  109 0 0 0.100000000000016
0

0101000
+595 0 -593 0 *
Ve
1e-07
61.1444298351542 28.5532646455076 0
0 0

0101101
*
Ed
 1e-07 1 1 0
1  110 0 0 2.64287265405368
0

0101000
+593 0 -591 0 *
Ve
1e-07
50.3891667682897 28.5532646455076 0
0 0

0101101
*
Ed
 1e-07 1 1 0
1  111 0 0 10.7552630668645
0

0101000
+591 0 -589 0 *
Ve
1e-07
50.3891667682897 22.4116347485016 0
0 0

0101101
*
Ed
 1e-07 1 1 0
1  112 0 0 6.141629897006
0

0101000
+589 0 -587 0 *
Ve
1e-07
48.9501847805836 22.4116347485016 0
0 0

0101101
*
Ed
 1e-07 1 1 0
1  113 0 0 1.43898198770617
0

0101000
+587 0 -585 0 *
Ve
1e-07
48.9501847806053 22.5116347485016 0
0 0

0101101
*
Ed
 1e-07 1 1 0
1  114 0 0 0.100000000000012
0

0101000
+585 0 -583 0 *
Ve
1e-07
50.2891667682898 22.5116347485016 0
0 0

0101101
*
Ed
 1e-07 1 1 0
1  115 0 0 1.33898198768443
0

0101000
+583 0 -581 0 *
Ve
1e-07
50.2891667682898 28.5532646455076 0
0 0

0101101
*
Ed
 1e-07 1 1 0
1  116 0 0 6.04162989700599
0

0101000
+581 0 -579 0 *
Ve
1e-07
47.6464186550452 28.5532646455076 0
0 0

0101101
*
Ed
 1e-07 1 1 0
1  117 0 0 2.64274811324455
0

0101000
+579 0 -577 0 *
Ve
1e-07
47.6464186550452 22.5116347485016 0
0 0

0101101
*
Ed
 1e-07 1 1 0
1  118 0 0 6.04162989700599
0

0101000
+577 0 -575 0 *
Ve
1e-07
47.8831847806053 22.5116347485016 0
0 0

0101101
*
Ed
 1e-07 1 1 0
1  119 0 0 0.236766125560102
0

0101000
+575 0 -573 0 *
Ve
1e-07
47.8831847805869 22.4116347485016 0
0 0

0101101
*
Ed
 1e-07 1 1 0
1  120 0 0 0.100000000000001
0

0101000
+573 0 -571 0 *
Ve
1e-07
46.2240674931993 22.4116347485016 0
0 0

0101101
*
Ed
 1e-07 1 1 0
1  121 0 0 1.65911728738768
0

0101000
+571 0 -569 0 *
Ve
1e-07
46.2240674931993 22.5116347485016 0
0 0

0101101
*
Ed
 1e-07 1 1 0
1  122 0 0 0.100000000000001
0

0101000
+569 0 -567 0 *
Ve
1e-07
47.5464186550452 22.5116347485016 0
0 0

0101101
*
Ed
 1e-07 1 1 0
1  123 0 0 1.32235116184593
0

0101000
+567 0 -565 0 *
Ve
1e-07
47.5464186550452 28.5532646455076 0
0 0

0101101
*
Ed
 1e-07 1 1 0
1  124 0 0 6.04162989700599
0

0101000
+565 0 -563 0 *
Ve
1e-07
44.9036705418007 28.5532646455076 0
0 0

0101101
*
Ed
 1e-07 1 1 0
1  125 0 0 2.64274811324457
0

0101000
+563 0 -561 0 *
Ve
1e-07
44.9036705418007 22.5116347485016 0
0 0

0101101
*
Ed
 1e-07 1 1 0
1  126 0 0 6.04162989700599
0

0101000
+561 0 -559 0 *
Ve
1e-07
45.1570674931993 22.5116347485016 0
0 0

0101101
*
Ed
 1e-07 1 1 0
1  127 0 0 0.253396951398635
0

0101000
+559 0 -557 0 *
Ve
1e-07
45.1570674931993 22.4116347485016 0
0 0

0101101
*
Ed
 1e-07 1 1 0
1  128 0 0 0.100000000000012
0

0101000
+557 0 -555 0 *
Ve
1e-07
43.4816890589504 22.4116347485016 0
0 0

0101101
*
Ed
 1e-07 1 1 0
1  129 0 0 1.67537843424887
0

0101000
+555 0 -553 0 *
Ve
1e-07
43.4816890589504 22.5116347485016 0
0 0

0101101
*
Ed
 1e-07 1 1 0
1  130 0 0 0.100000000000001
0

0101000
+553 0 -551 0 *
Ve
1e-07
44.8036705418007 22.5116347485016 0
0 0

0101101
*
Ed
 1e-07 1 1 0
1  131 0 0 1.32198148285028
0

0101000
+551 0 -549 0 *
Ve
1e-07
44.8036705418007 28.5532646455076 0
0 0

0101101
*
Ed
 1e-07 1 1 0
1  132 0 0 6.04162989700599
0

0101000
+549 0 -547 0 *
Ve
1e-07
42.1779229333903 28.5532646455076 0
0 0

0101101
*
Ed
 1e-07 1 1 0
1  133 0 0 2.62574760841039
0

0101000
+547 0 -545 0 *
Ve
1e-07
42.1779229333903 22.5116347485016 0
0 0

0101101
*
Ed
 1e-07 1 1 0
1  134 0 0 6.04162989700599
0

0101000
+545 0 -543 0 *
Ve
1e-07
42.4146890589504 22.5116347485016 0
0 0

0101101
*
Ed
 1e-07 1 1 0
1  135 0 0 0.236766125560109
0

0101000
+543 0 -541 0 *
Ve
1e-07
42.4146890589504 22.4116347485016 0
0 0

0101101
*
Ed
 1e-07 1 1 0
1  136 0 0 0.100000000000012
0

0101000
+541 0 -539 0 *
Ve
1e-07
40.7791156120174 22.4116347485016 0
0 0

0101101
*
Ed
 1e-07 1 1 0
1  137 0 0 1.63557344693303
0

0101000
+539 0 -537 0 *
Ve
1e-07
40.7791156120174 22.5116347485016 0
0 0

0101101
*
Ed
 1e-07 1 1 0
1  138 0 0 0.100000000000012
0

0101000
+537 0 -535 0 *
Ve
1e-07
42.0779229333902 22.5116347485016 0
0 0

0101101
*
Ed
 1e-07 1 1 0
1  139 0 0 1.29880732137289
0

0101000
+535 0 -533 0 *
Ve
1e-07
42.0779229333902 28.5532646455076 0
0 0

0101101
*
Ed
 1e-07 1 1 0
1  140 0 0 6.04162989700599
0

0101000
+533 0 -531 0 *
Ve
1e-07
39.4521753249799 28.5532646455076 0
0 0

0101101
*
Ed
 1e-07 1 1 0
1  141 0 0 2.62574760841036
0

0101000
+531 0 -529 0 *
Ve
1e-07
39.4521753249799 22.5116347485016 0
0 0

0101101
*
Ed
 1e-07 1 1 0
1  142 0 0 6.04162989700599
0

0101000
+529 0 -527 0 *
Ve
1e-07
39.7121156120174 22.5116347485016 0
0 0

0101101
*
Ed
 1e-07 1 1 0
1  143 0 0 0.25994028703748
0

0101000
+527 0 -525 0 *
Ve
1e-07
39.7121156120174 22.4116347485016 0
0 0

0101101
*
Ed
 1e-07 1 1 0
1  144 0 0 0.100000000000012
0

0101000
+525 0 -523 0 *
Ve
1e-07
38.0188601722402 22.4116347485016 0
0 0

0101101
*
Ed
 1e-07 1 1 0
1  145 0 0 1.69325543977722
0

0101000
+523 0 -521 0 *
Ve
1e-07
38.0188601722402 22.5116347485016 0
0 0

0101101
*
Ed
 1e-07 1 1 0
1  146 0 0 0.100000000000012
0

0101000
+521 0 -519 0 *
Ve
1e-07
39.3521753249799 22.5116347485016 0
0 0

0101101
*
Ed
 1e-07 1 1 0
1  147 0 0 1.33331515273974
0

0101000
+519 0 -517 0 *
Ve
1e-07
39.3521753249799 28.5532646455076 0
0 0

0101101
*
Ed
 1e-07 1 1 0
1  148 0 0 6.04162989700599
0

0101000
+517 0 -515 0 *
Ve
1e-07
36.7150940466801 28.5532646455076 0
0 0

0101101
*
Ed
 1e-07 1 1 0
1  149 0 0 2.63708127829985
0

0101000
+515 0 -513 0 *
Ve
1e-07
36.7150940466801 22.5116347485016 0
0 0

0101101
*
Ed
 1e-07 1 1 0
1  150 0 0 6.04162989700599
0

0101000
+513 0 -511 0 *
Ve
1e-07
36.9518601722402 22.5116347485016 0
0 0

0101101
*
Ed
 1e-07 1 1 0
1  151 0 0 0.236766125560116
0

0101000
+511 0 -509 0 *
Ve
1e-07
36.9518601722402 22.4116347485016 0
0 0

0101101
*
Ed
 1e-07 1 1 0
1  152 0 0 0.100000000000012
0

0101000
+509 0 -507 0 *
Ve
1e-07
35.279955139098 22.4116347485016 0
0 0

0101101
*
Ed
 1e-07 1 1 0
1  153 0 0 1.67190503314217
0

0101000
+507 0 -505 0 *
Ve
1e-07
35.279955139098 22.5116347485016 0
0 0

0101101
*
Ed
 1e-07 1 1 0
1  154 0 0 0.100000000000012
0

0101000
+505 0 -503 0 *
Ve
1e-07
36.61509404668 22.5116347485016 0
0 0

0101101
*
Ed
 1e-07 1 1 0
1  155 0 0 1.33513890758204
0

0101000
+503 0 -501 0 *
Ve
1e-07
36.61509404668 28.5532646455076 0
0 0

0101101
*
Ed
 1e-07 1 1 0
1  156 0 0 6.04162989700599
0

0101000
+501 0 -499 0 *
Ve
1e-07
33.9780127683802 28.5532646455076 0
0 0

0101101
*
Ed
 1e-07 1 1 0
1  157 0 0 2.63708127829984
0

0101000
+499 0 -497 0 *
Ve
1e-07
33.9780127683802 22.5116347485016 0
0 0

0101101
*
Ed
 1e-07 1 1 0
1  158 0 0 6.04162989700599
0

0101000
+497 0 -495 0 *
Ve
1e-07
34.212955139098 22.5116347485016 0
0 0

0101101
*
Ed
 1e-07 1 1 0
1  159 0 0 0.234942370717796
0

0101000
+495 0 -493 0 *
Ve
1e-07
34.212955139098 22.4116347485016 0
0 0

0101101
*
Ed
 1e-07 1 1 0
1  160 0 0 0.100000000000012
0

0101000
+493 0 -491 0 *
Ve
1e-07
32.5503644505852 22.4116347485016 0
0 0

0101101
*
Ed
 1e-07 1 1 0
1  161 0 0 1.66259068851276
0

0101000
+491 0 -489 0 *
Ve
1e-07
32.5503644505852 22.5116347485016 0
0 0

0101101
*
Ed
 1e-07 1 1 0
1  162 0 0 0.100000000000012
0

0101000
+489 0 -487 0 *
Ve
1e-07
33.8780127683802 22.5116347485016 0
0 0

0101101
*
Ed
 1e-07 1 1 0
1  163 0 0 1.327648317795
0

0101000
+487 0 -485 0 *
Ve
1e-07
33.8780127683802 28.5532646455076 0
0 0

0101101
*
Ed
 1e-07 1 1 0
1  164 0 0 6.04162989700599
0

0101000
+485 0 -483 0 *
Ve
1e-07
31.2465983250251 28.5532646455076 0
0 0

0101101
*
Ed
 1e-07 1 1 0
1  165 0 0 2.63141444335511
0

0101000
+483 0 -481 0 *
Ve
1e-07
31.2465983250251 22.5116347485016 0
0 0

0101101
*
Ed
 1e-07 1 1 0
1  166 0 0 6.04162989700599
0

0101000
+481 0 -479 0 *
Ve
1e-07
31.4833644505852 22.5116347485016 0
0 0

0101101
*
Ed
 1e-07 1 1 0
1  167 0 0 0.236766125560099
0

0101000
+479 0 -477 0 *
Ve
1e-07
31.4833644505852 22.4116347485016 0
0 0

0101101
*
Ed
 1e-07 1 1 0
1  168 0 0 0.100000000000012
0

0101000
+477 0 -475 0 *
Ve
1e-07
29.8410264347758 22.4116347485016 0
0 0

0101101
*
Ed
 1e-07 1 1 0
1  169 0 0 1.64233801580946
0

0101000
+475 0 -473 0 *
Ve
1e-07
29.8410264347758 22.5116347485016 0
0 0

0101101
*
Ed
 1e-07 1 1 0
1  170 0 0 0.100000000000012
0

0101000
+473 0 -471 0 *
Ve
1e-07
31.1465983250251 22.5116347485016 0
0 0

0101101
*
Ed
 1e-07 1 1 0
1  171 0 0 1.30557189024933
0

0101000
+471 0 -469 0 *
Ve
1e-07
31.1465983250251 28.5532646455076 0
0 0

0101101
*
Ed
 1e-07 1 1 0
1  172 0 0 6.04162989700599
0

0101000
+469 0 -467 0 *
Ve
1e-07
28.51518388167 28.5532646455076 0
0 0

0101101
*
Ed
 1e-07 1 1 0
1  173 0 0 2.63141444335511
0

0101000
+467 0 -465 0 *
Ve
1e-07
28.51518388167 22.5116347485016 0
0 0

0101101
*
Ed
 1e-07 1 1 0
1  174 0 0 6.04162989700599
0

0101000
+465 0 -463 0 *
Ve
1e-07
28.7740264347758 22.5116347485016 0
0 0

0101101
*
Ed
 1e-07 1 1 0
1  175 0 0 0.258842553105779
0

0101000
+463 0 -461 0 *
Ve
1e-07
28.7740264347758 22.4116347485016 0
0 0

0101101
*
Ed
 1e-07 1 1 0
1  176 0 0 0.100000000000001
0

0101000
+461 0 -459 0 *
Ve
1e-07
27.0701762159459 22.4116347485016 0
0 0

0101101
*
Ed
 1e-07 1 1 0
1  177 0 0 1.70385021882987
0

0101000
+459 0 -457 0 *
Ve
1e-07
27.0701762159459 22.5116347485016 0
0 0

0101101
*
Ed
 1e-07 1 1 0
1  178 0 0 0.100000000000001
0

0101000
+457 0 -455 0 *
Ve
1e-07
28.41518388167 22.5116347485016 0
0 0

0101101
*
Ed
 1e-07 1 1 0
1  179 0 0 1.34500766572409
0

0101000
+455 0 -453 0 *
Ve
1e-07
28.41518388167 28.5532646455076 0
0 0

0101101
*
Ed
 1e-07 1 1 0
1  180 0 0 6.04162989700599
0

0101000
+453 0 -451 0 *
Ve
1e-07
25.7664100903858 28.5532646455076 0
0 0

0101101
*
Ed
 1e-07 1 1 0
1  181 0 0 2.64877379128421
0

0101000
+451 0 -449 0 *
Ve
1e-07
25.7664100903858 22.5116347485016 0
0 0

0101101
*
Ed
 1e-07 1 1 0
1  182 0 0 6.04162989700599
0

0101000
+449 0 -447 0 *
Ve
1e-07
26.0031762159459 22.5116347485016 0
0 0

0101101
*
Ed
 1e-07 1 1 0
1  183 0 0 0.236766125560109
0

0101000
+447 0 -445 0 *
Ve
1e-07
26.0031762159459 22.4116347485016 0
0 0

0101101
*
Ed
 1e-07 1 1 0
1  184 0 0 0.100000000000012
0

0101000
+445 0 -443 0 *
Ve
1e-07
24.3117500775578 22.4116347485016 0
0 0

0101101
*
Ed
 1e-07 1 1 0
1  185 0 0 1.69142613838807
0

0101000
+443 0 -441 0 *
Ve
1e-07
24.3117500775579 22.5116347485016 0
0 0

0101101
*
Ed
 1e-07 1 1 0
1  186 0 0 0.100000000000012
0

0101000
+441 0 -439 0 *
Ve
1e-07
25.6664100903858 22.5116347485016 0
0 0

0101101
*
Ed
 1e-07 1 1 0
1  187 0 0 1.35466001282794
0

0101000
+439 0 -437 0 *
Ve
1e-07
25.6664100903858 28.5532646455076 0
0 0

0101101
*
Ed
 1e-07 1 1 0
1  188 0 0 6.04162989700599
0

0101000
+437 0 -435 0 *
Ve
1e-07
23.0176362991016 28.5532646455076 0
0 0

0101101
*
Ed
 1e-07 1 1 0
1  189 0 0 2.64877379128423
0

0101000
+435 0 -433 0 *
Ve
1e-07
23.0176362991016 22.5116347485016 0
0 0

0101101
*
Ed
 1e-07 1 1 0
1  190 0 0 6.04162989700599
0

0101000
+433 0 -431 0 *
Ve
1e-07
23.2447500775578 22.5116347485016 0
0 0

0101101
*
Ed
 1e-07 1 1 0
1  191 0 0 0.227113778456278
0

0101000
+431 0 -429 0 *
Ve
1e-07
23.2447500775578 22.4116347485016 0
0 0

0101101
*
Ed
 1e-07 1 1 0
1  192 0 0 0.100000000000001
0

0101000
+429 0 -427 0 *
Ve
1e-07
21.4796599501842 22.4116347485016 0
0 0

0101101
*
Ed
 1e-07 1 1 0
1  193 0 0 1.76509012737362
0

0101000
+427 0 -425 0 *
Ve
1e-07
21.4796599501842 22.5116347485016 0
0 0

0101101
*
Ed
 1e-07 1 1 0
1  194 0 0 0.100000000000012
0

0101000
+425 0 -423 0 *
Ve
1e-07
22.9176362991016 22.5116347485016 0
0 0

0101101
*
Ed
 1e-07 1 1 0
1  195 0 0 1.43797634891733
0

0101000
+423 0 -421 0 *
Ve
1e-07
22.9176362991016 28.5532646455076 0
0 0

0101101
*
Ed
 1e-07 1 1 0
1  196 0 0 6.04162989700599
0

0101000
+421 0 -419 0 *
Ve
1e-07
20.1758938246241 28.5532646455076 0
0 0

0101101
*
Ed
 1e-07 1 1 0
1  197 0 0 2.74174247447743
0

0101000
+419 0 -417 0 *
Ve
1e-07
20.1758938246241 22.5116347485016 0
0 0

0101101
*
Ed
 1e-07 1 1 0
1  198 0 0 6.04162989700599
0

0101000
+417 0 -415 0 *
Ve
1e-07
20.4126599501842 22.5116347485016 0
0 0

0101101
*
Ed
 1e-07 1 1 0
1  199 0 0 0.236766125560102
0

0101000
+415 0 -413 0 *
Ve
1e-07
20.4126599501842 22.4116347485016 0
0 0

0101101
*
Ed
 1e-07 1 1 0
1  200 0 0 0.100000000000012
0

0101000
+413 0 -411 0 *
Ve
1e-07
18.6379174757068 22.4116347485016 0
0 0

0101101
*
Ed
 1e-07 1 1 0
1  201 0 0 1.77474247447745
0

0101000
+411 0 -409 0 *
Ve
1e-07
18.6379174757068 22.5116347485016 0
0 0

0101101
*
Ed
 1e-07 1 1 0
1  202 0 0 0.100000000000012
0

0101000
+409 0 -407 0 *
Ve
1e-07
20.0758938246241 22.5116347485016 0
0 0

0101101
*
Ed
 1e-07 1 1 0
1  203 0 0 1.43797634891734
0

0101000
+407 0 -405 0 *
Ve
1e-07
20.0758938246241 28.5532646455076 0
0 0

0101101
*
Ed
 1e-07 1 1 0
1  204 0 0 6.04162989700599
0

0101000
+405 0 -403 0 *
Ve
1e-07
17.3341513501467 28.5532646455076 0
0 0

0101101
*
Ed
 1e-07 1 1 0
1  205 0 0 2.74174247447743
0

0101000
+403 0 -401 0 *
Ve
1e-07
17.3341513501467 22.5116347485016 0
0 0

0101101
*
Ed
 1e-07 1 1 0
1  206 0 0 6.04162989700599
0

0101000
+401 0 -399 0 *
Ve
1e-07
17.5709174757068 22.5116347485016 0
0 0

0101101
*
Ed
 1e-07 1 1 0
1  207 0 0 0.236766125560109
0

0101000
+399 0 -397 0 *
Ve
1e-07
17.5709174757068 22.4116347485016 0
0 0

0101101
*
Ed
 1e-07 1 1 0
1  208 0 0 0.100000000000012
0

0101000
+397 0 -395 0 *
Ve
1e-07
17.2341513501467 22.4116347485016 0
0 0

0101101
*
Ed
 1e-07 1 1 0
1  209 0 0 0.336766125560111
0

0101000
+395 0 -393 0 *
Ve
1e-07
17.2341513501467 28.5532646455076 0
0 0

0101101
*
Ed
 1e-07 1 1 0
1  210 0 0 6.141629897006
0

0101000
+393 0 -391 0 *
Ve
1e-07
14.7130503068082 28.5532646455076 0
0 0

0101101
*
Ed
 1e-07 1 1 0
1  211 0 0 2.52110104333847
0

0101000
+391 0 -389 0 *
Ve
1e-07
14.7130503068082 26.9744215582945 0
0 0

0101101
*
Ed
 1e-07 1 1 0
1  212 0 0 1.57884308721316
0

0101000
+389 0 -387 0 *
Ve
1e-07
14.6130503068082 26.974421558314 0
0 0

0101101
*
Ed
 1e-07 1 1 0
1  213 0 0 0.0999999999999996
0

0101000
+387 0 -385 0 *
Ve
1e-07
14.6130503068082 28.5532646455076 0
0 0

0101101
*
Ed
 1e-07 1 1 0
1  214 0 0 1.57884308719361
0

0101000
+385 0 -383 0 *
Ve
1e-07
8.925 28.5532646455076 0
0 0

0101101
*
Ed
 1e-07 1 1 0
1  215 0 0 5.68805030680819
0

0101000
+383 0 -381 0 *
Ve
1e-07
8.92475264908698 25.5824496970046 0
0 0

0101101
*
Ed
 1e-07 1 1 0
1  216 0 0 2.97081495880024
0

0101000
+381 0 -379 0 *
Ve
1e-07
14.6130503068082 25.5824496970046 0
0 0

0101101
*
Ed
 1e-07 1 1 0
1  217 0 0 5.68829765772121
0

0101000
+379 0 -377 0 *
Ve
1e-07
14.6130503068082 25.907421558314 0
0 0

0101101
*
Ed
 1e-07 1 1 0
1  218 0 0 0.32497186130939
0

0101000
+377 0 -375 0 *
Ve
1e-07
14.7130503068082 25.9074215582971 0
0 0

0101101
*
Ed
 1e-07 1 1 0
1  219 0 0 0.0999999999999996
0

0101000
+375 0 -373 0 *
Ve
1e-07
14.7130503068082 23.903606609811 0
0 0

0101101
*
Ed
 1e-07 1 1 0
1  220 0 0 2.00381494848614
0

0101000
+373 0 -371 0 *
Ve
1e-07
14.6130503068082 23.903606609811 0
0 0

0101101
*
Ed
 1e-07 1 1 0
1  221 0 0 0.0999999999999996
0

0101000
+371 0 -369 0 *
Ve
1e-07
14.6130503068082 25.4824496970046 0
0 0

0101101
*
Ed
 1e-07 1 1 0
1  222 0 0 1.57884308719361
0

0101000
+369 0 -367 0 *
Ve
1e-07
8.9247506020325 25.4824496971722 0
0 0

0101101
*
Ed
 1e-07 1 1 0
1  223 0 0 5.68829970477569
0

0101000
+367 0 -365 0 *
Ve
1e-07
8.92450529817397 22.5116347485016 0
0 0

0101101
*
Ed
 1e-07 1 1 0
1  224 0 0 2.97081495879813
0

0101000
+365 0 -363 0 *
Ve
1e-07
14.6130503068082 22.5116347485016 0
0 0

0101101
*
Ed
 1e-07 1 1 0
1  225 0 0 5.68854500863422
0

0101000
+363 0 -361 0 *
Ve
1e-07
14.6130503068082 22.836606609811 0
0 0

0101101
*
Ed
 1e-07 1 1 0
1  226 0 0 0.32497186130939
0

0101000
+361 0 -359 0 *
Ve
1e-07
14.7130503068082 22.836606609811 0
0 0

0101101
*
Ed
 1e-07 1 1 0
1  227 0 0 0.0999999999999996
0

0101000
+359 0 -357 0 *
Ve
1e-07
14.7130503068082 21.1568376913577 0
0 0

0101101
*
Ed
 1e-07 1 1 0
1  228 0 0 1.67976891845333
0

0101000
+357 0 -355 0 *
Ve
1e-07
14.6130503068082 21.1568376913577 0
0 0

0101101
*
Ed
 1e-07 1 1 0
1  229 0 0 0.0999999999999996
0

0101000
+355 0 -353 0 *
Ve
1e-07
14.6130503068082 22.4116347485016 0
0 0

0101101
*
Ed
 1e-07 1 1 0
1  230 0 0 1.25479705714396
0

0101000
+353 0 -351 0 *
Ve
1e-07
8.92475264908698 22.4116347485016 0
0 0

0101101
*
Ed
 1e-07 1 1 0
1  231 0 0 5.68829765772121
0

0101000
+351 0 -349 0 *
Ve
1e-07
8.92440406220379 19.7648658300483 0
0 0

0101101
*
Ed
 1e-07 1 1 0
1  232 0 0 2.64676894140827
0

0101000
+349 0 -347 0 *
Ve
1e-07
14.6130503068082 19.7648658300483 0
0 0

0101101
*
Ed
 1e-07 1 1 0
1  233 0 0 5.6886462446044
0

0101000
+347 0 -345 0 *
Ve
1e-07
14.6130503068082 20.0898376913577 0
0 0

0101101
*
Ed
 1e-07 1 1 0
1  234 0 0 0.32497186130939
0

0101000
+345 0 -343 0 *
Ve
1e-07
14.7130503068082 20.0898376913577 0
0 0

0101101
*
Ed
 1e-07 1 1 0
1  235 0 0 0.0999999999999996
0

0101000
+343 0 -341 0 *
Ve
1e-07
14.7130503068082 18.4181103833215 0
0 0

0101101
*
Ed
 1e-07 1 1 0
1  236 0 0 1.67172730803622
0

0101000
+341 0 -339 0 *
Ve
1e-07
14.6130503068082 18.4181103833215 0
0 0

0101101
*
Ed
 1e-07 1 1 0
1  237 0 0 0.0999999999999996
0

0101000
+339 0 -337 0 *
Ve
1e-07
14.6130503068082 19.6648658300483 0
0 0

0101101
*
Ed
 1e-07 1 1 0
1  238 0 0 1.24675544672682
0

0101000
+337 0 -335 0 *
Ve
1e-07
8.92440083068036 19.664865830466 0
0 0

0101101
*
Ed
 1e-07 1 1 0
1  239 0 0 5.68864947612784
0

0101000
+335 0 -333 0 *
Ve
1e-07
8.9240554753206 17.0180969115949 0
0 0

0101101
*
Ed
 1e-07 1 1 0
1  240 0 0 2.64676894140236
0

0101000
+333 0 -331 0 *
Ve
1e-07
14.6130503068082 17.0180969115949 0
0 0

0101101
*
Ed
 1e-07 1 1 0
1  241 0 0 5.68899483148759
0

0101000
+331 0 -329 0 *
Ve
1e-07
14.6130503068082 17.3511103833215 0
0 0

0101101
*
Ed
 1e-07 1 1 0
1  242 0 0 0.33301347172652
0

0101000
+329 0 -327 0 *
Ve
1e-07
14.7130503068082 17.3511103833215 0
0 0

0101101
*
Ed
 1e-07 1 1 0
1  243 0 0 0.0999999999999996
0

0101000
+327 0 -325 0 *
Ve
1e-07
14.7130503068082 15.6835278076017 0
0 0

0101101
*
Ed
 1e-07 1 1 0
1  244 0 0 1.66758257571976
0

0101000
+325 0 -323 0 *
Ve
1e-07
14.6130503068082 15.6835278076017 0
0 0

0101101
*
Ed
 1e-07 1 1 0
1  245 0 0 0.0999999999999996
0

0101000
+323 0 -321 0 *
Ve
1e-07
14.6130503068082 16.9180969115949 0
0 0

0101101
*
Ed
 1e-07 1 1 0
1  246 0 0 1.23456910399327
0

0101000
+321 0 -319 0 *
Ve
1e-07
8.9245277376603 16.9180969115949 0
0 0

0101101
*
Ed
 1e-07 1 1 0
1  247 0 0 5.68852256914789
0

0101000
+319 0 -317 0 *
Ve
1e-07
8.92406835137265 14.2915559462923 0
0 0

0101101
*
Ed
 1e-07 1 1 0
1  248 0 0 2.62654100547636
0

0101000
+317 0 -315 0 *
Ve
1e-07
14.6130503068082 14.2915559462923 0
0 0

0101101
*
Ed
 1e-07 1 1 0
1  249 0 0 5.68898195543554
0

0101000
+315 0 -313 0 *
Ve
1e-07
14.6130503068082 14.6165278076017 0
0 0

0101101
*
Ed
 1e-07 1 1 0
1  250 0 0 0.324971861309399
0

0101000
+313 0 -311 0 *
Ve
1e-07
14.7130503068082 14.6165278076017 0
0 0

0101101
*
Ed
 1e-07 1 1 0
1  251 0 0 0.0999999999999996
0

0101000
+311 0 -309 0 *
Ve
1e-07
14.7130503068082 12.821176375996 0
0 0

0101101
*
Ed
 1e-07 1 1 0
1  252 0 0 1.79535143160568
0

0101000
+309 0 -307 0 *
Ve
1e-07
14.6130503068082 12.821176375996 0
0 0

0101101
*
Ed
 1e-07 1 1 0
1  253 0 0 0.0999999999999996
0

0101000
+307 0 -305 0 *
Ve
1e-07
14.6130503068082 14.1915559462923 0
0 0

0101101
*
Ed
 1e-07 1 1 0
1  254 0 0 1.3703795702963
0

0101000
+305 0 -303 0 *
Ve
1e-07
8.92406406051481 14.1915559470287 0
0 0

0101101
*
Ed
 1e-07 1 1 0
1  255 0 0 5.68898624629338
0

0101000
+303 0 -301 0 *
Ve
1e-07
8.92360896508504 11.5650149809896 0
0 0

0101101
*
Ed
 1e-07 1 1 0
1  256 0 0 2.62654100546585
0

0101000
+301 0 -299 0 *
Ve
1e-07
14.6130503068082 11.5650149809896 0
0 0

0101101
*
Ed
 1e-07 1 1 0
1  257 0 0 5.68944134172315
0

0101000
+299 0 -297 0 *
Ve
1e-07
14.6130503068082 11.754176375996 0
0 0

0101101
*
Ed
 1e-07 1 1 0
1  258 0 0 0.189161395006369
0

0101000
+297 0 -295 0 *
Ve
1e-07
14.7130503068082 11.754176375996 0
0 0

0101101
*
Ed
 1e-07 1 1 0
1  259 0 0 0.0999999999999996
0

0101000
+295 0 -293 0 *
Ve
1e-07
14.7130503068082 11.4650149809896 0
0 0

0101101
*
Ed
 1e-07 1 1 0
1  260 0 0 0.28916139500636
0

0101000
+293 0 -291 0 *
Ve
1e-07
8.92430448254251 11.4650149809896 0
0 0

0101101
*
Ed
 1e-07 1 1 0
1  261 0 0 5.78874582426568
0

0101000
+291 0 -289 0 *
Ed
 1e-07 1 1 0
1  262 0 0 5.6252805535278
0

0101000
+289 0 -810 0 *
Wi

0101100
+808 0 +806 0 +804 0 +802 0 +800 0 +798 0 +796 0 +794 0 +792 0 +790 0 
+788 0 +786 0 +784 0 +782 0 +780 0 +778 0 +776 0 +774 0 +772 0 +770 0 
+768 0 +766 0 +764 0 +762 0 +760 0 +758 0 +756 0 +754 0 +752 0 +750 0 
+748 0 +746 0 +744 0 +742 0 +740 0 +738 0 +736 0 +734 0 +732 0 +730 0 
+728 0 +726 0 +724 0 +722 0 +720 0 +718 0 +716 0 +714 0 +712 0 +710 0 
+708 0 +706 0 +704 0 +702 0 +700 0 +698 0 +696 0 +694 0 +692 0 +690 0 
+688 0 +686 0 +684 0 +682 0 +680 0 +678 0 +676 0 +674 0 +672 0 +670 0 
+668 0 +666 0 +664 0 +662 0 +660 0 +658 0 +656 0 +654 0 +652 0 +650 0 
+648 0 +646 0 +644 0 +642 0 +640 0 +638 0 +636 0 +634 0 +632 0 +630 0 
+628 0 +626 0 +624 0 +622 0 +620 0 +618 0 +616 0 +614 0 +612 0 +610 0 
+608 0 +606 0 +604 0 +602 0 +600 0 +598 0 +596 0 +594 0 +592 0 +590 0 
+588 0 +586 0 +584 0 +582 0 +580 0 +578 0 +576 0 +574 0 +572 0 +570 0 
+568 0 +566 0 +564 0 +562 0 +560 0 +558 0 +556 0 +554 0 +552 0 +550 0 
+548 0 +546 0 +544 0 +542 0 +540 0 +538 0 +536 0 +534 0 +532 0 +530 0 
+528 0 +526 0 +524 0 +522 0 +520 0 +518 0 +516 0 +514 0 +512 0 +510 0 
+508 0 +506 0 +504 0 +502 0 +500 0 +498 0 +496 0 +494 0 +492 0 +490 0 
+488 0 +486 0 +484 0 +482 0 +480 0 +478 0 +476 0 +474 0 +472 0 +470 0 
+468 0 +466 0 +464 0 +462 0 +460 0 +458 0 +456 0 +454 0 +452 0 +450 0 
+448 0 +446 0 +444 0 +442 0 +440 0 +438 0 +436 0 +434 0 +432 0 +430 0 
+428 0 +426 0 +424 0 +422 0 +420 0 +418 0 +416 0 +414 0 +412 0 +410 0 
+408 0 +406 0 +404 0 +402 0 +400 0 +398 0 +396 0 +394 0 +392 0 +390 0 
+388 0 +386 0 +384 0 +382 0 +380 0 +378 0 +376 0 +374 0 +372 0 +370 0 
+368 0 +366 0 +364 0 +362 0 +360 0 +358 0 +356 0 +354 0 +352 0 +350 0 
+348 0 +346 0 +344 0 +342 0 +340 0 +338 0 +336 0 +334 0 +332 0 +330 0 
+328 0 +326 0 +324 0 +322 0 +320 0 +318 0 +316 0 +314 0 +312 0 +310 0 
+308 0 +306 0 +304 0 +302 0 +300 0 +298 0 +296 0 +294 0 +292 0 +290 0 
+288 0 +287 0 *
Ve
1e-07
46.6702698044636 17.7652980147817 0
0 0

0101101
*
Ve
1e-07
51.529844139893 17.7652980147817 0
0 0

0101101
*
Ed
 1e-07 1 1 0
1  263 0 0 4.85957433542933
0

0101000
+285 0 -284 0 *
Ve
1e-07
51.529844139893 17.9962549085511 0
0 0

0101101
*
Ed
 1e-07 1 1 0
1  264 0 0 0.23095689376936
0

0101000
+284 0 -282 0 *
Ve
1e-07
51.629844139893 17.9962549085511 0
0 0

0101101
*
Ed
 1e-07 1 1 0
1  265 0 0 0.0999999999999872
0

0101000
+282 0 -280 0 *
Ve
1e-07
51.629844139893 14.1965394348194 0
0 0

0101101
*
Ed
 1e-07 1 1 0
1  266 0 0 3.79971547373171
0

0101000
+280 0 -278 0 *
Ve
1e-07
48.1472422067152 14.1965394348194 0
0 0

0101101
*
Ed
 1e-07 1 1 0
1  267 0 0 3.48260193317777
0

0101000
+278 0 -276 0 *
Ve
1e-07
48.1472422067152 14.2965394348194 0
0 0

0101101
*
Ed
 1e-07 1 1 0
1  268 0 0 0.0999999999999908
0

0101000
+276 0 -274 0 *
Ve
1e-07
51.529844139893 14.2965394348194 0
0 0

0101101
*
Ed
 1e-07 1 1 0
1  269 0 0 3.38260193317778
0

0101000
+274 0 -272 0 *
Ve
1e-07
51.529844139893 17.6652980147817 0
0 0

0101101
*
Ed
 1e-07 1 1 0
1  270 0 0 3.36875857996236
0

0101000
+272 0 -270 0 *
Ve
1e-07
46.6702698044636 17.6652980147817 0
0 0

0101101
*
Ed
 1e-07 1 1 0
1  271 0 0 4.85957433542933
0

0101000
+270 0 -268 0 *
Ve
1e-07
46.6666367950605 14.2965394204949 0
0 0

0101101
*
Ed
 1e-07 1 1 0
1  272 0 0 3.36876055328054
0

0101000
+268 0 -266 0 *
Ve
1e-07
47.0802422067152 14.2965394348194 0
0 0

0101101
*
Ed
 1e-07 1 1 0
1  273 0 0 0.413605411654679
0

0101000
+266 0 -264 0 *
Ve
1e-07
47.0802422067152 14.1965394348194 0
0 0

0101101
*
Ed
 1e-07 1 1 0
1  274 0 0 0.0999999999999908
0

0101000
+264 0 -262 0 *
Ve
1e-07
46.218686987487 14.1965394348194 0
0 0

0101101
*
Ed
 1e-07 1 1 0
1  275 0 0 0.861555219228144
0

0101000
+262 0 -260 0 *
Ve
1e-07
46.218686987487 14.2965394348194 0
0 0

0101101
*
Ed
 1e-07 1 1 0
1  276 0 0 0.0999999999999908
0

0101000
+260 0 -258 0 *
Ve
1e-07
46.56666350021 14.2965394348194 0
0 0

0101101
*
Ed
 1e-07 1 1 0
1  277 0 0 0.347976512723008
0

0101000
+258 0 -256 0 *
Ve
1e-07
46.5730383094343 20.2515373967991 0
0 0

0101101
*
Ed
 1e-07 1 1 0
1  278 0 0 5.95500137408673
0

0101000
+256 0 -254 0 *
Ve
1e-07
46.218686987487 20.2515286574505 0
0 0

0101101
*
Ed
 1e-07 1 1 0
1  279 0 0 0.354351322055018
0

0101000
+254 0 -252 0 *
Ve
1e-07
46.218686987487 20.3514303471306 0
0 0

0101101
*
Ed
 1e-07 1 1 0
1  280 0 0 0.0999016896801272
0

0101000
+252 0 -250 0 *
Ve
1e-07
51.629844139893 20.3514303471306 0
0 0

0101101
*
Ed
 1e-07 1 1 0
1  281 0 0 5.41115715240593
0

0101000
+250 0 -248 0 *
Ve
1e-07
51.629844139893 19.0632549085511 0
0 0

0101101
*
Ed
 1e-07 1 1 0
1  282 0 0 1.28817543857957
0

0101000
+248 0 -246 0 *
Ve
1e-07
51.529844139893 19.0632549085511 0
0 0

0101101
*
Ed
 1e-07 1 1 0
1  283 0 0 0.0999999999999872
0

0101000
+246 0 -244 0 *
Ve
1e-07
51.529844139893 20.2514303471306 0
0 0

0101101
*
Ed
 1e-07 1 1 0
1  284 0 0 1.18817543857956
0

0101000
+244 0 -242 0 *
Ve
1e-07
46.6730382521361 20.2514303471306 0
0 0

0101101
*
Ed
 1e-07 1 1 0
1  285 0 0 4.85680588775686
0

0101000
+242 0 -240 0 *
Ed
 1e-07 1 1 0
1  286 0 0 2.48613387375924
0

0101000
+240 0 -285 0 *
Wi

0101100
+283 0 +281 0 +279 0 +277 0 +275 0 +273 0 +271 0 +269 0 +267 0 +265 0 
+263 0 +261 0 +259 0 +257 0 +255 0 +253 0 +251 0 +249 0 +247 0 +245 0 
+243 0 +241 0 +239 0 +238 0 *
Ve
1e-07
45.151686987487 20.3514303471306 0
0 0

0101101
*
Ve
1e-07
45.151686987487 20.2515023420841 0
0 0

0101101
*
Ed
 1e-07 1 1 0
1  287 0 0 0.0999280050465785
0

0101000
+236 0 -235 0 *
Ve
1e-07
42.2325326790825 20.2514303471306 0
0 0

0101101
*
Ed
 1e-07 1 1 0
1  288 0 0 2.91915430929233
0

0101000
+235 0 -233 0 *
Ve
1e-07
42.2325326790825 14.2965394348194 0
0 0

0101101
*
Ed
 1e-07 1 1 0
1  289 0 0 5.95489091231127
0

0101000
+233 0 -231 0 *
Ve
1e-07
45.151686987487 14.2965394348194 0
0 0

0101101
*
Ed
 1e-07 1 1 0
1  290 0 0 2.91915430840453
0

0101000
+231 0 -229 0 *
Ve
1e-07
45.151686987487 14.1965394348194 0
0 0

0101101
*
Ed
 1e-07 1 1 0
1  291 0 0 0.0999999999999908
0

0101000
+229 0 -227 0 *
Ve
1e-07
42.1325326790825 14.1965394348194 0
0 0

0101101
*
Ed
 1e-07 1 1 0
1  292 0 0 3.01915430840455
0

0101000
+227 0 -225 0 *
Ve
1e-07
42.1325326790825 20.3514303471306 0
0 0

0101101
*
Ed
 1e-07 1 1 0
1  293 0 0 6.15489091231127
0

0101000
+225 0 -223 0 *
Ed
 1e-07 1 1 0
1  294 0 0 3.01915430840455
0

0101000
+223 0 -236 0 *
Wi

0101100
+234 0 +232 0 +230 0 +228 0 +226 0 +224 0 +222 0 +221 0 *
Ve
1e-07
29.5833958719833 7.89946741507021 0
0 0

0101101
*
Ve
1e-07
29.5833958719833 7.99946741507022 0
0 0

0101101
*
Ed
 1e-07 1 1 0
1  295 0 0 0.100000000000009
0

0101000
+219 0 -218 0 *
Ve
1e-07
34.7549365238798 7.99946741507022 0
0 0

0101101
*
Ed
 1e-07 1 1 0
1  296 0 0 5.17154065189646
0

0101000
+218 0 -216 0 *
Ve
1e-07
34.7549365238798 7.89946741507021 0
0 0

0101101
*
Ed
 1e-07 1 1 0
1  297 0 0 0.100000000000009
0

0101000
+216 0 -214 0 *
Ed
 1e-07 1 1 0
1  298 0 0 5.17154065189646
0

0101000
+214 0 -219 0 *
Wi

0101100
+217 0 +215 0 +213 0 +212 0 *
Ve
1e-07
41.6598658579696 7.89946741507021 0
0 0

0101101
*
Ve
1e-07
41.6598658579696 8.09946741507023 0
0 0

0101101
*
Ed
 1e-07 1 1 0
1  299 0 0 0.200000000000017
0

0101000
+210 0 -209 0 *
Ve
1e-07
42.0325326790825 8.09946741507023 0
0 0

0101101
*
Ed
 1e-07 1 1 0
1  300 0 0 0.372666821112865
0

0101000
+209 0 -207 0 *
Ve
1e-07
42.0325326790825 11.3743667501782 0
0 0

0101101
*
Ed
 1e-07 1 1 0
1  301 0 0 3.27489933510797
0

0101000
+207 0 -205 0 *
Ve
1e-07
39.4951335670109 11.3743667501782 0
0 0

0101101
*
Ed
 1e-07 1 1 0
1  302 0 0 2.53739911207155
0

0101000
+205 0 -203 0 *
Ve
1e-07
39.4951335670109 8.09946741507023 0
0 0

0101101
*
Ed
 1e-07 1 1 0
1  303 0 0 3.27489933510797
0

0101000
+203 0 -201 0 *
Ve
1e-07
39.8498658579696 8.09946741507023 0
0 0

0101101
*
Ed
 1e-07 1 1 0
1  304 0 0 0.354732290958694
0

0101000
+201 0 -199 0 *
Ve
1e-07
39.8498658579696 7.89946741507021 0
0 0

0101101
*
Ed
 1e-07 1 1 0
1  305 0 0 0.200000000000017
0

0101000
+199 0 -197 0 *
Ve
1e-07
36.5649365238797 7.89946741507021 0
0 0

0101101
*
Ed
 1e-07 1 1 0
1  306 0 0 3.28492933408985
0

0101000
+197 0 -195 0 *
Ve
1e-07
36.5649365238798 7.99946741507022 0
0 0

0101101
*
Ed
 1e-07 1 1 0
1  307 0 0 0.100000000000009
0

0101000
+195 0 -193 0 *
Ve
1e-07
39.2951335670109 7.99946741507022 0
0 0

0101101
*
Ed
 1e-07 1 1 0
1  308 0 0 2.73019704313112
0

0101000
+193 0 -191 0 *
Ve
1e-07
39.2951335670109 11.4743667501782 0
0 0

0101101
*
Ed
 1e-07 1 1 0
1  309 0 0 3.47489933510798
0

0101000
+191 0 -189 0 *
Ve
1e-07
25.628905139006 11.4743667501782 0
0 0

0101101
*
Ed
 1e-07 1 1 0
1  310 0 0 13.6662284280049
0

0101000
+189 0 -187 0 *
Ve
1e-07
25.628905139006 11.4052293687747 0
0 0

0101101
*
Ed
 1e-07 1 1 0
1  311 0 0 0.0691373814034595
0

0101000
+187 0 -185 0 *
Ve
1e-07
25.628905139006 7.99946741507022 0
0 0

0101101
*
Ed
 1e-07 1 1 0
1  312 0 0 3.40576195370453
0

0101000
+185 0 -183 0 *
Ve
1e-07
27.7733958719833 7.99946741507022 0
0 0

0101101
*
Ed
 1e-07 1 1 0
1  313 0 0 2.14449073297729
0

0101000
+183 0 -181 0 *
Ve
1e-07
27.7733958719833 7.89946741507021 0
0 0

0101101
*
Ed
 1e-07 1 1 0
1  314 0 0 0.100000000000009
0

0101000
+181 0 -179 0 *
Ve
1e-07
25.528905139006 7.89946741507021 0
0 0

0101101
*
Ed
 1e-07 1 1 0
1  315 0 0 2.24449073297732
0

0101000
+179 0 -177 0 *
Ve
1e-07
25.528905139006 20.3514303471306 0
0 0

0101101
*
Ed
 1e-07 1 1 0
1  316 0 0 12.4519629320604
0

0101000
+177 0 -175 0 *
Ve
1e-07
29.2655919024602 20.3514303471306 0
0 0

0101101
*
Ed
 1e-07 1 1 0
1  317 0 0 3.73668676345419
0

0101000
+175 0 -173 0 *
Ve
1e-07
29.2655919024602 20.2514303471307 0
0 0

0101101
*
Ed
 1e-07 1 1 0
1  318 0 0 0.0999999999999872
0

0101000
+173 0 -171 0 *
Ve
1e-07
25.628905139006 20.2514303471307 0
0 0

0101101
*
Ed
 1e-07 1 1 0
1  319 0 0 3.63668676345421
0

0101000
+171 0 -169 0 *
Ve
1e-07
25.628905139006 11.5743667501782 0
0 0

0101101
*
Ed
 1e-07 1 1 0
1  320 0 0 8.67706359695245
0

0101000
+169 0 -167 0 *
Ve
1e-07
33.8429383690265 11.5743667501782 0
0 0

0101101
*
Ed
 1e-07 1 1 0
1  321 0 0 8.21403323002053
0

0101000
+167 0 -165 0 *
Ve
1e-07
33.8429383690265 20.2514303471307 0
0 0

0101101
*
Ed
 1e-07 1 1 0
1  322 0 0 8.67706359695245
0

0101000
+165 0 -163 0 *
Ve
1e-07
30.3325919024602 20.2514303471307 0
0 0

0101101
*
Ed
 1e-07 1 1 0
1  323 0 0 3.51034646656635
0

0101000
+163 0 -161 0 *
Ve
1e-07
30.3325919024602 20.3514303471306 0
0 0

0101101
*
Ed
 1e-07 1 1 0
1  324 0 0 0.0999999999999872
0

0101000
+161 0 -159 0 *
Ve
1e-07
34.2040039939188 20.3514303471306 0
0 0

0101101
*
Ed
 1e-07 1 1 0
1  325 0 0 3.87141209145861
0

0101000
+159 0 -157 0 *
Ve
1e-07
34.2040039939188 20.2514303471307 0
0 0

0101101
*
Ed
 1e-07 1 1 0
1  326 0 0 0.0999999999999872
0

0101000
+157 0 -155 0 *
Ve
1e-07
33.9429383690265 20.2514303471307 0
0 0

0101101
*
Ed
 1e-07 1 1 0
1  327 0 0 0.261065624892254
0

0101000
+155 0 -153 0 *
Ve
1e-07
33.9429383690265 15.3920381690948 0
0 0

0101101
*
Ed
 1e-07 1 1 0
1  328 0 0 4.85939217803591
0

0101000
+153 0 -151 0 *
Ve
1e-07
39.2951335670109 15.3920381690948 0
0 0

0101101
*
Ed
 1e-07 1 1 0
1  329 0 0 5.35219519798434
0

0101000
+151 0 -149 0 *
Ve
1e-07
39.2951335670109 20.2514303471306 0
0 0

0101101
*
Ed
 1e-07 1 1 0
1  330 0 0 4.85939217803589
0

0101000
+149 0 -147 0 *
Ve
1e-07
35.2710039939188 20.2514303471307 0
0 0

0101101
*
Ed
 1e-07 1 1 0
1  331 0 0 4.02412957309211
0

0101000
+147 0 -145 0 *
Ve
1e-07
35.2710039939188 20.3514303471306 0
0 0

0101101
*
Ed
 1e-07 1 1 0
1  332 0 0 0.0999999999999872
0

0101000
+145 0 -143 0 *
Ve
1e-07
39.3951335670109 20.3514303471306 0
0 0

0101101
*
Ed
 1e-07 1 1 0
1  333 0 0 4.12412957309213
0

0101000
+143 0 -141 0 *
Ve
1e-07
39.3951335670109 13.9783768140164 0
0 0

0101101
*
Ed
 1e-07 1 1 0
1  334 0 0 6.37305353311428
0

0101000
+141 0 -139 0 *
Ve
1e-07
39.2951335670109 13.9783768140164 0
0 0

0101101
*
Ed
 1e-07 1 1 0
1  335 0 0 0.100000000000016
0

0101000
+139 0 -137 0 *
Ve
1e-07
39.2951335670109 15.2920381690948 0
0 0

0101101
*
Ed
 1e-07 1 1 0
1  336 0 0 1.31366135507839
0

0101000
+137 0 -135 0 *
Ve
1e-07
33.9429383690265 15.2920381690948 0
0 0

0101101
*
Ed
 1e-07 1 1 0
1  337 0 0 5.35219519798434
0

0101000
+135 0 -133 0 *
Ve
1e-07
33.9429383690265 11.5743667501782 0
0 0

0101101
*
Ed
 1e-07 1 1 0
1  338 0 0 3.71767141891655
0

0101000
+133 0 -131 0 *
Ve
1e-07
39.2951335670109 11.5743667501782 0
0 0

0101101
*
Ed
 1e-07 1 1 0
1  339 0 0 5.35219519798436
0

0101000
+131 0 -129 0 *
Ve
1e-07
39.2951335670109 12.9113768140164 0
0 0

0101101
*
Ed
 1e-07 1 1 0
1  340 0 0 1.33701006383816
0

0101000
+129 0 -127 0 *
Ve
1e-07
39.3951335670109 12.9113768140164 0
0 0

0101101
*
Ed
 1e-07 1 1 0
1  341 0 0 0.100000000000016
0

0101000
+127 0 -125 0 *
Ve
1e-07
39.3951335670109 11.5743667501782 0
0 0

0101101
*
Ed
 1e-07 1 1 0
1  342 0 0 1.33701006383816
0

0101000
+125 0 -123 0 *
Ve
1e-07
42.4525520557685 11.5743667501782 0
0 0

0101101
*
Ed
 1e-07 1 1 0
1  343 0 0 3.05741848875764
0

0101000
+123 0 -121 0 *
Ve
1e-07
42.4525520557685 11.4743667501782 0
0 0

0101101
*
Ed
 1e-07 1 1 0
1  344 0 0 0.100000000000001
0

0101000
+121 0 -119 0 *
Ve
1e-07
42.2325326790825 11.4743667501782 0
0 0

0101101
*
Ed
 1e-07 1 1 0
1  345 0 0 0.220019376686068
0

0101000
+119 0 -117 0 *
Ve
1e-07
42.2325326790825 7.99946741507022 0
0 0

0101101
*
Ed
 1e-07 1 1 0
1  346 0 0 3.47489933510799
0

0101000
+117 0 -115 0 *
Ve
1e-07
46.5666635574469 7.99946741507022 0
0 0

0101101
*
Ed
 1e-07 1 1 0
1  347 0 0 4.33413087836445
0

0101000
+115 0 -113 0 *
Ve
1e-07
46.5666635574469 11.4743667501782 0
0 0

0101101
*
Ed
 1e-07 1 1 0
1  348 0 0 3.47489933510799
0

0101000
+113 0 -111 0 *
Ve
1e-07
43.5195520557685 11.4743667501782 0
0 0

0101101
*
Ed
 1e-07 1 1 0
1  349 0 0 3.04711150167842
0

0101000
+111 0 -109 0 *
Ve
1e-07
43.5195520557685 11.5743667501782 0
0 0

0101101
*
Ed
 1e-07 1 1 0
1  350 0 0 0.100000000000001
0

0101000
+109 0 -107 0 *
Ve
1e-07
50.113800854176 11.5743667501782 0
0 0

0101101
*
Ed
 1e-07 1 1 0
1  351 0 0 6.59424879840748
0

0101000
+107 0 -105 0 *
Ve
1e-07
50.113800854176 11.4743667501782 0
0 0

0101101
*
Ed
 1e-07 1 1 0
1  352 0 0 0.100000000000001
0

0101000
+105 0 -103 0 *
Ve
1e-07
46.6666635574469 11.4743667501782 0
0 0

0101101
*
Ed
 1e-07 1 1 0
1  353 0 0 3.44713729672907
0

0101000
+103 0 -101 0 *
Ve
1e-07
46.6666635574469 7.99946741507022 0
0 0

0101101
*
Ed
 1e-07 1 1 0
1  354 0 0 3.47489933510799
0

0101000
+101 0 -99 0 *
Ve
1e-07
51.5298441398929 7.99946741507022 0
0 0

0101101
*
Ed
 1e-07 1 1 0
1  355 0 0 4.86318058244602
0

0101000
+99 0 -97 0 *
Ve
1e-07
51.5298441398929 11.4743667501782 0
0 0

0101101
*
Ed
 1e-07 1 1 0
1  356 0 0 3.47489933510799
0

0101000
+97 0 -95 0 *
Ve
1e-07
51.180800854176 11.4743667501782 0
0 0

0101101
*
Ed
 1e-07 1 1 0
1  357 0 0 0.349043285716938
0

0101000
+95 0 -93 0 *
Ve
1e-07
51.180800854176 11.5743667501782 0
0 0

0101101
*
Ed
 1e-07 1 1 0
1  358 0 0 0.100000000000001
0

0101000
+93 0 -91 0 *
Ve
1e-07
51.629844139893 11.5743667501782 0
0 0

0101101
*
Ed
 1e-07 1 1 0
1  359 0 0 0.449043285716961
0

0101000
+91 0 -89 0 *
Ve
1e-07
51.629844139893 7.89946741507021 0
0 0

0101101
*
Ed
 1e-07 1 1 0
1  360 0 0 3.674899335108
0

0101000
+89 0 -87 0 *
Ed
 1e-07 1 1 0
1  361 0 0 9.96997828192337
0

0101000
+87 0 -210 0 *
Wi

0101100
+208 0 +206 0 +204 0 +202 0 +200 0 +198 0 +196 0 +194 0 +192 0 +190 0 
+188 0 +186 0 +184 0 +182 0 +180 0 +178 0 +176 0 +174 0 +172 0 +170 0 
+168 0 +166 0 +164 0 +162 0 +160 0 +158 0 +156 0 +154 0 +152 0 +150 0 
+148 0 +146 0 +144 0 +142 0 +140 0 +138 0 +136 0 +134 0 +132 0 +130 0 
+128 0 +126 0 +124 0 +122 0 +120 0 +118 0 +116 0 +114 0 +112 0 +110 0 
+108 0 +106 0 +104 0 +102 0 +100 0 +98 0 +96 0 +94 0 +92 0 +90 0 
+88 0 +86 0 +85 0 *
Ve
1e-07
54.0171866468569 14.2361817172618 0
0 0

0101101
*
Ve
1e-07
54.0171866468569 17.5829398684397 0
0 0

0101101
*
Ed
 1e-07 1 1 0
1  362 0 0 3.34675815117791
0

0101000
+83 0 -82 0 *
Ve
1e-07
58.371177498868 17.5829398684397 0
0 0

0101101
*
Ed
 1e-07 1 1 0
1  363 0 0 4.35399085201111
0

0101000
+82 0 -80 0 *
Ve
1e-07
58.371177498868 8.09946741507023 0
0 0

0101101
*
Ed
 1e-07 1 1 0
1  364 0 0 9.48347245336949
0

0101000
+80 0 -78 0 *
Ve
1e-07
54.0171866468569 8.09946741507022 0
0 0

0101101
*
Ed
 1e-07 1 1 0
1  365 0 0 4.35399085201111
0

0101000
+78 0 -76 0 *
Ve
1e-07
54.0171866468569 13.1691817172618 0
0 0

0101101
*
Ed
 1e-07 1 1 0
1  366 0 0 5.0697143021916
0

0101000
+76 0 -74 0 *
Ve
1e-07
53.8171866468569 13.1691817172618 0
0 0

0101101
*
Ed
 1e-07 1 1 0
1  367 0 0 0.200000000000003
0

0101000
+74 0 -72 0 *
Ve
1e-07
53.8171866468569 7.89946741507021 0
0 0

0101101
*
Ed
 1e-07 1 1 0
1  368 0 0 5.26971430219161
0

0101000
+72 0 -70 0 *
Ve
1e-07
58.571177498868 7.89946741507021 0
0 0

0101101
*
Ed
 1e-07 1 1 0
1  369 0 0 4.75399085201111
0

0101000
+70 0 -68 0 *
Ve
1e-07
58.571177498868 20.3514303471306 0
0 0

0101101
*
Ed
 1e-07 1 1 0
1  370 0 0 12.4519629320604
0

0101000
+68 0 -66 0 *
Ve
1e-07
53.8171866468569 20.3514303471306 0
0 0

0101101
*
Ed
 1e-07 1 1 0
1  371 0 0 4.75399085201111
0

0101000
+66 0 -64 0 *
Ve
1e-07
53.8171866468569 19.0632549085511 0
0 0

0101101
*
Ed
 1e-07 1 1 0
1  372 0 0 1.28817543857956
0

0101000
+64 0 -62 0 *
Ve
1e-07
53.9171866468569 19.0632549085511 0
0 0

0101101
*
Ed
 1e-07 1 1 0
1  373 0 0 0.0999999999999943
0

0101000
+62 0 -60 0 *
Ve
1e-07
53.9171866468569 20.2514303471306 0
0 0

0101101
*
Ed
 1e-07 1 1 0
1  374 0 0 1.18817543857956
0

0101000
+60 0 -58 0 *
Ve
1e-07
58.471177498868 20.2514303471306 0
0 0

0101101
*
Ed
 1e-07 1 1 0
1  375 0 0 4.55399085201113
0

0101000
+58 0 -56 0 *
Ve
1e-07
58.471177498868 17.7829398684397 0
0 0

0101101
*
Ed
 1e-07 1 1 0
1  376 0 0 2.46849047869092
0

0101000
+56 0 -54 0 *
Ve
1e-07
53.9171866468569 17.7829398684397 0
0 0

0101101
*
Ed
 1e-07 1 1 0
1  377 0 0 4.55399085201113
0

0101000
+54 0 -52 0 *
Ve
1e-07
53.9171866468569 17.9962549085511 0
0 0

0101101
*
Ed
 1e-07 1 1 0
1  378 0 0 0.213315040111372
0

0101000
+52 0 -50 0 *
Ve
1e-07
53.8171866468569 17.9962549085511 0
0 0

0101101
*
Ed
 1e-07 1 1 0
1  379 0 0 0.0999999999999943
0

0101000
+50 0 -48 0 *
Ve
1e-07
53.8171866468569 14.2361817172618 0
0 0

0101101
*
Ed
 1e-07 1 1 0
1  380 0 0 3.76007319128928
0

0101000
+48 0 -46 0 *
Ed
 1e-07 1 1 0
1  381 0 0 0.200000000000003
0

0101000
+46 0 -83 0 *
Wi

0101100
+81 0 +79 0 +77 0 +75 0 +73 0 +71 0 +69 0 +67 0 +65 0 +63 0 
+61 0 +59 0 +57 0 +55 0 +53 0 +51 0 +49 0 +47 0 +45 0 +44 0 
*
Ve
1e-07
21.7881422021578 14.2361817172618 0
0 0

0101101
*
Ve
1e-07
21.7881422021578 17.5829398684397 0
0 0

0101101
*
Ed
 1e-07 1 1 0
1  382 0 0 3.34675815117791
0

0101000
+42 0 -41 0 *
Ve
1e-07
17.4341513501466 17.5829398684397 0
0 0

0101101
*
Ed
 1e-07 1 1 0
1  383 0 0 4.35399085201112
0

0101000
+41 0 -39 0 *
Ve
1e-07
17.4341513501466 8.09946741507023 0
0 0

0101101
*
Ed
 1e-07 1 1 0
1  384 0 0 9.48347245336949
0

0101000
+39 0 -37 0 *
Ve
1e-07
21.7881422021578 8.09946741507022 0
0 0

0101101
*
Ed
 1e-07 1 1 0
1  385 0 0 4.35399085201112
0

0101000
+37 0 -35 0 *
Ve
1e-07
21.7881422021578 13.1691817172618 0
0 0

0101101
*
Ed
 1e-07 1 1 0
1  386 0 0 5.0697143021916
0

0101000
+35 0 -33 0 *
Ve
1e-07
21.9881422021578 13.1691817172618 0
0 0

0101101
*
Ed
 1e-07 1 1 0
1  387 0 0 0.199999999999992
0

0101000
+33 0 -31 0 *
Ve
1e-07
21.9881422021578 7.89946741507021 0
0 0

0101101
*
Ed
 1e-07 1 1 0
1  388 0 0 5.26971430219161
0

0101000
+31 0 -29 0 *
Ve
1e-07
17.2341513501467 7.89946741507021 0
0 0

0101101
*
Ed
 1e-07 1 1 0
1  389 0 0 4.7539908520111
0

0101000
+29 0 -27 0 *
Ve
1e-07
17.2341513501467 20.3514303471306 0
0 0

0101101
*
Ed
 1e-07 1 1 0
1  390 0 0 12.4519629320604
0

0101000
+27 0 -25 0 *
Ve
1e-07
21.9881422021578 20.3514303471306 0
0 0

0101101
*
Ed
 1e-07 1 1 0
1  391 0 0 4.7539908520111
0

0101000
+25 0 -23 0 *
Ve
1e-07
21.9881422021578 19.0632549085511 0
0 0

0101101
*
Ed
 1e-07 1 1 0
1  392 0 0 1.28817543857956
0

0101000
+23 0 -21 0 *
Ve
1e-07
21.8881422021578 19.0632549085511 0
0 0

0101101
*
Ed
 1e-07 1 1 0
1  393 0 0 0.0999999999999908
0

0101000
+21 0 -19 0 *
Ve
1e-07
21.8881422021578 20.2514303471306 0
0 0

0101101
*
Ed
 1e-07 1 1 0
1  394 0 0 1.18817543857956
0

0101000
+19 0 -17 0 *
Ve
1e-07
17.3341513501467 20.2514303471306 0
0 0

0101101
*
Ed
 1e-07 1 1 0
1  395 0 0 4.55399085201111
0

0101000
+17 0 -15 0 *
Ve
1e-07
17.3341513501467 17.7829398684397 0
0 0

0101101
*
Ed
 1e-07 1 1 0
1  396 0 0 2.46849047869092
0

0101000
+15 0 -13 0 *
Ve
1e-07
21.8881422021578 17.7829398684397 0
0 0

0101101
*
Ed
 1e-07 1 1 0
1  397 0 0 4.55399085201111
0

0101000
+13 0 -11 0 *
Ve
1e-07
21.8881422021578 17.9962549085511 0
0 0

0101101
*
Ed
 1e-07 1 1 0
1  398 0 0 0.213315040111372
0

0101000
+11 0 -9 0 *
Ve
1e-07
21.9881422021578 17.9962549085511 0
0 0

0101101
*
Ed
 1e-07 1 1 0
1  399 0 0 0.0999999999999908
0

0101000
+9 0 -7 0 *
Ve
1e-07
21.9881422021578 14.2361817172618 0
0 0

0101101
*
Ed
 1e-07 1 1 0
1  400 0 0 3.76007319128928
0

0101000
+7 0 -5 0 *
Ed
 1e-07 1 1 0
1  401 0 0 0.199999999999992
0

0101000
+5 0 -42 0 *
Wi

0101100
+40 0 +38 0 +36 0 +34 0 +32 0 +30 0 +28 0 +26 0 +24 0 +22 0 
+20 0 +18 0 +16 0 +14 0 +12 0 +10 0 +8 0 +6 0 +4 0 +3 0 
*
Fa
0  1e-07 1 0

1111000
+286 0 +237 0 +220 0 +211 0 +84 0 -43 0 +2 0 *

+1 0 