
CASCADE Topology V3, (c) Open Cascade
Locations 0
Curve2ds 0
Curves 0
Polygon3D 0
PolygonOnTriangulations 0
Surfaces 0
Triangulations 0

TShapes 105
Ve
1e-07
51.5892367807209 4.69924450164184 0
0 0

0101101
*
Ve
1e-07
51.5892367807209 2.84584732927989 0
0 0

0101101
*
Ve
1e-07
51.5892367807209 0.992450156917954 0
0 0

0101101
*
Ve
1e-07
49.0563755173133 1.37345015691795 0
0 0

0101101
*
Ve
1e-07
49.0563755173133 3.2268473292799 0
0 0

0101101
*
Ve
1e-07
46.1070701140542 4.69924450164184 0
0 0

0101101
*
Ve
1e-07
46.1070701140542 2.84584732927989 0
0 0

0101101
*
Ve
1e-07
46.1070701140542 0.992450156917954 0
0 0

0101101
*
Ve
1e-07
43.5953755173133 1.37345015691795 0
0 0

0101101
*
Ve
1e-07
43.5953755173133 3.2268473292799 0
0 0

0101101
*
Ve
1e-07
40.6672367807209 4.69924450164184 0
0 0

0101101
*
Ve
1e-07
40.6672367807209 2.84584732927989 0
0 0

0101101
*
Ve
1e-07
40.6672367807209 0.992450156917954 0
0 0

0101101
*
Ve
1e-07
38.1343755173133 1.37345015691795 0
0 0

0101101
*
Ve
1e-07
38.1343755173133 3.2268473292799 0
0 0

0101101
*
Ve
1e-07
35.2062367807209 4.69924450164184 0
0 0

0101101
*
Ve
1e-07
35.2062367807209 2.84584732927989 0
0 0

0101101
*
Ve
1e-07
35.2062367807209 0.992450156917954 0
0 0

0101101
*
Ve
1e-07
32.6098755173133 1.37345015691795 0
0 0

0101101
*
Ve
1e-07
32.6098755173133 3.2268473292799 0
0 0

0101101
*
Ve
1e-07
29.7029034473875 4.69924450164184 0
0 0

0101101
*
Ve
1e-07
29.7029034473875 2.84584732927989 0
0 0

0101101
*
Ve
1e-07
29.7029034473875 0.992450156917954 0
0 0

0101101
*
Ve
1e-07
27.10654218398 1.37345015691795 0
0 0

0101101
*
Ve
1e-07
27.10654218398 3.2268473292799 0
0 0

0101101
*
Ve
1e-07
24.2207367807209 4.69924450164184 0
0 0

0101101
*
Ve
1e-07
24.2207367807209 2.84584732927989 0
0 0

0101101
*
Ve
1e-07
24.2207367807209 0.992450156917954 0
0 0

0101101
*
Ve
1e-07
21.6878755173133 1.37345015691795 0
0 0

0101101
*
Ve
1e-07
21.6878755173133 3.2268473292799 0
0 0

0101101
*
Ve
1e-07
18.8020701140542 4.69924450164184 0
0 0

0101101
*
Ve
1e-07
18.8020701140542 2.84584732927989 0
0 0

0101101
*
Ve
1e-07
18.8020701140542 0.992450156917954 0
0 0

0101101
*
Ve
1e-07
16.2057088506466 1.37345015691795 0
0 0

0101101
*
Ve
1e-07
16.2057088506466 3.2268473292799 0
0 0

0101101
*
Ve
1e-07
10.0323535539641 13.0036871433573 0
0 0

0101101
*
Ve
1e-07
11.5270513872216 12.0437379724289 0
0 0

0101101
*
Ve
1e-07
12.2795256969816 12.0369128691741 0
0 0

0101101
*
Ve
1e-07
10.0328129402517 15.73022810866 0
0 0

0101101
*
Ve
1e-07
11.5275107735092 14.7702789377315 0
0 0

0101101
*
Ve
1e-07
12.2799850832692 14.7634538344768 0
0 0

0101101
*
Ve
1e-07
10.0328000641996 18.4567690739626 0
0 0

0101101
*
Ve
1e-07
11.5274978974571 17.4968199030342 0
0 0

0101101
*
Ve
1e-07
12.2799722072172 17.4899947997794 0
0 0

0101101
*
Ve
1e-07
10.0331486510828 21.2035379924159 0
0 0

0101101
*
Ve
1e-07
11.5278464843403 20.2435888214875 0
0 0

0101101
*
Ve
1e-07
12.2803207941004 20.2367637182328 0
0 0

0101101
*
Ve
1e-07
10.033249887053 23.9503069108693 0
0 0

0101101
*
Ve
1e-07
11.5279477203105 22.9903577399409 0
0 0

0101101
*
Ve
1e-07
12.2804220300705 22.9835326366861 0
0 0

0101101
*
Ve
1e-07
10.033497237966 27.0211218593723 0
0 0

0101101
*
Ve
1e-07
11.5281950712235 26.0611726884439 0
0 0

0101101
*
Ve
1e-07
12.2806693809836 26.0543475851891 0
0 0

0101101
*
Ve
1e-07
19.5892066226444 25.4956008720219 0
0 0

0101101
*
Ve
1e-07
19.5823815193896 24.7431265622619 0
0 0

0101101
*
Ve
1e-07
22.4309490971219 25.4956008720219 0
0 0

0101101
*
Ve
1e-07
22.4241239938671 24.7431265622619 0
0 0

0101101
*
Ve
1e-07
25.1742963422646 25.4920805910571 0
0 0

0101101
*
Ve
1e-07
25.1674712390098 24.739606281297 0
0 0

0101101
*
Ve
1e-07
27.9230701335488 25.4920805910571 0
0 0

0101101
*
Ve
1e-07
27.916245030294 24.739606281297 0
0 0

0101101
*
Ve
1e-07
30.6650188215782 24.739606281297 0
0 0

0101101
*
Ve
1e-07
30.671843924833 25.4920805910571 0
0 0

0101101
*
Ve
1e-07
33.3964332649333 24.739606281297 0
0 0

0101101
*
Ve
1e-07
33.4032583681881 25.4920805910571 0
0 0

0101101
*
Ve
1e-07
36.1335145432332 24.739606281297 0
0 0

0101101
*
Ve
1e-07
36.1403396464879 25.4920805910571 0
0 0

0101101
*
Ve
1e-07
38.870595821533 24.739606281297 0
0 0

0101101
*
Ve
1e-07
38.8774209247878 25.4920805910571 0
0 0

0101101
*
Ve
1e-07
41.5963434299434 24.739606281297 0
0 0

0101101
*
Ve
1e-07
41.6031685331982 25.4920805910571 0
0 0

0101101
*
Ve
1e-07
44.3009243716871 24.7184396146304 0
0 0

0101101
*
Ve
1e-07
44.3077494749419 25.4709139243904 0
0 0

0101101
*
Ve
1e-07
47.0648391515983 24.739606281297 0
0 0

0101101
*
Ve
1e-07
47.0716642548531 25.4920805910571 0
0 0

0101101
*
Ve
1e-07
49.8075872648429 24.6972729479637 0
0 0

0101101
*
Ve
1e-07
49.8144123680976 25.4497472577237 0
0 0

0101101
*
Ve
1e-07
18.809363490673 27.3567206279076 0
0 0

0101101
*
Ve
1e-07
21.6511059651504 27.3567206279076 0
0 0

0101101
*
Ve
1e-07
24.4928484396279 27.3567206279076 0
0 0

0101101
*
Ve
1e-07
27.2416222309121 27.3567206279076 0
0 0

0101101
*
Ve
1e-07
29.9903960221963 27.3567206279076 0
0 0

0101101
*
Ve
1e-07
32.7218104655514 27.3567206279076 0
0 0

0101101
*
Ve
1e-07
35.4588917438512 27.3567206279076 0
0 0

0101101
*
Ve
1e-07
38.1959730221511 27.3567206279076 0
0 0

0101101
*
Ve
1e-07
40.9217206305615 27.3567206279076 0
0 0

0101101
*
Ve
1e-07
43.6474682389719 27.3567206279076 0
0 0

0101101
*
Ve
1e-07
46.3902163522164 27.3567206279076 0
0 0

0101101
*
Ve
1e-07
49.132964465461 27.3567206279076 0
0 0

0101101
*
Ve
1e-07
63.6111363848298 13.1041040807558 0
0 0

0101101
*
Ve
1e-07
62.8475539080225 13.0997060135274 0
0 0

0101101
*
Ve
1e-07
65.549221213244 12.191627132662 0
0 0

0101101
*
Ve
1e-07
65.3015790127965 9.9203793281937 0
0 0

0101101
*
Ve
1e-07
65.3015790127965 15.492726442244 0
0 0

0101101
*
Ve
1e-07
65.3015790127965 20.9585391211241 0
0 0

0101101
*
Ve
1e-07
63.6311021022772 28.0959246324222 0
0 0

0101101
*
Ve
1e-07
62.8675196254699 28.0915265651938 0
0 0

0101101
*
Ve
1e-07
65.5691869306914 27.1834476843284 0
0 0

0101101
*
Ve
1e-07
63.6210246222491 24.0451257078031 0
0 0

0101101
*
Ve
1e-07
62.8574421454419 24.0407276405747 0
0 0

0101101
*
Ve
1e-07
65.5591094506633 23.1326487597093 0
0 0

0101101
*
Ve
1e-07
63.6276264635391 18.5751906922543 0
0 0

0101101
*
Ve
1e-07
62.8640439867319 18.5707926250259 0
0 0

0101101
*
Ve
1e-07
65.5657112919533 17.6627137441605 0
0 0

0101101
*
Co

1100000
+105 0 +104 0 +103 0 +102 0 +101 0 +100 0 +99 0 +98 0 +97 0 +96 0 
+95 0 +94 0 +93 0 +92 0 +91 0 +90 0 +89 0 +88 0 +87 0 +86 0 
+85 0 +84 0 +83 0 +82 0 +81 0 +80 0 +79 0 +78 0 +77 0 +76 0 
+75 0 +74 0 +73 0 +72 0 +71 0 +70 0 +69 0 +68 0 +67 0 +66 0 
+65 0 +64 0 +63 0 +62 0 +61 0 +60 0 +59 0 +58 0 +57 0 +56 0 
+55 0 +54 0 +53 0 +52 0 +51 0 +50 0 +49 0 +48 0 +47 0 +46 0 
+45 0 +44 0 +43 0 +42 0 +41 0 +40 0 +39 0 +38 0 +37 0 +36 0 
+35 0 +34 0 +33 0 +32 0 +31 0 +30 0 +29 0 +28 0 +27 0 +26 0 
+25 0 +24 0 +23 0 +22 0 +21 0 +20 0 +19 0 +18 0 +17 0 +16 0 
+15 0 +14 0 +13 0 +12 0 +11 0 +10 0 +9 0 +8 0 +7 0 +6 0 
+5 0 +4 0 +3 0 +2 0 *

+1 0 