
CASCADE Topology V3, (c) Open Cascade
Locations 0
Curve2ds 0
Curves 0
Polygon3D 0
PolygonOnTriangulations 0
Surfaces 0
Triangulations 0

TShapes 108
Ve
1e-07
7.26789042043772 6.23745755165378 0
0 0

0101101
*
Ve
1e-07
1.20662686076447 6.38952620949169 0
0 0

0101101
*
Ve
1e-07
4.96345588035663 9.28720335824126 0
0 0

0101101
*
Ve
1e-07
4.93750361913239 11.9750419177618 0
0 0

0101101
*
Ve
1e-07
4.8187415905346 14.7217016612299 0
0 0

0101101
*
Ve
1e-07
4.78419298547609 17.4683157633815 0
0 0

0101101
*
Ve
1e-07
4.83601589306385 20.2322041680623 0
0 0

0101101
*
Ve
1e-07
4.71509577535907 23.2379328081527 0
0 0

0101101
*
Ve
1e-07
4.49052984247875 26.8655363392963 0
0 0

0101101
*
Ve
1e-07
24.775936861585 26.3429328740556 0
0 0

0101101
*
Ve
1e-07
14.9814073274972 26.567498806936 0
0 0

0101101
*
Ve
1e-07
31.3919947302897 26.1010926386461 0
0 0

0101101
*
Ve
1e-07
43.8113656180054 26.2180747823276 0
0 0

0101101
*
Ve
1e-07
10.404705571185 25.1322845504169 0
0 0

0101101
*
Ve
1e-07
12.7961099178578 25.109617210638 0
0 0

0101101
*
Ve
1e-07
12.34276312228 22.1741967092719 0
0 0

0101101
*
Ve
1e-07
10.7333819979789 22.151529369493 0
0 0

0101101
*
Ve
1e-07
15.2743197576738 21.0790180304235 0
0 0

0101101
*
Ve
1e-07
17.4571006252705 23.7095488195785 0
0 0

0101101
*
Ve
1e-07
22.5502559829962 23.5696269690915 0
0 0

0101101
*
Ve
1e-07
19.9337173788899 26.6758920499022 0
0 0

0101101
*
Ve
1e-07
21.2349905884187 21.0370414752774 0
0 0

0101101
*
Ve
1e-07
24.1173807084502 20.9950649201313 0
0 0

0101101
*
Ve
1e-07
19.4235198393808 16.9498251913252 0
0 0

0101101
*
Ve
1e-07
18.4561588977425 20.0591996465911 0
0 0

0101101
*
Ve
1e-07
29.788101356934 20.525605814881 0
0 0

0101101
*
Ve
1e-07
29.6499069366999 17.1571168216763 0
0 0

0101101
*
Ve
1e-07
32.1892294085004 13.3222216601816 0
0 0

0101101
*
Ve
1e-07
32.1546808034419 17.2262140317933 0
0 0

0101101
*
Ve
1e-07
32.1201321983834 20.4737829072933 0
0 0

0101101
*
Ve
1e-07
29.252597978527 25.1723931952507 0
0 0

0101101
*
Ve
1e-07
26.9896643471946 25.1551188927215 0
0 0

0101101
*
Ve
1e-07
27.1105844648994 21.7002583868704 0
0 0

0101101
*
Ve
1e-07
28.8207404152956 21.7520812944582 0
0 0

0101101
*
Ve
1e-07
35.5559764392744 26.1900904122302 0
0 0

0101101
*
Ve
1e-07
39.585725733299 26.2040825972789 0
0 0

0101101
*
Ve
1e-07
51.8247450040822 17.3686269208205 0
0 0

0101101
*
Ve
1e-07
51.9300600629406 22.8713387461739 0
0 0

0101101
*
Ve
1e-07
51.4298135333631 12.208189036757 0
0 0

0101101
*
Ve
1e-07
47.6170639961164 19.1765790667631 0
0 0

0101101
*
Ve
1e-07
44.1330099189909 18.7288291452048 0
0 0

0101101
*
Ve
1e-07
48.241197522125 25.3586574297976 0
0 0

0101101
*
Ve
1e-07
46.1664559121633 25.3311166119663 0
0 0

0101101
*
Ve
1e-07
46.2490783656573 22.0537592900356 0
0 0

0101101
*
Ve
1e-07
48.0484117973055 22.081300107867 0
0 0

0101101
*
Ve
1e-07
55.0486894014763 26.8672743689739 0
0 0

0101101
*
Ve
1e-07
51.9319301818791 25.7452410499189 0
0 0

0101101
*
Ve
1e-07
55.0373557315868 22.1071330154072 0
0 0

0101101
*
Ve
1e-07
51.9999322012158 20.21441014387 0
0 0

0101101
*
Ve
1e-07
55.0274073582671 16.8210443457353 0
0 0

0101101
*
Ve
1e-07
51.8602133076619 14.8013843714363 0
0 0

0101101
*
Ve
1e-07
55.0632920960777 11.1433290951935 0
0 0

0101101
*
Ve
1e-07
51.731193148581 9.18260420431966 0
0 0

0101101
*
Ve
1e-07
51.2971317769088 6.84246212130868 0
0 0

0101101
*
Ve
1e-07
51.884803548954 2.98061904786838 0
0 0

0101101
*
Ve
1e-07
23.1733409970646 10.0189163187666 0
0 0

0101101
*
Ve
1e-07
19.1912755445132 13.0408616349077 0
0 0

0101101
*
Ve
1e-07
23.263001393684 12.9988850797616 0
0 0

0101101
*
Ve
1e-07
27.320735057806 12.9709007096642 0
0 0

0101101
*
Ve
1e-07
29.769367441328 13.9363614780243 0
0 0

0101101
*
Ve
1e-07
35.813991382365 10.0885105896327 0
0 0

0101101
*
Ve
1e-07
34.4707416176901 12.5371429731546 0
0 0

0101101
*
Ve
1e-07
32.0920701594116 10.0045574793405 0
0 0

0101101
*
Ve
1e-07
26.0595771988232 7.49386126818195 0
0 0

0101101
*
Ve
1e-07
19.4520476532771 7.53919594773973 0
0 0

0101101
*
Ve
1e-07
39.0862335577501 16.8636977930042 0
0 0

0101101
*
Ve
1e-07
38.8708938298507 20.5698078468525 0
0 0

0101101
*
Ve
1e-07
37.068840317429 20.5698078468525 0
0 0

0101101
*
Ve
1e-07
37.0737143093732 16.901216280014 0
0 0

0101101
*
Ve
1e-07
37.1569135863773 13.8481773674827 0
0 0

0101101
*
Ve
1e-07
38.9470667454151 12.507857566357 0
0 0

0101101
*
Ve
1e-07
40.6086960879065 9.9649220532624 0
0 0

0101101
*
Ve
1e-07
47.5359777409766 13.9653487887956 0
0 0

0101101
*
Ve
1e-07
44.0338737451383 13.9200141092379 0
0 0

0101101
*
Ve
1e-07
44.0452074150277 12.2312972957107 0
0 0

0101101
*
Ve
1e-07
44.2152124633694 10.1005673564951 0
0 0

0101101
*
Ve
1e-07
47.4842412049015 7.01240310027396 0
0 0

0101101
*
Ve
1e-07
44.4479370493343 7.01240310027396 0
0 0

0101101
*
Ve
1e-07
47.6521474254859 3.16455221188235 0
0 0

0101101
*
Ve
1e-07
44.60185108487 3.13656784178495 0
0 0

0101101
*
Ve
1e-07
40.236219922567 2.94336617493255 0
0 0

0101101
*
Ve
1e-07
38.2868287015826 6.93281797601697 0
0 0

0101101
*
Ve
1e-07
34.8563006547436 2.92161269675075 0
0 0

0101101
*
Ve
1e-07
32.7935727348647 6.9450655075035 0
0 0

0101101
*
Ve
1e-07
29.2651655850911 2.90935909560958 0
0 0

0101101
*
Ve
1e-07
27.349775373775 6.92147823647288 0
0 0

0101101
*
Ve
1e-07
21.8572739244705 6.92226218070801 0
0 0

0101101
*
Ve
1e-07
23.8021876462394 2.92049725678074 0
0 0

0101101
*
Ve
1e-07
18.2612823669554 2.99045818202422 0
0 0

0101101
*
Ve
1e-07
14.438268705727 13.984790728834 0
0 0

0101101
*
Ve
1e-07
14.3475993466115 18.8809361210739 0
0 0

0101101
*
Ve
1e-07
10.8794963604415 19.1189431887523 0
0 0

0101101
*
Ve
1e-07
10.8837454751982 14.1332953235657 0
0 0

0101101
*
Ve
1e-07
15.0412938244924 11.7416268481155 0
0 0

0101101
*
Ve
1e-07
15.0072928148241 8.90820937575442 0
0 0

0101101
*
Ve
1e-07
16.4013342112257 6.97015182465943 0
0 0

0101101
*
Ve
1e-07
12.8578989514092 2.99563999202249 0
0 0

0101101
*
Ve
1e-07
10.9025592064201 7.04022007028441 0
0 0

0101101
*
Ve
1e-07
4.98638352413016 6.25819684791275 0
0 0

0101101
*
Ve
1e-07
4.97504985424071 3.26610799709944 0
0 0

0101101
*
Ve
1e-07
6.90066227089226 9.04623955971987 0
0 0

0101101
*
Ve
1e-07
6.94638653872907 11.7070558837487 0
0 0

0101101
*
Ve
1e-07
6.91037083705429 14.3976874179782 0
0 0

0101101
*
Ve
1e-07
6.88069291543503 17.1883255541261 0
0 0

0101101
*
Ve
1e-07
6.86233237021413 19.9974889729238 0
0 0

0101101
*
Ve
1e-07
6.82966180051305 22.5772918209677 0
0 0

0101101
*
Ve
1e-07
6.86638289095485 25.726125326352 0
0 0

0101101
*
Co

1100000
+108 0 +107 0 +106 0 +105 0 +104 0 +103 0 +102 0 +101 0 +100 0 +99 0 
+98 0 +97 0 +96 0 +95 0 +94 0 +93 0 +92 0 +91 0 +90 0 +89 0 
+88 0 +87 0 +86 0 +85 0 +84 0 +83 0 +82 0 +81 0 +80 0 +79 0 
+78 0 +77 0 +76 0 +75 0 +74 0 +73 0 +72 0 +71 0 +70 0 +69 0 
+68 0 +67 0 +66 0 +65 0 +64 0 +63 0 +62 0 +61 0 +60 0 +59 0 
+58 0 +57 0 +56 0 +55 0 +54 0 +53 0 +52 0 +51 0 +50 0 +49 0 
+48 0 +47 0 +46 0 +45 0 +44 0 +43 0 +42 0 +41 0 +40 0 +39 0 
+38 0 +37 0 +36 0 +35 0 +34 0 +33 0 +32 0 +31 0 +30 0 +29 0 
+28 0 +27 0 +26 0 +25 0 +24 0 +23 0 +22 0 +21 0 +20 0 +19 0 
+18 0 +17 0 +16 0 +15 0 +14 0 +13 0 +12 0 +11 0 +10 0 +9 0 
+8 0 +7 0 +6 0 +5 0 +4 0 +3 0 +2 0 *

+1 0 